{"_v":2,"glyphs":{"0":{"ha":405,"x_min":47,"x_max":357,"o":"m 202 -7 l 202 -7 q 146 -7 112 36 q 77 78 62 160 q 47 241 47 358 l 47 358 q 47 475 62 557 q 77 638 111 681 q 145 724 202 724 l 202 724 q 260 724 294 680 q 327 636 342 554 q 357 472 357 359 l 357 359 q 357 273 349 205 q 341 137 323 90 q 305 42 276 18 q 246 -7 202 -7 z m 202 29 l 202 29 q 235 29 258 52 q 281 75 294 119 q 307 163 313 224 q 319 284 319 359 l 319 359 q 319 432 313 492 q 307 552 294 596 q 280 640 258 664 q 235 688 202 688 l 202 688 q 168 688 146 665 q 124 642 111 599 q 97 555 91 494 q 85 433 85 359 l 85 359 q 85 285 91 225 q 97 164 111 121 q 124 77 146 53 q 168 29 202 29 z"},"1":{"ha":405,"x_min":65,"x_max":257,"o":"m 257 714 l 257 0 l 220 0 l 220 551 q 220 583 220 610 q 220 636 221 669 l 221 669 q 212 657 203 646 q 193 635 181 623 l 181 623 l 90 529 l 65 554 l 224 714 l 257 714 z"},"2":{"ha":405,"x_min":36,"x_max":354,"o":"m 354 0 l 36 0 l 36 29 l 185 257 q 221 312 247 358 q 273 403 287 448 q 301 492 301 543 l 301 543 q 301 593 284 625 q 266 657 238 673 q 209 688 174 688 l 174 688 q 137 688 109 676 q 81 664 58 648 l 58 648 l 39 678 q 58 691 79 702 q 100 712 125 718 q 150 724 178 724 l 178 724 q 223 724 260 703 q 296 682 318 643 q 339 603 339 545 l 339 545 q 339 486 323 436 q 307 386 280 339 q 252 292 218 240 l 218 240 l 84 38 l 84 36 l 353 36 l 354 0 z"},"3":{"ha":405,"x_min":23,"x_max":343,"o":"m 163 -10 l 163 -10 q 129 -10 93 -5 q 56 0 24 12 l 24 12 l 24 51 q 53 39 85 32 q 116 25 159 25 l 159 25 q 230 25 267 69 q 304 112 304 193 l 304 193 q 304 250 282 285 q 260 320 221 336 q 182 352 132 352 l 132 352 l 97 352 l 97 387 l 138 387 q 186 387 221 409 q 256 430 276 467 q 295 503 295 550 l 295 550 q 295 620 263 655 q 231 689 175 689 l 175 689 q 135 689 104 675 q 72 661 42 640 l 42 640 l 23 670 q 61 697 98 711 q 135 724 178 724 l 178 724 q 225 724 260 704 q 295 684 314 647 q 333 609 333 555 l 333 555 q 333 502 316 466 q 299 429 272 406 q 244 383 210 372 l 210 372 l 210 369 q 271 358 307 314 q 343 269 343 190 l 343 190 q 343 130 323 85 q 302 40 262 15 q 221 -10 163 -10 z"},"4":{"ha":405,"x_min":20,"x_max":389,"o":"m 306 0 l 269 0 l 269 172 l 20 172 l 20 205 l 266 718 l 306 718 l 306 207 l 389 207 l 389 172 l 306 172 l 306 0 z m 227 562 l 58 207 l 269 207 l 269 587 q 269 601 269 613 q 269 624 270 635 q 270 646 270 658 l 270 658 l 269 658 q 259 633 249 609 q 238 585 227 562 l 227 562 z"},"5":{"ha":405,"x_min":47,"x_max":358,"o":"m 165 -10 l 165 -10 q 130 -10 101 -4 q 71 2 47 11 l 47 11 l 47 51 q 70 39 97 33 q 124 26 164 26 l 164 26 q 219 26 253 52 q 287 77 303 122 q 319 166 319 222 l 319 222 q 319 301 287 347 q 255 393 180 393 l 180 393 q 151 393 123 388 q 94 382 74 374 l 74 374 l 55 392 l 78 714 l 320 714 l 320 678 l 112 678 l 93 414 q 111 420 136 424 q 160 428 188 428 l 188 428 q 247 428 284 402 q 321 376 340 330 q 358 283 358 223 l 358 223 q 358 156 337 104 q 316 51 274 21 q 231 -10 165 -10 z"},"6":{"ha":405,"x_min":51,"x_max":361,"o":"m 210 -10 l 210 -10 q 168 -10 138 10 q 108 29 89 69 q 69 108 60 169 q 51 229 51 309 l 51 309 q 51 401 61 470 q 71 539 90 588 q 109 636 136 666 q 163 696 197 710 q 230 724 269 724 l 269 724 q 284 724 300 723 q 316 721 332 717 l 332 717 l 332 681 q 317 685 300 687 q 283 688 269 688 l 269 688 q 210 688 170 649 q 130 610 110 533 q 90 456 88 345 l 88 345 l 90 345 q 97 368 113 390 q 129 412 154 427 q 179 442 216 442 l 216 442 q 266 442 298 416 q 330 389 346 340 q 361 290 361 222 l 361 222 q 361 149 343 97 q 325 45 292 18 q 258 -10 210 -10 z m 209 26 l 209 26 q 264 26 293 77 q 322 127 322 223 l 322 223 q 322 306 297 357 q 272 407 212 407 l 212 407 q 175 407 148 387 q 121 367 106 332 q 91 296 91 249 l 91 249 q 91 217 96 178 q 101 139 114 105 q 126 70 149 48 q 172 26 209 26 z"},"7":{"ha":405,"x_min":27,"x_max":368,"o":"m 135 0 l 95 0 l 328 678 l 27 678 l 27 714 l 368 714 l 368 684 l 135 0 z"},"8":{"ha":405,"x_min":38,"x_max":367,"o":"m 205 -10 l 205 -10 q 154 -10 116 13 q 78 36 58 77 q 38 117 38 171 l 38 171 q 38 222 56 260 q 73 298 103 327 q 133 355 170 378 l 170 378 q 135 402 109 430 q 83 457 69 490 q 55 523 55 563 l 55 563 q 55 611 74 647 q 92 683 126 703 q 160 723 206 723 l 206 723 q 253 723 286 703 q 318 683 335 648 q 352 612 352 564 l 352 564 q 352 516 337 483 q 322 449 295 424 q 268 399 232 377 l 232 377 q 271 350 302 322 q 332 293 350 258 q 367 222 367 174 l 367 174 q 367 121 348 80 q 328 38 292 14 q 256 -10 205 -10 z m 204 25 l 204 25 q 263 25 296 66 q 329 107 329 172 l 329 172 q 329 204 318 234 q 307 264 282 293 q 257 322 215 349 l 215 349 l 200 359 q 165 339 137 313 q 109 287 93 252 q 76 217 76 170 l 76 170 q 76 102 112 64 q 148 25 204 25 z m 203 395 l 203 395 q 238 418 263 440 q 287 462 301 492 q 314 521 314 563 l 314 563 q 314 622 286 655 q 258 688 205 688 l 205 688 q 153 688 123 654 q 93 620 93 561 l 93 561 q 93 526 106 497 q 118 468 143 444 q 167 419 203 395 z"},"9":{"ha":405,"x_min":45,"x_max":354,"o":"m 138 -10 l 138 -10 q 124 -10 106 -8 q 88 -7 75 -3 l 75 -3 l 75 33 q 88 29 105 27 q 121 25 137 25 l 137 25 q 184 25 218 48 q 251 71 273 116 q 295 160 306 224 q 317 288 317 369 l 317 369 l 316 369 q 309 346 293 324 q 277 302 252 287 q 227 272 189 272 l 189 272 q 139 272 107 299 q 75 325 60 375 q 45 425 45 492 l 45 492 q 45 565 63 617 q 81 669 115 697 q 148 724 196 724 l 196 724 q 238 724 268 705 q 298 685 317 646 q 336 606 345 546 q 354 486 354 406 l 354 406 q 354 313 345 244 q 335 174 316 126 q 297 77 271 47 q 244 17 211 4 q 177 -10 138 -10 z m 194 307 l 194 307 q 231 307 258 328 q 285 348 300 384 q 314 420 314 466 l 314 466 q 314 498 310 536 q 306 574 294 609 q 281 644 258 666 q 235 688 197 688 l 197 688 q 142 688 113 638 q 83 588 83 491 l 83 491 q 83 408 108 358 q 133 307 194 307 z"},"\r":{"ha":221,"x_min":0,"x_max":0,"o":""}," ":{"ha":221,"x_min":0,"x_max":0,"o":""},"ഀ":{"ha":0,"x_min":-384,"x_max":-174,"o":"m -384 727 l -384 727 q -384 793 -354 829 q -325 864 -279 864 l -279 864 q -233 864 -203 829 q -174 793 -174 727 l -174 727 q -174 660 -203 625 q -233 589 -279 589 l -279 589 q -325 589 -354 625 q -384 660 -384 727 z m -349 727 l -349 727 q -349 677 -331 649 q -313 621 -279 621 l -279 621 q -245 621 -226 649 q -208 677 -208 727 l -208 727 q -208 776 -226 804 q -245 832 -279 832 l -279 832 q -313 832 -331 804 q -349 776 -349 727 z"},"ഁ":{"ha":0,"x_min":-399,"x_max":-157,"o":"m -279 669 l -279 669 q -331 669 -365 702 q -399 734 -399 808 l -399 808 q -399 819 -397 834 q -396 848 -393 860 l -393 860 l -360 855 q -362 845 -363 832 q -365 818 -365 808 l -365 808 q -365 770 -355 747 q -345 723 -326 713 q -307 702 -279 702 l -279 702 q -250 702 -230 714 q -211 725 -201 749 q -191 773 -191 808 l -191 808 q -191 818 -192 832 q -194 846 -196 856 l -196 856 l -163 860 q -160 848 -158 834 q -157 820 -157 809 l -157 809 q -157 735 -192 702 q -227 669 -279 669 z m -278 775 l -278 775 q -295 775 -301 785 q -307 795 -307 810 l -307 810 q -307 824 -301 834 q -295 844 -278 844 l -278 844 q -261 844 -255 834 q -249 824 -249 810 l -249 810 q -249 795 -255 785 q -261 775 -278 775 z"},"ം":{"ha":330,"x_min":35,"x_max":295,"o":"m 165 -12 l 165 -12 q 124 -12 95 9 q 66 30 51 70 q 35 110 35 168 l 35 168 q 35 227 51 267 q 67 306 96 327 q 125 348 166 348 l 166 348 q 205 348 234 328 q 263 307 279 268 q 295 228 295 169 l 295 169 q 295 110 279 70 q 263 29 234 9 q 205 -12 165 -12 z m 166 314 l 166 314 q 121 314 97 278 q 72 242 72 168 l 72 168 q 72 94 96 58 q 120 22 165 22 l 165 22 q 209 22 234 59 q 258 95 258 169 l 258 169 q 258 242 234 278 q 210 314 166 314 z"},"ഃ":{"ha":254,"x_min":33,"x_max":221,"o":"m 33 434 l 33 434 q 33 495 59 528 q 85 560 127 560 l 127 560 q 168 560 195 528 q 221 495 221 434 l 221 434 q 221 374 195 342 q 169 309 127 309 l 127 309 q 85 309 59 342 q 33 374 33 434 z m 68 435 l 68 435 q 68 389 84 366 q 100 342 127 342 l 127 342 q 155 342 171 366 q 186 389 186 435 l 186 435 q 186 480 170 504 q 154 527 127 527 l 127 527 q 99 527 84 504 q 68 480 68 435 z m 33 113 l 33 113 q 33 174 59 206 q 85 238 127 238 l 127 238 q 168 238 195 206 q 221 174 221 113 l 221 113 q 221 53 195 21 q 169 -12 127 -12 l 127 -12 q 85 -12 59 20 q 33 52 33 113 z m 68 113 l 68 113 q 68 67 84 44 q 100 20 127 20 l 127 20 q 155 20 171 44 q 186 67 186 113 l 186 113 q 186 159 170 183 q 154 206 127 206 l 127 206 q 99 206 84 183 q 68 159 68 113 z"},"ഄ":{"ha":443,"x_min":39,"x_max":404,"o":"m 52 306 l 52 306 l 88 299 q 82 274 80 250 q 77 226 77 200 l 77 200 q 77 119 109 73 q 140 26 221 26 l 221 26 q 302 26 334 73 q 366 119 366 199 l 366 199 q 366 225 364 250 q 361 274 355 299 l 355 299 l 391 306 q 396 285 400 257 q 404 229 404 199 l 404 199 q 404 137 386 90 q 368 43 328 17 q 287 -9 221 -9 l 221 -9 q 155 -9 115 17 q 75 43 57 90 q 39 137 39 199 l 39 199 q 39 229 43 257 q 47 285 52 306 z m 205 161 l 205 393 l 240 393 l 240 161 l 205 161 z"},"അ":{"ha":1063,"x_min":41,"x_max":1022,"o":"m 276 560 l 276 560 q 306 560 336 554 q 366 548 394 534 l 394 534 q 397 533 400 531 q 402 529 405 526 l 405 526 q 433 512 454 491 q 474 469 486 440 q 497 410 497 373 l 497 373 q 497 339 487 313 q 476 286 452 270 q 428 253 388 246 l 388 246 l 387 255 q 443 249 474 215 q 505 181 505 123 l 505 123 q 505 81 490 51 q 475 20 447 4 q 419 -12 380 -12 l 380 -12 q 330 -12 297 16 q 263 43 246 97 q 229 150 229 228 l 229 228 q 229 283 241 338 q 253 392 280 439 q 307 486 350 515 l 350 515 q 353 517 357 521 q 360 524 363 527 l 363 527 q 388 543 416 552 q 444 560 477 560 l 477 560 q 532 560 568 540 q 604 519 624 483 q 644 447 649 399 l 649 399 l 660 296 l 660 0 l 623 0 l 623 305 q 623 382 613 424 q 602 465 577 490 l 577 490 q 560 508 535 517 q 509 526 474 526 l 474 526 q 450 526 431 521 q 412 516 395 507 l 395 507 q 361 490 337 460 q 312 430 297 392 q 281 354 274 312 q 266 270 266 228 l 266 228 q 266 127 293 75 q 320 22 380 22 l 380 22 q 422 22 445 47 q 468 72 468 124 l 468 124 q 468 171 440 203 q 412 234 357 234 l 357 234 l 352 234 l 352 268 l 355 268 q 409 268 435 298 q 460 327 460 373 l 460 373 q 460 426 435 460 q 410 493 370 509 l 370 509 q 347 519 325 523 q 302 526 279 526 l 279 526 q 208 526 164 494 q 120 462 100 408 q 79 354 79 289 l 79 289 q 79 222 93 173 q 107 123 131 86 q 154 49 181 19 l 181 19 l 155 -6 q 129 22 103 61 q 76 100 59 157 q 41 213 41 290 l 41 290 q 41 347 56 396 q 70 445 99 482 q 128 518 173 539 q 217 560 276 560 z m 887 -12 l 887 -12 q 842 -12 813 13 q 784 37 771 83 q 757 129 757 191 l 757 191 q 757 290 793 337 q 829 384 887 384 l 887 384 q 919 384 942 372 q 965 359 982 338 q 999 316 1011 289 l 1011 289 l 1001 267 q 990 288 976 307 q 961 326 941 339 q 921 351 892 351 l 892 351 q 842 351 818 310 q 794 269 794 190 l 794 190 q 794 138 803 100 q 812 62 833 42 q 854 22 888 22 l 888 22 q 918 22 940 42 q 962 62 974 109 q 986 156 986 238 l 986 238 q 986 252 985 274 q 984 296 982 307 l 982 307 q 983 309 984 312 q 984 314 983 318 l 983 318 q 974 372 954 419 q 933 466 895 496 q 857 525 797 525 l 797 525 q 766 525 745 518 q 723 510 707 496 l 707 496 q 692 482 682 461 q 671 439 666 408 q 660 377 660 333 l 660 333 l 660 251 l 632 400 q 639 455 660 490 q 681 525 716 543 q 750 560 796 560 l 796 560 q 852 560 895 537 q 937 514 966 471 q 994 428 1008 369 q 1022 309 1022 237 l 1022 237 q 1022 141 1005 87 q 987 32 957 10 q 927 -12 887 -12 z"},"ആ":{"ha":1163,"x_min":41,"x_max":1137,"o":"m 276 560 l 276 560 q 306 560 336 554 q 366 548 394 534 l 394 534 q 397 533 400 531 q 402 529 405 526 l 405 526 q 433 512 454 491 q 474 469 486 440 q 497 410 497 373 l 497 373 q 497 339 487 313 q 476 286 452 270 q 428 253 388 246 l 388 246 l 387 255 q 443 249 474 215 q 505 181 505 123 l 505 123 q 505 81 490 51 q 475 20 447 4 q 419 -12 380 -12 l 380 -12 q 330 -12 297 16 q 263 43 246 97 q 229 150 229 228 l 229 228 q 229 283 241 338 q 253 392 280 439 q 307 486 350 515 l 350 515 q 353 517 357 521 q 360 524 363 527 l 363 527 q 388 543 416 552 q 444 560 477 560 l 477 560 q 532 560 568 540 q 604 519 624 483 q 644 447 649 399 l 649 399 l 660 296 l 660 0 l 623 0 l 623 305 q 623 382 613 424 q 602 465 577 490 l 577 490 q 560 508 535 517 q 509 526 474 526 l 474 526 q 450 526 431 521 q 412 516 395 507 l 395 507 q 361 490 337 460 q 312 430 297 392 q 281 354 274 312 q 266 270 266 228 l 266 228 q 266 127 293 75 q 320 22 380 22 l 380 22 q 422 22 445 47 q 468 72 468 124 l 468 124 q 468 171 440 203 q 412 234 357 234 l 357 234 l 352 234 l 352 268 l 355 268 q 409 268 435 298 q 460 327 460 373 l 460 373 q 460 426 435 460 q 410 493 370 509 l 370 509 q 347 519 325 523 q 302 526 279 526 l 279 526 q 208 526 164 494 q 120 462 100 408 q 79 354 79 289 l 79 289 q 79 222 93 173 q 107 123 131 86 q 154 49 181 19 l 181 19 l 155 -6 q 129 22 103 61 q 76 100 59 157 q 41 213 41 290 l 41 290 q 41 347 56 396 q 70 445 99 482 q 128 518 173 539 q 217 560 276 560 z m 793 560 l 793 560 q 860 560 903 528 q 945 496 969 445 q 992 394 1001 336 l 1001 336 q 1006 308 1008 280 q 1010 251 1010 225 l 1010 225 q 1010 136 992 84 q 973 32 943 10 q 912 -12 872 -12 l 872 -12 q 828 -12 801 12 q 773 36 761 76 q 749 115 749 161 l 749 161 q 749 259 799 311 q 849 362 932 362 l 932 362 q 943 362 954 361 q 964 359 974 357 l 974 357 l 987 355 q 1038 341 1072 301 q 1105 261 1121 205 q 1137 148 1137 85 l 1137 85 q 1137 17 1123 -36 q 1108 -90 1079 -126 q 1049 -163 1006 -182 q 962 -201 905 -201 l 905 -201 q 880 -201 856 -197 q 832 -194 806 -186 l 806 -186 l 817 -153 q 837 -159 858 -162 q 879 -166 904 -166 l 904 -166 q 957 -166 995 -148 q 1032 -130 1056 -97 q 1079 -64 1090 -17 q 1100 29 1100 87 l 1100 87 q 1100 135 1090 182 q 1079 229 1056 266 q 1032 302 993 318 l 993 318 l 978 322 q 967 324 957 326 q 946 328 935 328 l 935 328 q 892 328 859 312 q 825 295 806 259 q 787 222 787 162 l 787 162 q 787 125 794 93 q 801 61 820 42 q 839 22 873 22 l 873 22 q 923 22 948 72 q 973 121 973 226 l 973 226 q 973 252 972 280 q 970 308 965 336 l 965 336 l 962 349 q 953 395 934 436 q 914 476 880 501 q 846 525 793 525 l 793 525 q 765 525 744 518 q 723 510 707 496 l 707 496 q 692 482 682 461 q 671 439 666 408 q 660 377 660 333 l 660 333 l 660 251 l 634 401 q 640 455 661 491 q 682 526 716 543 q 749 560 793 560 z"},"ഇ":{"ha":691,"x_min":39,"x_max":650,"o":"m 229 560 l 229 560 q 275 560 306 544 q 336 528 355 498 q 374 468 382 425 l 382 425 l 372 434 q 386 501 417 531 q 448 560 495 560 l 495 560 q 535 560 564 540 q 592 519 612 484 q 631 449 641 403 q 650 357 650 306 l 650 306 q 650 225 632 161 q 614 97 569 59 l 569 59 q 545 38 515 25 q 484 11 442 6 q 399 0 337 0 l 337 0 l 226 0 q 177 0 149 -5 q 121 -10 103 -26 l 103 -26 q 93 -36 88 -50 q 82 -64 82 -82 l 82 -82 q 82 -103 89 -117 q 96 -132 109 -143 l 109 -143 q 125 -155 152 -160 q 179 -166 223 -166 l 223 -166 l 637 -166 l 637 -201 l 217 -201 q 171 -201 141 -194 q 110 -187 86 -170 l 86 -170 q 66 -156 55 -134 q 44 -112 44 -83 l 44 -83 q 44 -57 52 -37 q 60 -17 76 -3 l 76 -3 q 90 10 109 18 q 127 26 154 30 q 181 34 221 34 l 221 34 l 335 34 q 395 34 434 40 q 473 45 499 56 q 524 66 543 83 l 543 83 q 582 116 597 175 q 612 233 612 305 l 612 305 q 612 361 600 412 q 587 462 561 494 q 535 525 494 525 l 494 525 q 474 525 460 519 q 445 512 434 500 l 434 500 q 413 476 404 438 q 395 399 395 335 l 395 335 l 395 114 l 358 114 l 358 327 q 358 394 349 434 q 340 473 315 496 l 315 496 q 300 511 280 519 q 260 526 229 526 l 229 526 q 192 526 165 510 q 137 494 119 468 q 100 441 90 410 q 79 378 75 347 l 75 347 q 74 344 75 340 q 75 336 75 334 l 75 334 q 74 328 74 320 q 74 311 74 302 l 74 302 q 74 221 93 180 q 112 139 156 139 l 156 139 q 190 139 207 169 q 224 199 224 252 l 224 252 q 224 282 218 306 q 211 329 196 344 q 181 358 154 358 l 154 358 q 125 358 102 343 q 79 327 59 302 l 59 302 l 47 328 q 62 347 79 361 q 95 375 115 383 q 135 391 158 391 l 158 391 q 194 391 217 373 q 239 354 251 323 q 262 291 262 253 l 262 253 q 262 206 250 173 q 237 140 214 123 q 190 105 158 105 l 158 105 q 120 105 94 126 q 67 147 53 191 q 39 235 39 304 l 39 304 q 39 374 61 432 q 83 490 126 525 q 168 560 229 560 z"},"ഈ":{"ha":1235,"x_min":39,"x_max":1192,"o":"m 229 560 l 229 560 q 275 560 306 544 q 336 528 355 498 q 374 468 382 425 l 382 425 l 372 434 q 386 501 417 531 q 448 560 495 560 l 495 560 q 535 560 564 540 q 592 519 612 484 q 631 449 641 403 q 650 357 650 306 l 650 306 q 650 225 632 161 q 614 97 569 59 l 569 59 q 545 38 515 25 q 484 11 442 6 q 399 0 337 0 l 337 0 l 226 0 q 177 0 149 -5 q 121 -10 103 -26 l 103 -26 q 93 -36 88 -50 q 82 -64 82 -82 l 82 -82 q 82 -103 89 -117 q 96 -132 109 -143 l 109 -143 q 125 -155 152 -160 q 179 -166 223 -166 l 223 -166 l 637 -166 l 637 -201 l 217 -201 q 171 -201 141 -194 q 110 -187 86 -170 l 86 -170 q 66 -156 55 -134 q 44 -112 44 -83 l 44 -83 q 44 -57 52 -37 q 60 -17 76 -3 l 76 -3 q 90 10 109 18 q 127 26 154 30 q 181 34 221 34 l 221 34 l 335 34 q 395 34 434 40 q 473 45 499 56 q 524 66 543 83 l 543 83 q 582 116 597 175 q 612 233 612 305 l 612 305 q 612 361 600 412 q 587 462 561 494 q 535 525 494 525 l 494 525 q 474 525 460 519 q 445 512 434 500 l 434 500 q 413 476 404 438 q 395 399 395 335 l 395 335 l 395 114 l 358 114 l 358 327 q 358 394 349 434 q 340 473 315 496 l 315 496 q 300 511 280 519 q 260 526 229 526 l 229 526 q 192 526 165 510 q 137 494 119 468 q 100 441 90 410 q 79 378 75 347 l 75 347 q 74 344 75 340 q 75 336 75 334 l 75 334 q 74 328 74 320 q 74 311 74 302 l 74 302 q 74 221 93 180 q 112 139 156 139 l 156 139 q 190 139 207 169 q 224 199 224 252 l 224 252 q 224 282 218 306 q 211 329 196 344 q 181 358 154 358 l 154 358 q 125 358 102 343 q 79 327 59 302 l 59 302 l 47 328 q 62 347 79 361 q 95 375 115 383 q 135 391 158 391 l 158 391 q 194 391 217 373 q 239 354 251 323 q 262 291 262 253 l 262 253 q 262 206 250 173 q 237 140 214 123 q 190 105 158 105 l 158 105 q 120 105 94 126 q 67 147 53 191 q 39 235 39 304 l 39 304 q 39 374 61 432 q 83 490 126 525 q 168 560 229 560 z m 1058 560 l 1058 560 q 1100 560 1130 531 q 1160 502 1176 445 q 1192 388 1192 303 l 1192 303 q 1192 197 1172 127 q 1152 57 1106 23 q 1059 -12 982 -12 l 982 -12 q 949 -12 914 -5 q 879 1 842 20 l 842 20 l 859 51 q 890 37 918 30 q 945 23 980 23 l 980 23 q 1049 23 1087 54 q 1124 85 1139 147 q 1154 209 1154 303 l 1154 303 q 1154 414 1128 470 q 1101 525 1056 525 l 1056 525 q 1037 525 1024 517 q 1011 508 1001 494 l 1001 494 q 985 468 980 433 q 975 397 975 352 l 975 352 l 975 257 l 938 257 l 938 356 q 938 406 933 439 q 927 472 914 492 l 914 492 q 904 508 890 517 q 875 525 855 525 l 855 525 q 811 525 789 488 q 767 450 767 393 l 767 393 q 767 358 771 325 q 775 292 783 261 l 783 261 l 748 254 q 740 286 735 320 q 729 354 729 395 l 729 395 q 729 442 744 479 q 758 516 786 538 q 814 560 853 560 l 853 560 q 893 560 922 535 q 950 509 960 448 l 960 448 l 953 448 q 963 506 991 533 q 1019 560 1058 560 z"},"ഉ":{"ha":492,"x_min":39,"x_max":451,"o":"m 248 560 l 248 560 q 298 560 336 540 q 374 519 400 483 q 425 446 438 396 q 451 345 451 285 l 451 285 q 451 206 438 152 q 424 97 392 62 l 392 62 q 372 41 346 27 q 320 13 287 7 q 253 0 209 0 l 209 0 l 201 0 q 172 -1 147 -5 q 121 -10 103 -26 l 103 -26 q 93 -36 88 -50 q 82 -64 82 -82 l 82 -82 q 82 -103 89 -117 q 96 -132 109 -143 l 109 -143 q 125 -155 152 -160 q 179 -166 223 -166 l 223 -166 l 438 -166 l 438 -201 l 217 -201 q 171 -201 141 -194 q 110 -187 86 -170 l 86 -170 q 66 -156 55 -134 q 44 -112 44 -83 l 44 -83 q 44 -57 52 -36 q 60 -16 76 -3 l 76 -3 q 97 17 128 25 q 159 33 205 34 l 205 34 l 207 34 q 250 35 279 41 q 308 46 329 57 q 349 68 363 85 l 363 85 q 393 117 403 168 q 413 218 413 286 l 413 286 q 413 338 403 382 q 392 425 372 458 q 351 490 320 508 q 289 526 248 526 l 248 526 q 204 526 173 510 q 142 494 122 468 q 101 441 90 410 q 79 378 75 347 l 75 347 q 74 344 75 340 q 75 336 75 334 l 75 334 q 74 328 74 320 q 74 311 74 302 l 74 302 q 74 221 93 180 q 112 139 156 139 l 156 139 q 190 139 207 169 q 224 199 224 252 l 224 252 q 224 282 218 306 q 211 329 196 344 q 181 358 154 358 l 154 358 q 125 358 102 343 q 79 327 59 302 l 59 302 l 47 328 q 62 347 79 361 q 95 375 115 383 q 135 391 158 391 l 158 391 q 194 391 217 373 q 239 354 251 323 q 262 291 262 253 l 262 253 q 262 206 250 173 q 237 140 214 123 q 190 105 158 105 l 158 105 q 120 105 94 126 q 67 147 53 191 q 39 235 39 304 l 39 304 q 39 358 52 404 q 65 450 92 485 q 118 520 157 540 q 196 560 248 560 z"},"ഊ":{"ha":1036,"x_min":39,"x_max":992,"o":"m 248 560 l 248 560 q 298 560 336 540 q 374 519 400 483 q 425 446 438 396 q 451 345 451 285 l 451 285 q 451 206 438 152 q 424 97 392 62 l 392 62 q 372 41 346 27 q 320 13 287 7 q 253 0 209 0 l 209 0 l 201 0 q 172 -1 147 -5 q 121 -10 103 -26 l 103 -26 q 93 -36 88 -50 q 82 -64 82 -82 l 82 -82 q 82 -103 89 -117 q 96 -132 109 -143 l 109 -143 q 125 -155 152 -160 q 179 -166 223 -166 l 223 -166 l 438 -166 l 438 -201 l 217 -201 q 171 -201 141 -194 q 110 -187 86 -170 l 86 -170 q 66 -156 55 -134 q 44 -112 44 -83 l 44 -83 q 44 -57 52 -36 q 60 -16 76 -3 l 76 -3 q 97 17 128 25 q 159 33 205 34 l 205 34 l 207 34 q 250 35 279 41 q 308 46 329 57 q 349 68 363 85 l 363 85 q 393 117 403 168 q 413 218 413 286 l 413 286 q 413 338 403 382 q 392 425 372 458 q 351 490 320 508 q 289 526 248 526 l 248 526 q 204 526 173 510 q 142 494 122 468 q 101 441 90 410 q 79 378 75 347 l 75 347 q 74 344 75 340 q 75 336 75 334 l 75 334 q 74 328 74 320 q 74 311 74 302 l 74 302 q 74 221 93 180 q 112 139 156 139 l 156 139 q 190 139 207 169 q 224 199 224 252 l 224 252 q 224 282 218 306 q 211 329 196 344 q 181 358 154 358 l 154 358 q 125 358 102 343 q 79 327 59 302 l 59 302 l 47 328 q 62 347 79 361 q 95 375 115 383 q 135 391 158 391 l 158 391 q 194 391 217 373 q 239 354 251 323 q 262 291 262 253 l 262 253 q 262 206 250 173 q 237 140 214 123 q 190 105 158 105 l 158 105 q 120 105 94 126 q 67 147 53 191 q 39 235 39 304 l 39 304 q 39 358 52 404 q 65 450 92 485 q 118 520 157 540 q 196 560 248 560 z m 858 560 l 858 560 q 900 560 930 531 q 960 502 976 445 q 992 388 992 303 l 992 303 q 992 197 972 127 q 952 57 906 23 q 859 -12 782 -12 l 782 -12 q 749 -12 714 -5 q 679 1 642 20 l 642 20 l 659 51 q 690 37 718 30 q 745 23 780 23 l 780 23 q 849 23 887 54 q 924 85 939 147 q 954 209 954 303 l 954 303 q 954 414 928 470 q 901 525 856 525 l 856 525 q 837 525 824 517 q 811 508 801 494 l 801 494 q 785 468 780 433 q 775 397 775 352 l 775 352 l 775 257 l 738 257 l 738 356 q 738 406 733 439 q 727 472 714 492 l 714 492 q 704 508 690 517 q 675 525 655 525 l 655 525 q 611 525 589 488 q 567 450 567 393 l 567 393 q 567 358 571 325 q 575 292 583 261 l 583 261 l 548 254 q 540 286 535 320 q 529 354 529 395 l 529 395 q 529 442 544 479 q 558 516 586 538 q 614 560 653 560 l 653 560 q 693 560 722 535 q 750 509 760 448 l 760 448 l 753 448 q 763 506 791 533 q 819 560 858 560 z"},"ഋ":{"ha":633,"x_min":39,"x_max":594,"o":"m 471 560 l 471 560 q 530 560 562 510 q 594 459 594 364 l 594 364 q 594 312 583 271 q 572 229 550 197 l 550 197 q 519 152 466 128 q 413 104 340 104 l 340 104 l 294 104 q 245 104 205 115 q 164 125 134 146 q 103 167 83 197 l 83 197 q 61 229 50 270 q 39 311 39 362 l 39 362 q 39 424 54 468 q 69 512 98 536 q 127 560 167 560 l 167 560 q 203 560 227 541 q 251 522 263 490 q 275 458 275 416 l 275 416 q 275 371 262 339 q 249 306 224 289 q 198 271 160 271 l 160 271 q 138 271 119 279 q 100 286 83 299 q 66 312 50 329 l 50 329 l 61 359 q 74 343 89 331 q 103 318 120 312 q 136 305 156 305 l 156 305 q 197 305 218 333 q 238 360 238 417 l 238 417 q 238 467 220 497 q 201 526 166 526 l 166 526 q 135 526 115 506 q 94 485 84 449 q 74 412 74 362 l 74 362 q 74 353 75 343 q 75 333 76 323 l 76 323 l 77 310 q 84 262 105 228 q 125 193 156 172 q 187 150 227 140 q 266 129 310 129 l 310 129 l 323 129 q 367 129 407 140 q 446 150 477 172 q 508 193 529 228 q 549 262 556 310 l 556 310 l 556 324 q 558 332 559 343 q 559 354 559 364 l 559 364 q 559 415 550 451 q 540 487 521 507 q 502 526 471 526 l 471 526 q 434 526 415 494 q 395 462 395 411 l 395 411 q 395 358 415 332 q 434 305 473 305 l 473 305 q 495 305 512 312 q 529 318 543 330 q 557 342 571 358 l 571 358 l 582 328 q 567 312 550 299 q 533 286 513 279 q 493 271 470 271 l 470 271 q 433 271 408 289 q 383 306 371 338 q 358 370 358 411 l 358 411 q 358 454 371 488 q 384 521 410 541 q 435 560 471 560 z m 316 -205 l 316 -205 q 230 -205 174 -186 q 117 -167 90 -129 q 62 -92 62 -38 l 62 -38 q 62 4 79 34 q 96 63 126 82 q 156 101 196 110 q 235 118 280 118 l 280 118 l 352 118 q 398 118 438 110 q 477 101 507 83 q 536 64 554 35 q 571 5 571 -37 l 571 -37 q 571 -91 544 -128 q 517 -166 461 -185 q 404 -205 316 -205 z m 317 -170 l 317 -170 q 392 -170 439 -155 q 486 -141 510 -111 q 533 -81 533 -37 l 533 -37 q 533 -3 520 22 q 506 46 479 63 q 452 80 412 88 q 372 96 320 96 l 320 96 l 313 96 q 244 96 197 81 q 149 66 125 37 q 100 7 100 -37 l 100 -37 q 100 -81 123 -111 q 145 -141 193 -155 q 241 -170 317 -170 z"},"ഌ":{"ha":817,"x_min":43,"x_max":776,"o":"m 252 560 l 252 560 q 317 560 353 525 q 388 490 401 425 l 401 425 l 406 380 l 414 289 l 414 0 l 377 0 l 377 325 q 377 392 368 432 q 359 472 334 496 l 334 496 q 320 510 300 518 q 280 525 252 525 l 252 525 q 200 525 161 489 q 122 453 101 389 q 79 325 79 240 l 79 240 l 79 222 q 79 147 90 104 q 101 60 122 41 q 143 22 172 22 l 172 22 q 192 22 209 34 q 226 45 236 74 q 245 102 245 152 l 245 152 q 245 211 226 242 q 207 273 167 273 l 167 273 q 135 273 111 257 q 87 240 64 210 l 64 210 l 52 239 q 82 274 111 291 q 139 307 171 307 l 171 307 q 203 307 229 291 q 254 275 269 241 q 283 206 283 153 l 283 153 q 283 92 268 56 q 253 20 229 4 q 204 -12 172 -12 l 172 -12 q 135 -12 106 10 q 77 31 60 83 q 43 135 43 228 l 43 228 q 43 337 70 411 q 97 484 144 522 q 191 560 252 560 z m 642 -12 l 642 -12 q 596 -12 567 13 q 538 37 525 83 q 511 129 511 191 l 511 191 q 511 290 547 337 q 583 384 641 384 l 641 384 q 673 384 696 372 q 719 359 736 338 q 753 316 765 289 l 765 289 l 755 267 q 744 288 730 307 q 715 326 695 339 q 675 351 647 351 l 647 351 q 596 351 573 310 q 549 269 549 190 l 549 190 q 549 138 558 100 q 567 62 588 42 q 608 22 643 22 l 643 22 q 673 22 695 42 q 716 62 728 109 q 740 156 740 238 l 740 238 q 740 252 740 274 q 739 296 737 307 l 737 307 q 737 309 738 312 q 738 314 737 318 l 737 318 q 729 372 708 419 q 687 466 649 496 q 611 525 551 525 l 551 525 q 520 525 499 518 q 477 510 461 496 l 461 496 q 446 482 436 461 q 425 439 420 408 q 414 377 414 333 l 414 333 l 414 251 l 386 400 q 393 455 414 490 q 435 525 470 543 q 504 560 550 560 l 550 560 q 607 560 649 537 q 691 514 720 471 q 748 428 762 369 q 776 309 776 237 l 776 237 q 776 141 759 87 q 741 32 711 10 q 681 -12 642 -12 z"},"എ":{"ha":887,"x_min":33,"x_max":844,"o":"m 164 331 l 164 331 q 204 331 233 312 q 262 293 278 258 q 294 222 294 172 l 294 172 q 294 126 279 86 q 263 46 239 20 l 239 20 l 239 34 l 614 34 l 616 0 l 224 0 l 207 26 q 230 55 244 92 q 257 128 257 170 l 257 170 q 257 235 232 266 q 206 297 164 297 l 164 297 q 135 297 114 282 q 93 266 82 239 q 71 211 71 172 l 71 172 q 71 121 89 83 q 106 45 130 15 l 130 15 l 103 -8 q 75 28 54 72 q 33 115 33 173 l 33 173 q 33 221 50 257 q 67 292 96 312 q 125 331 164 331 z m 630 560 l 630 560 q 685 560 726 534 q 766 508 792 460 q 818 411 831 343 q 844 275 844 191 l 844 191 q 844 104 830 28 q 815 -48 789 -111 q 762 -175 726 -228 l 726 -228 l 695 -209 q 728 -159 753 -100 q 778 -41 792 31 q 806 102 806 190 l 806 190 q 806 261 797 322 q 788 382 767 428 q 746 474 713 500 q 679 525 629 525 l 629 525 q 572 525 530 483 q 488 440 466 356 q 443 272 443 146 l 443 146 q 443 112 444 83 q 445 53 446 27 l 446 27 q 447 24 447 21 q 447 17 447 14 l 447 14 q 453 -62 466 -107 q 479 -153 500 -173 q 521 -194 547 -194 l 547 -194 q 568 -194 580 -183 l 580 -183 q 592 -172 597 -151 q 601 -131 601 -93 l 601 -93 l 601 413 l 638 413 l 638 -93 q 638 -136 632 -163 q 625 -190 607 -206 l 607 -206 q 597 -215 583 -221 q 568 -228 548 -228 l 548 -228 q 504 -228 472 -193 q 440 -158 423 -76 q 406 6 406 146 l 406 146 q 406 251 422 329 q 438 407 467 458 q 496 509 538 535 q 579 560 630 560 z"},"ഏ":{"ha":888,"x_min":33,"x_max":855,"o":"m 164 331 l 164 331 q 204 331 233 312 q 262 293 278 258 q 294 222 294 172 l 294 172 q 294 126 279 86 q 263 46 239 20 l 239 20 l 239 34 l 614 34 l 616 0 l 224 0 l 207 26 q 230 55 244 92 q 257 128 257 170 l 257 170 q 257 235 232 266 q 206 297 164 297 l 164 297 q 135 297 114 282 q 93 266 82 239 q 71 211 71 172 l 71 172 q 71 121 89 83 q 106 45 130 15 l 130 15 l 103 -8 q 75 28 54 72 q 33 115 33 173 l 33 173 q 33 221 50 257 q 67 292 96 312 q 125 331 164 331 z m 657 560 l 657 560 q 705 560 742 542 q 778 524 802 494 q 825 464 837 425 q 848 385 848 341 l 848 341 q 848 285 833 244 q 817 202 789 176 q 760 149 720 133 l 720 133 l 719 145 q 778 133 817 87 q 855 41 855 -42 l 855 -42 q 855 -112 838 -152 q 820 -193 790 -210 q 759 -228 719 -228 l 719 -228 q 703 -228 689 -226 q 674 -225 662 -221 l 662 -221 l 670 -188 q 681 -191 693 -192 q 705 -194 717 -194 l 717 -194 q 747 -194 770 -180 q 792 -167 805 -134 q 817 -102 817 -42 l 817 -42 q 817 30 784 72 q 751 114 692 119 l 692 119 l 692 153 q 725 165 752 187 q 778 208 794 246 q 810 283 810 341 l 810 341 q 810 392 794 434 q 777 476 743 501 q 709 525 657 525 l 657 525 q 587 525 539 482 q 491 439 467 355 q 443 270 443 146 l 443 146 q 443 112 444 83 q 445 53 446 27 l 446 27 q 446 24 447 21 q 447 17 447 14 l 447 14 q 453 -62 466 -107 q 479 -153 500 -173 q 521 -194 547 -194 l 547 -194 q 568 -194 580 -183 l 580 -183 q 592 -172 597 -151 q 601 -131 601 -93 l 601 -93 l 601 413 l 638 413 l 638 -93 q 638 -136 632 -163 q 625 -190 607 -206 l 607 -206 q 597 -215 583 -221 q 568 -228 548 -228 l 548 -228 q 504 -228 473 -193 q 441 -158 424 -76 q 406 6 406 146 l 406 146 q 406 251 423 329 q 440 407 473 458 q 506 509 553 535 q 599 560 657 560 z"},"ഐ":{"ha":1395,"x_min":41,"x_max":1352,"o":"m 170 -12 l 170 -12 q 133 -12 104 9 q 75 30 58 83 q 41 135 41 230 l 41 230 q 41 311 58 373 q 75 434 105 476 q 134 517 176 539 q 217 560 264 560 l 264 560 q 315 560 353 540 q 391 519 417 483 q 442 447 455 398 q 468 349 468 291 l 468 291 q 468 214 451 158 q 433 102 407 62 q 380 22 352 -8 l 352 -8 l 325 18 q 349 44 373 80 q 397 115 413 166 q 429 217 429 289 l 429 289 q 429 359 411 413 q 392 466 356 496 q 319 525 264 525 l 264 525 q 209 525 167 490 q 125 455 101 389 q 77 323 77 229 l 77 229 q 77 151 88 106 q 99 61 120 42 q 141 22 170 22 l 170 22 q 190 22 207 34 q 224 45 234 74 q 243 102 243 152 l 243 152 q 243 211 224 242 q 205 273 165 273 l 165 273 q 133 273 109 257 q 85 240 62 210 l 62 210 l 50 239 q 80 274 109 291 q 137 307 169 307 l 169 307 q 201 307 227 291 q 252 275 267 241 q 281 206 281 153 l 281 153 q 281 92 266 56 q 251 20 227 4 q 202 -12 170 -12 z m 672 331 l 672 331 q 712 331 741 312 q 770 293 786 258 q 802 222 802 172 l 802 172 q 802 126 787 86 q 771 46 747 20 l 747 20 l 747 34 l 1122 34 l 1124 0 l 732 0 l 715 26 q 738 55 752 92 q 765 128 765 170 l 765 170 q 765 235 740 266 q 714 297 672 297 l 672 297 q 643 297 622 282 q 601 266 590 239 q 579 211 579 172 l 579 172 q 579 121 597 83 q 614 45 638 15 l 638 15 l 611 -8 q 583 28 562 72 q 541 115 541 173 l 541 173 q 541 221 558 257 q 575 292 604 312 q 633 331 672 331 z m 1138 560 l 1138 560 q 1193 560 1234 534 q 1274 508 1300 460 q 1326 411 1339 343 q 1352 275 1352 191 l 1352 191 q 1352 104 1338 28 q 1323 -48 1297 -111 q 1270 -175 1234 -228 l 1234 -228 l 1203 -209 q 1236 -159 1261 -100 q 1286 -41 1300 31 q 1314 102 1314 190 l 1314 190 q 1314 261 1305 322 q 1296 382 1275 428 q 1254 474 1221 500 q 1187 525 1137 525 l 1137 525 q 1080 525 1038 483 q 996 440 974 356 q 951 272 951 146 l 951 146 q 951 112 952 83 q 953 53 954 27 l 954 27 q 955 24 955 21 q 955 17 955 14 l 955 14 q 961 -62 974 -107 q 987 -153 1008 -173 q 1029 -194 1055 -194 l 1055 -194 q 1076 -194 1088 -183 l 1088 -183 q 1100 -172 1105 -151 q 1109 -131 1109 -93 l 1109 -93 l 1109 413 l 1146 413 l 1146 -93 q 1146 -136 1140 -163 q 1133 -190 1115 -206 l 1115 -206 q 1105 -215 1091 -221 q 1076 -228 1056 -228 l 1056 -228 q 1012 -228 980 -193 q 948 -158 931 -76 q 914 6 914 146 l 914 146 q 914 251 930 329 q 946 407 975 458 q 1004 509 1046 535 q 1087 560 1138 560 z"},"ഒ":{"ha":543,"x_min":39,"x_max":508,"o":"m 325 560 l 325 560 q 384 560 423 539 q 462 518 481 482 q 500 446 500 402 l 500 402 q 500 368 489 340 q 477 312 452 294 q 426 275 385 269 l 385 269 l 385 275 q 439 269 474 232 q 508 195 508 132 l 508 132 q 508 64 474 28 q 440 -9 376 -9 l 376 -9 q 361 -9 344 -6 q 327 -4 311 0 l 311 0 l 319 33 q 334 29 348 27 q 362 25 374 25 l 374 25 q 419 25 445 49 q 470 73 470 132 l 470 132 q 470 164 461 187 q 451 209 433 224 l 433 224 q 416 239 393 247 q 370 254 334 254 l 334 254 l 332 254 l 332 288 l 334 288 q 366 288 390 295 q 413 302 430 317 l 430 317 q 446 331 454 353 q 462 374 462 403 l 462 403 q 462 462 425 494 q 388 525 324 525 l 324 525 q 264 525 218 501 q 171 477 140 436 q 108 395 92 341 q 75 287 75 227 l 75 227 l 75 214 q 75 144 86 102 q 97 59 118 41 q 139 22 168 22 l 168 22 q 188 22 205 34 q 222 45 232 74 q 242 102 242 152 l 242 152 q 242 211 223 242 q 203 273 164 273 l 164 273 q 131 273 107 257 q 83 240 60 210 l 60 210 l 49 239 q 78 274 107 291 q 136 307 168 307 l 168 307 q 200 307 225 291 q 250 275 265 241 q 279 206 279 153 l 279 153 q 279 92 265 56 q 250 20 225 4 q 200 -12 168 -12 l 168 -12 q 131 -12 102 9 q 73 30 56 80 q 39 130 39 217 l 39 217 q 39 290 58 352 q 77 414 113 461 q 149 507 203 534 q 256 560 325 560 z"},"ഓ":{"ha":911,"x_min":39,"x_max":867,"o":"m 325 560 l 325 560 q 384 560 423 539 q 462 518 481 482 q 500 446 500 402 l 500 402 q 500 368 489 340 q 477 312 452 294 q 426 275 385 269 l 385 269 l 385 275 q 439 269 474 232 q 508 195 508 132 l 508 132 q 508 64 474 28 q 440 -9 376 -9 l 376 -9 q 361 -9 344 -6 q 327 -4 311 0 l 311 0 l 319 33 q 334 29 348 27 q 362 25 374 25 l 374 25 q 419 25 445 49 q 470 73 470 132 l 470 132 q 470 164 461 187 q 451 209 433 224 l 433 224 q 416 239 393 247 q 370 254 334 254 l 334 254 l 332 254 l 332 288 l 334 288 q 366 288 390 295 q 413 302 430 317 l 430 317 q 446 331 454 353 q 462 374 462 403 l 462 403 q 462 462 425 494 q 388 525 324 525 l 324 525 q 264 525 218 501 q 171 477 140 436 q 108 395 92 341 q 75 287 75 227 l 75 227 l 75 214 q 75 144 86 102 q 97 59 118 41 q 139 22 168 22 l 168 22 q 188 22 205 34 q 222 45 232 74 q 242 102 242 152 l 242 152 q 242 211 223 242 q 203 273 164 273 l 164 273 q 131 273 107 257 q 83 240 60 210 l 60 210 l 49 239 q 78 274 107 291 q 136 307 168 307 l 168 307 q 200 307 225 291 q 250 275 265 241 q 279 206 279 153 l 279 153 q 279 92 265 56 q 250 20 225 4 q 200 -12 168 -12 l 168 -12 q 131 -12 102 9 q 73 30 56 80 q 39 130 39 217 l 39 217 q 39 290 58 352 q 77 414 113 461 q 149 507 203 534 q 256 560 325 560 z m 868 276 l 868 276 q 868 207 860 153 q 851 99 833 63 q 815 26 787 7 q 759 -12 718 -12 l 718 -12 q 683 -12 658 2 q 633 15 615 40 q 597 64 586 96 q 575 127 569 163 l 569 163 l 606 170 q 614 130 627 97 q 639 63 661 43 q 683 22 717 22 l 717 22 q 758 22 783 51 q 807 79 819 135 q 830 191 830 276 l 830 276 q 830 359 819 415 q 807 470 783 498 q 758 526 718 526 l 718 526 q 686 526 664 506 q 642 486 629 453 q 616 420 608 380 l 608 380 l 571 387 q 578 422 590 454 q 601 485 619 509 q 636 533 661 547 q 686 560 720 560 l 720 560 q 759 560 787 541 q 815 522 833 486 q 851 450 860 397 q 868 344 868 276 z"},"ഔ":{"ha":1085,"x_min":39,"x_max":1041,"o":"m 325 560 l 325 560 q 384 560 423 539 q 462 518 481 482 q 500 446 500 402 l 500 402 q 500 368 489 340 q 477 312 452 294 q 426 275 385 269 l 385 269 l 385 275 q 439 269 474 232 q 508 195 508 132 l 508 132 q 508 64 474 28 q 440 -9 376 -9 l 376 -9 q 361 -9 344 -6 q 327 -4 311 0 l 311 0 l 319 33 q 334 29 348 27 q 362 25 374 25 l 374 25 q 419 25 445 49 q 470 73 470 132 l 470 132 q 470 164 461 187 q 451 209 433 224 l 433 224 q 416 239 393 247 q 370 254 334 254 l 334 254 l 332 254 l 332 288 l 334 288 q 366 288 390 295 q 413 302 430 317 l 430 317 q 446 331 454 353 q 462 374 462 403 l 462 403 q 462 462 425 494 q 388 525 324 525 l 324 525 q 264 525 218 501 q 171 477 140 436 q 108 395 92 341 q 75 287 75 227 l 75 227 l 75 214 q 75 144 86 102 q 97 59 118 41 q 139 22 168 22 l 168 22 q 188 22 205 34 q 222 45 232 74 q 242 102 242 152 l 242 152 q 242 211 223 242 q 203 273 164 273 l 164 273 q 131 273 107 257 q 83 240 60 210 l 60 210 l 49 239 q 78 274 107 291 q 136 307 168 307 l 168 307 q 200 307 225 291 q 250 275 265 241 q 279 206 279 153 l 279 153 q 279 92 265 56 q 250 20 225 4 q 200 -12 168 -12 l 168 -12 q 131 -12 102 9 q 73 30 56 80 q 39 130 39 217 l 39 217 q 39 290 58 352 q 77 414 113 461 q 149 507 203 534 q 256 560 325 560 z m 907 560 l 907 560 q 949 560 979 531 q 1009 502 1025 445 q 1041 388 1041 303 l 1041 303 q 1041 197 1021 127 q 1001 57 955 23 q 908 -12 831 -12 l 831 -12 q 798 -12 763 -5 q 728 1 691 20 l 691 20 l 708 51 q 739 37 767 30 q 794 23 829 23 l 829 23 q 898 23 936 54 q 973 85 988 147 q 1003 209 1003 303 l 1003 303 q 1003 414 977 470 q 950 525 905 525 l 905 525 q 886 525 873 517 q 860 508 850 494 l 850 494 q 834 468 829 433 q 824 397 824 352 l 824 352 l 824 257 l 787 257 l 787 356 q 787 406 782 439 q 776 472 763 492 l 763 492 q 753 508 739 517 q 724 525 704 525 l 704 525 q 660 525 638 488 q 616 450 616 393 l 616 393 q 616 358 620 325 q 624 292 632 261 l 632 261 l 597 254 q 589 286 584 320 q 578 354 578 395 l 578 395 q 578 442 593 479 q 607 516 635 538 q 663 560 702 560 l 702 560 q 742 560 771 535 q 799 509 809 448 l 809 448 l 802 448 q 812 506 840 533 q 868 560 907 560 z"},"ക":{"ha":747,"x_min":33,"x_max":714,"o":"m 167 -12 l 167 -12 q 109 -12 71 27 q 33 66 33 143 l 33 143 q 33 182 47 211 q 60 240 87 261 l 87 261 q 107 277 132 287 q 157 297 191 302 q 225 307 269 307 l 269 307 l 483 307 q 549 307 590 298 q 630 289 660 266 l 660 266 q 686 247 700 216 q 714 184 714 140 l 714 140 q 714 71 680 30 q 645 -12 581 -12 l 581 -12 q 569 -12 553 -10 q 537 -8 520 -3 l 520 -3 l 528 30 q 542 26 555 25 q 568 23 580 23 l 580 23 q 629 23 653 54 q 677 84 677 140 l 677 140 q 677 176 666 201 q 655 225 635 240 l 635 240 q 612 258 578 266 q 544 273 481 273 l 481 273 l 266 273 q 207 273 170 264 q 132 255 109 234 l 109 234 q 89 217 80 195 q 70 172 70 142 l 70 142 q 70 97 84 71 q 98 45 121 34 q 143 23 169 23 l 169 23 q 197 23 223 32 q 248 41 279 68 l 279 68 l 299 40 q 275 21 255 10 q 234 -2 213 -7 q 192 -12 167 -12 z m 374 560 l 374 560 q 427 560 461 528 q 495 496 511 434 q 527 371 527 277 l 527 277 q 527 168 508 105 q 489 42 455 15 q 420 -12 373 -12 l 373 -12 q 337 -12 311 3 q 285 17 267 43 l 267 43 q 241 81 231 142 q 220 202 220 275 l 220 275 q 220 421 259 491 q 298 560 374 560 z m 374 526 l 374 526 q 316 526 286 468 q 256 410 256 275 l 256 275 q 256 179 270 124 q 284 68 311 45 q 337 22 373 22 l 373 22 q 411 22 437 46 q 463 69 477 125 q 491 181 491 276 l 491 276 q 491 368 478 423 q 464 477 438 502 q 412 526 374 526 z"},"ഖ":{"ha":716,"x_min":41,"x_max":653,"o":"m 265 560 l 265 560 q 315 560 353 540 q 390 520 415 484 q 440 448 453 399 q 466 350 466 291 l 466 291 q 466 218 450 165 q 433 111 411 76 q 388 41 368 20 l 368 20 l 370 0 l 350 0 l 332 28 q 352 50 374 84 q 396 118 412 169 q 427 219 427 289 l 427 289 q 427 359 409 413 q 390 466 354 496 q 318 525 265 525 l 265 525 q 205 525 163 487 q 121 449 99 384 q 77 318 77 233 l 77 233 l 77 218 q 77 145 88 103 q 99 60 120 41 q 141 22 170 22 l 170 22 q 190 22 207 34 q 224 45 234 74 q 244 102 244 152 l 244 152 q 244 211 225 242 q 205 273 166 273 l 166 273 q 133 273 109 257 q 85 240 62 210 l 62 210 l 50 239 q 80 274 109 291 q 137 307 169 307 l 169 307 q 201 307 227 291 q 252 275 267 241 q 281 206 281 153 l 281 153 q 281 92 267 56 q 252 20 227 4 q 202 -12 170 -12 l 170 -12 q 133 -12 104 9 q 75 30 58 82 q 41 133 41 224 l 41 224 q 41 330 69 405 q 97 480 148 520 q 198 560 265 560 z m 616 548 l 653 548 l 653 0 l 359 0 l 362 34 l 616 34 l 616 548 z"},"ഗ":{"ha":637,"x_min":41,"x_max":597,"o":"m 435 560 l 435 560 q 487 560 523 529 q 559 497 578 440 q 597 383 597 303 l 597 303 q 597 224 581 168 q 565 112 541 70 q 516 28 489 -8 l 489 -8 l 460 17 q 487 51 510 91 q 532 131 545 183 q 558 235 558 303 l 558 303 q 558 367 545 418 q 532 468 505 497 q 478 525 436 525 l 436 525 q 414 525 399 518 q 383 511 372 499 l 372 499 q 352 476 345 438 q 337 400 337 336 l 337 336 l 337 200 q 337 163 334 131 q 331 98 322 72 q 313 46 294 26 l 294 26 q 279 9 256 -1 q 233 -12 202 -12 l 202 -12 q 151 -12 115 20 q 78 51 60 109 q 41 166 41 245 l 41 245 q 41 324 57 380 q 72 436 97 478 q 122 520 149 556 l 149 556 l 178 532 q 151 498 129 458 q 106 417 93 365 q 79 313 79 245 l 79 245 q 79 181 93 131 q 106 80 133 52 q 160 23 201 23 l 201 23 q 223 23 239 30 q 254 36 266 49 l 266 49 q 286 72 293 111 q 300 149 300 215 l 300 215 l 300 346 q 300 404 308 448 q 316 492 343 521 l 343 521 q 358 538 382 549 q 405 560 435 560 z"},"ഘ":{"ha":929,"x_min":31,"x_max":865,"o":"m 161 560 l 161 560 q 202 560 231 541 q 260 522 276 488 q 292 453 292 403 l 292 403 q 292 358 277 319 q 261 279 237 253 l 237 253 l 238 268 l 390 268 l 394 234 l 222 234 l 205 259 q 227 287 241 324 q 255 360 255 401 l 255 401 q 255 465 230 496 q 204 526 162 526 l 162 526 q 132 526 111 511 q 90 496 79 469 q 68 441 68 403 l 68 403 q 68 353 86 316 q 103 278 127 248 l 127 248 l 100 226 q 72 261 52 304 q 31 346 31 404 l 31 404 q 31 452 48 487 q 64 522 94 541 q 123 560 161 560 z m 828 548 l 865 548 l 865 0 l 374 0 l 374 340 q 374 413 390 459 q 405 504 438 530 l 438 530 q 457 544 481 552 q 504 560 534 560 l 534 560 q 561 560 584 553 q 607 545 625 531 l 625 531 q 658 506 674 461 q 689 416 689 344 l 689 344 l 689 234 l 411 234 l 411 34 l 828 34 l 828 548 z m 533 526 l 533 526 q 471 526 441 483 q 411 439 411 338 l 411 338 l 411 268 l 652 268 l 652 337 q 652 437 623 482 q 594 526 533 526 z"},"ങ":{"ha":749,"x_min":43,"x_max":714,"o":"m 252 560 l 252 560 q 317 560 353 525 q 389 490 401 424 l 401 424 l 406 380 l 414 289 l 414 0 l 377 0 l 377 325 q 377 392 368 432 q 359 472 334 496 l 334 496 q 320 510 300 518 q 280 525 252 525 l 252 525 q 200 525 161 489 q 122 453 101 389 q 79 325 79 240 l 79 240 l 79 222 q 79 147 90 104 q 101 60 122 41 q 143 22 172 22 l 172 22 q 192 22 209 34 q 226 45 236 74 q 245 102 245 152 l 245 152 q 245 211 226 242 q 207 273 167 273 l 167 273 q 135 273 111 257 q 87 240 64 210 l 64 210 l 52 239 q 82 274 111 291 q 139 307 171 307 l 171 307 q 203 307 229 291 q 254 275 269 241 q 283 206 283 153 l 283 153 q 283 92 268 56 q 253 20 229 4 q 204 -12 172 -12 l 172 -12 q 135 -12 106 10 q 77 31 60 83 q 43 135 43 228 l 43 228 q 43 337 70 411 q 97 484 144 522 q 191 560 252 560 z m 564 560 l 564 560 q 607 560 639 542 q 671 523 689 490 q 706 457 706 412 l 706 412 q 706 373 695 343 q 683 313 658 295 q 632 276 591 269 l 591 269 l 591 275 q 645 269 680 233 q 714 196 714 132 l 714 132 q 714 64 680 28 q 645 -9 582 -9 l 582 -9 q 567 -9 550 -6 q 533 -4 517 0 l 517 0 l 525 33 q 540 29 554 27 q 568 25 580 25 l 580 25 q 624 25 650 48 q 676 71 676 132 l 676 132 q 676 164 667 187 q 657 209 639 224 l 639 224 q 622 239 599 247 q 575 254 536 254 l 536 254 l 532 254 l 532 288 l 536 288 q 571 288 595 295 q 619 302 635 317 l 635 317 q 651 331 660 354 q 668 376 668 410 l 668 410 q 668 467 639 496 q 610 525 564 525 l 564 525 q 534 525 512 516 q 489 507 471 491 l 471 491 q 452 473 440 449 q 427 424 421 392 q 414 359 414 318 l 414 318 l 414 262 l 391 266 l 385 335 l 391 395 q 399 449 423 486 q 447 522 484 541 q 521 560 564 560 z"},"ച":{"ha":665,"x_min":17,"x_max":601,"o":"m 564 548 l 601 548 l 601 0 l 17 0 l 17 34 l 289 34 l 266 21 q 294 54 313 98 q 332 141 332 194 l 332 194 q 332 253 309 284 q 286 314 245 314 l 245 314 q 204 314 181 284 q 157 254 157 196 l 157 196 q 157 184 158 170 q 159 155 161 143 l 161 143 l 126 138 q 124 151 122 167 q 120 182 120 197 l 120 197 q 120 271 156 310 q 191 348 244 348 l 244 348 q 275 348 298 337 q 321 326 337 306 q 353 285 362 257 q 370 229 370 195 l 370 195 q 370 156 361 124 q 351 92 337 66 q 323 40 309 21 l 309 21 l 297 34 l 564 34 l 564 548 z"},"ഛ":{"ha":956,"x_min":17,"x_max":915,"o":"m 244 348 l 244 348 q 275 348 298 337 q 321 326 337 306 q 353 285 362 257 q 370 229 370 195 l 370 195 q 370 156 361 124 q 351 92 337 66 q 323 40 309 21 l 309 21 l 297 34 l 578 34 l 583 0 l 17 0 l 17 34 l 289 34 l 266 21 q 294 54 313 98 q 332 141 332 194 l 332 194 q 332 253 309 284 q 286 314 245 314 l 245 314 q 204 314 181 284 q 157 254 157 196 l 157 196 q 157 184 158 170 q 159 155 161 143 l 161 143 l 126 138 q 124 151 122 167 q 120 182 120 197 l 120 197 q 120 271 156 310 q 191 348 244 348 z m 691 560 l 691 560 q 747 560 789 537 q 830 514 859 471 q 887 428 901 369 q 915 309 915 237 l 915 237 q 915 141 898 87 q 880 32 850 10 q 820 -12 781 -12 l 781 -12 q 735 -12 706 13 q 677 37 664 83 q 650 129 650 191 l 650 191 q 650 290 686 337 q 722 384 780 384 l 780 384 q 812 384 835 372 q 858 359 875 338 q 892 316 904 289 l 904 289 l 894 267 q 883 288 869 307 q 854 326 834 339 q 814 351 786 351 l 786 351 q 735 351 711 310 q 687 269 687 190 l 687 190 q 687 138 697 100 q 706 62 727 42 q 747 22 782 22 l 782 22 q 812 22 834 42 q 855 62 867 109 q 879 156 879 238 l 879 238 q 879 252 879 274 q 878 296 876 307 l 876 307 q 876 309 877 312 q 877 314 876 318 l 876 318 q 868 372 847 419 q 826 466 789 496 q 751 525 692 525 l 692 525 q 632 525 592 493 q 551 461 532 408 q 512 354 512 289 l 512 289 q 512 224 526 175 q 539 126 561 90 q 583 54 606 28 l 606 28 l 589 0 l 567 0 l 563 28 q 545 50 524 84 q 503 118 489 169 q 474 219 474 290 l 474 290 q 474 347 488 396 q 502 444 529 481 q 556 518 597 539 q 638 560 691 560 z"},"ജ":{"ha":670,"x_min":32,"x_max":630,"o":"m 213 560 l 213 560 q 254 560 285 547 q 316 533 337 504 q 358 475 367 428 l 367 428 l 352 417 q 363 497 400 529 q 437 560 486 560 l 486 560 q 534 560 566 535 q 598 509 614 468 q 630 427 630 380 l 630 380 q 630 336 619 304 q 607 271 586 249 q 564 226 533 213 l 533 213 l 494 202 l 456 192 q 438 188 414 186 q 389 183 358 183 l 358 183 l 206 183 q 164 183 139 179 q 114 174 96 161 l 96 161 q 83 152 76 138 q 69 124 69 104 l 69 104 q 69 75 80 57 q 91 38 110 30 q 128 22 150 22 l 150 22 q 176 22 199 29 q 222 35 249 52 q 275 69 312 99 l 312 99 q 341 124 361 140 q 381 156 395 167 q 409 177 422 185 q 435 193 452 201 l 452 201 q 460 206 469 210 q 478 214 487 217 q 496 219 505 221 q 514 223 521 223 l 521 223 q 548 223 569 212 q 589 200 602 175 q 614 150 614 110 l 614 110 q 614 45 586 17 q 558 -12 514 -12 l 514 -12 q 479 -12 458 5 q 436 21 427 48 q 417 75 417 107 l 417 107 q 417 139 427 163 q 436 187 459 214 l 459 214 l 483 211 q 474 198 467 183 q 459 167 455 149 q 450 130 450 107 l 450 107 q 450 65 466 43 q 482 21 513 21 l 513 21 q 547 21 563 43 q 578 64 578 111 l 578 111 q 578 146 569 165 q 559 184 545 191 q 530 198 514 198 l 514 198 q 500 198 485 192 q 470 185 454 170 l 454 170 l 449 176 q 440 167 427 155 q 414 142 393 123 q 371 104 335 74 l 335 74 q 296 43 267 24 q 237 4 210 -4 q 182 -12 149 -12 l 149 -12 q 119 -12 92 0 q 65 12 49 38 q 32 64 32 103 l 32 103 q 32 131 42 152 q 51 172 70 186 l 70 186 q 90 202 120 210 q 149 217 200 217 l 200 217 l 380 217 q 421 217 452 221 q 482 224 505 233 q 527 241 544 255 l 544 255 q 568 274 580 305 q 592 335 592 378 l 592 378 q 592 414 582 448 q 571 481 548 504 q 524 526 485 526 l 485 526 q 460 526 445 519 q 429 512 418 501 l 418 501 q 396 477 388 440 q 379 402 379 338 l 379 338 l 379 259 l 343 259 l 343 334 q 343 396 334 435 q 325 474 300 497 l 300 497 q 284 511 263 519 q 241 526 212 526 l 212 526 q 165 526 132 505 q 99 483 84 444 l 84 444 q 82 441 82 437 q 81 433 80 430 l 80 430 q 77 419 76 406 q 74 393 74 379 l 74 379 q 74 322 95 300 q 115 277 142 277 l 142 277 q 165 277 179 289 q 193 301 199 321 q 204 341 204 365 l 204 365 q 204 407 189 427 q 173 446 142 446 l 142 446 q 118 446 97 434 q 75 422 55 398 l 55 398 l 55 428 q 72 448 97 462 q 121 476 147 476 l 147 476 q 178 476 199 462 q 220 447 231 423 q 242 399 242 367 l 242 367 q 242 330 230 302 q 217 274 195 260 q 173 245 142 245 l 142 245 q 97 245 69 279 q 40 313 40 381 l 40 381 q 40 431 60 472 q 80 512 119 536 q 158 560 213 560 z"},"ഝ":{"ha":1172,"x_min":41,"x_max":1132,"o":"m 472 560 l 472 560 q 505 560 532 551 q 558 541 577 522 l 577 522 q 610 492 622 446 q 633 399 633 320 l 633 320 l 633 204 q 633 144 640 108 q 646 71 666 49 l 666 49 q 678 36 694 30 q 710 23 732 23 l 732 23 q 754 23 770 30 q 786 36 797 50 l 797 50 q 816 72 823 112 q 829 151 829 211 l 829 211 l 829 548 l 866 548 l 866 213 q 866 149 875 111 q 884 72 905 50 l 905 50 q 917 37 933 30 q 948 23 971 23 l 971 23 q 1010 23 1037 53 q 1064 82 1079 133 q 1093 184 1093 245 l 1093 245 q 1093 313 1080 365 q 1067 416 1045 457 q 1022 497 994 531 l 994 531 l 1024 554 q 1050 519 1075 477 q 1100 435 1116 379 q 1132 323 1132 244 l 1132 244 q 1132 169 1113 111 q 1093 53 1057 21 q 1020 -12 970 -12 l 970 -12 q 920 -12 889 18 q 858 47 844 114 l 844 114 l 853 121 q 847 74 832 45 q 816 15 791 2 q 766 -12 731 -12 l 731 -12 q 700 -12 677 -1 q 653 10 638 26 l 638 26 q 622 45 613 67 q 604 88 600 119 q 596 150 596 196 l 596 196 l 596 316 q 596 362 593 396 q 589 430 580 455 q 570 479 552 496 l 552 496 q 537 510 517 518 q 497 526 469 526 l 469 526 q 443 526 420 517 q 397 508 378 493 l 378 493 l 367 483 q 332 453 310 406 q 288 359 278 307 q 267 254 267 205 l 267 205 q 267 133 279 94 q 290 54 311 38 q 332 22 359 22 l 359 22 q 387 22 408 38 q 429 54 441 94 q 453 133 453 205 l 453 205 q 453 253 442 307 q 431 360 409 408 q 386 455 350 486 l 350 486 l 342 493 q 322 511 300 519 q 277 526 251 526 l 251 526 q 193 526 155 494 q 116 462 98 408 q 79 354 79 289 l 79 289 q 79 222 93 173 q 107 123 131 86 q 154 49 181 19 l 181 19 l 155 -6 q 129 22 103 61 q 76 100 59 157 q 41 213 41 290 l 41 290 q 41 347 54 396 q 67 445 94 482 q 121 518 160 539 q 198 560 249 560 l 249 560 q 285 560 314 548 q 342 536 368 513 l 368 513 l 379 503 q 434 454 463 375 q 491 296 491 205 l 491 205 q 491 125 475 77 q 458 29 428 9 q 398 -12 359 -12 l 359 -12 q 321 -12 292 9 q 262 30 246 78 q 229 125 229 205 l 229 205 q 229 261 241 317 q 252 372 278 421 q 303 470 341 504 l 341 504 l 350 512 q 376 535 407 548 q 437 560 472 560 z"},"ഞ":{"ha":1012,"x_min":43,"x_max":971,"o":"m 252 560 l 252 560 q 317 560 353 525 q 389 490 401 424 l 401 424 l 406 380 l 414 268 l 414 0 l 377 0 l 377 325 q 377 392 368 432 q 359 472 334 496 l 334 496 q 320 510 300 518 q 280 525 252 525 l 252 525 q 200 525 161 489 q 122 453 101 389 q 79 325 79 240 l 79 240 l 79 222 q 79 147 90 104 q 101 60 122 41 q 143 22 172 22 l 172 22 q 192 22 209 34 q 226 45 236 74 q 245 102 245 152 l 245 152 q 245 211 226 242 q 207 273 167 273 l 167 273 q 135 273 111 257 q 87 240 64 210 l 64 210 l 52 239 q 82 274 111 291 q 139 307 171 307 l 171 307 q 203 307 229 291 q 254 275 269 241 q 283 206 283 153 l 283 153 q 283 92 268 56 q 253 20 229 4 q 204 -12 172 -12 l 172 -12 q 135 -12 106 10 q 77 31 60 83 q 43 135 43 228 l 43 228 q 43 337 70 411 q 97 484 144 522 q 191 560 252 560 z m 541 560 l 541 560 q 575 560 604 548 q 633 536 659 513 l 659 513 l 670 503 q 725 454 754 375 q 782 296 782 205 l 782 205 q 782 125 766 77 q 749 29 719 9 q 689 -12 650 -12 l 650 -12 q 612 -12 583 9 q 553 30 537 78 q 520 125 520 205 l 520 205 q 520 261 533 316 q 545 371 571 421 q 596 470 634 504 l 634 504 l 643 512 q 669 535 700 548 q 731 560 768 560 l 768 560 q 818 560 856 540 q 893 519 919 483 q 944 446 958 397 q 971 347 971 290 l 971 290 q 971 213 954 158 q 936 102 910 62 q 884 22 855 -8 l 855 -8 l 829 18 q 852 44 876 80 q 900 115 917 166 q 933 217 933 288 l 933 288 q 933 356 914 410 q 895 463 859 495 q 822 526 767 526 l 767 526 q 737 526 714 517 q 690 508 671 492 l 671 492 l 660 483 q 625 453 603 406 q 580 359 569 307 q 558 254 558 205 l 558 205 q 558 133 570 94 q 581 54 602 38 q 623 22 650 22 l 650 22 q 679 22 700 38 q 721 54 733 94 q 744 133 744 205 l 744 205 q 744 253 734 307 q 723 360 700 408 q 677 455 642 486 l 642 486 l 633 492 q 620 504 606 512 q 591 519 576 523 q 560 526 541 526 l 541 526 q 514 526 494 519 q 474 511 460 497 l 460 497 q 432 472 423 431 q 414 389 414 334 l 414 334 l 414 61 l 382 61 l 384 239 l 387 402 q 392 457 413 492 q 434 526 467 543 q 500 560 541 560 z"},"ട":{"ha":390,"x_min":20,"x_max":364,"o":"m 207 560 l 207 560 q 249 560 286 552 q 323 543 364 524 l 364 524 l 345 493 q 308 510 277 518 q 245 525 207 525 l 207 525 q 156 525 126 509 q 95 492 82 466 q 69 439 69 409 l 69 409 q 69 381 76 362 q 82 342 95 329 l 95 329 q 112 312 136 305 q 160 297 196 297 l 196 297 l 198 297 q 239 296 271 285 q 303 274 324 250 l 324 250 q 341 231 350 207 q 359 182 359 145 l 359 145 q 359 100 341 65 q 322 29 283 9 q 243 -12 181 -12 l 181 -12 q 147 -12 105 -3 q 63 5 20 24 l 20 24 l 39 55 q 62 45 84 38 q 106 31 130 27 q 153 23 181 23 l 181 23 q 235 23 266 40 q 296 56 309 84 q 321 112 321 145 l 321 145 q 321 173 314 194 q 307 214 295 227 l 295 227 q 279 246 255 254 q 230 261 198 262 l 198 262 l 196 262 q 151 263 119 274 q 87 285 67 306 l 67 306 q 49 326 40 351 q 31 376 31 408 l 31 408 q 31 447 50 482 q 68 516 108 538 q 147 560 207 560 z"},"ഠ":{"ha":472,"x_min":41,"x_max":431,"o":"m 237 560 l 237 560 q 298 560 342 527 q 385 494 408 431 q 431 368 431 274 l 431 274 q 431 183 408 119 q 384 55 340 22 q 296 -12 234 -12 l 234 -12 q 171 -12 128 22 q 85 56 63 120 q 41 184 41 274 l 41 274 q 41 366 65 430 q 89 493 133 527 q 177 560 237 560 z m 235 23 l 235 23 q 287 23 322 54 q 357 84 375 140 q 393 196 393 274 l 393 274 q 393 357 375 413 q 357 469 323 497 q 288 525 237 525 l 237 525 q 163 525 121 461 q 79 396 79 274 l 79 274 q 79 149 120 86 q 160 23 235 23 z"},"ഡ":{"ha":877,"x_min":41,"x_max":836,"o":"m 435 -12 l 435 -12 q 405 -12 381 -1 q 357 10 342 26 l 342 26 q 326 45 317 67 q 308 88 304 119 q 300 150 300 196 l 300 196 l 300 332 q 300 399 293 438 q 286 476 266 499 l 266 499 q 254 511 239 518 q 224 525 201 525 l 201 525 q 160 525 133 497 q 106 468 93 418 q 79 367 79 303 l 79 303 q 79 235 93 183 q 106 131 129 91 q 151 50 178 16 l 178 16 l 149 -8 q 122 28 97 70 q 72 111 57 168 q 41 224 41 303 l 41 303 q 41 382 60 440 q 78 497 115 529 q 151 560 203 560 l 203 560 q 234 560 257 550 q 279 539 294 522 l 294 522 q 312 502 322 476 q 331 450 334 418 q 337 386 337 347 l 337 347 l 337 204 q 337 144 344 108 q 351 71 371 49 l 371 49 q 382 36 399 30 q 415 23 436 23 l 436 23 q 458 23 474 30 q 490 36 501 50 l 501 50 q 520 72 527 112 q 534 151 534 211 l 534 211 l 534 548 l 570 548 l 570 213 q 570 149 580 111 q 589 72 609 50 l 609 50 q 621 37 637 30 q 652 23 675 23 l 675 23 q 714 23 741 53 q 768 82 783 133 q 798 184 798 245 l 798 245 q 798 313 785 365 q 771 416 749 457 q 726 497 699 531 l 699 531 l 728 554 q 755 519 780 477 q 804 435 820 379 q 836 323 836 244 l 836 244 q 836 169 817 111 q 797 53 761 21 q 724 -12 674 -12 l 674 -12 q 625 -12 594 18 q 563 47 549 114 l 549 114 l 557 121 q 548 50 518 19 q 487 -12 435 -12 z"},"ഢ":{"ha":947,"x_min":41,"x_max":905,"o":"m 435 -12 l 435 -12 q 405 -12 381 -1 q 357 10 342 26 l 342 26 q 326 45 317 67 q 308 88 304 119 q 300 150 300 196 l 300 196 l 300 332 q 300 399 293 438 q 286 476 266 499 l 266 499 q 254 511 239 518 q 224 525 201 525 l 201 525 q 160 525 133 497 q 106 468 93 418 q 79 367 79 303 l 79 303 q 79 235 93 183 q 106 131 129 91 q 151 50 178 16 l 178 16 l 149 -8 q 122 28 97 70 q 72 111 57 168 q 41 224 41 303 l 41 303 q 41 382 60 440 q 78 497 115 529 q 151 560 203 560 l 203 560 q 234 560 257 550 q 279 539 294 522 l 294 522 q 312 502 322 476 q 331 450 334 418 q 337 386 337 347 l 337 347 l 337 204 q 337 144 344 108 q 351 71 371 49 l 371 49 q 382 36 399 30 q 415 23 436 23 l 436 23 q 458 23 474 30 q 490 36 501 50 l 501 50 q 520 72 527 112 q 534 151 534 211 l 534 211 l 534 548 l 570 548 l 570 247 l 557 121 q 548 50 518 19 q 487 -12 435 -12 z m 775 560 l 775 560 q 812 560 842 539 q 871 517 888 465 q 905 413 905 319 l 905 319 q 905 212 878 138 q 850 64 803 26 q 756 -12 696 -12 l 696 -12 q 631 -12 595 23 q 559 58 546 122 l 546 122 l 543 199 l 545 515 l 570 515 l 570 222 q 570 156 579 116 q 588 76 613 52 l 613 52 q 627 38 647 31 q 667 23 696 23 l 696 23 q 748 23 787 59 q 826 95 848 159 q 869 223 869 308 l 869 308 l 869 326 q 869 400 858 444 q 847 488 826 507 q 805 525 776 525 l 776 525 q 755 525 739 514 q 722 503 712 475 q 702 447 702 395 l 702 395 q 702 338 722 307 q 741 275 780 275 l 780 275 q 812 275 837 292 q 861 308 884 337 l 884 337 l 895 308 q 866 274 837 258 q 808 241 776 241 l 776 241 q 745 241 720 257 q 694 273 680 307 q 665 341 665 395 l 665 395 q 665 455 680 491 q 694 527 719 544 q 744 560 775 560 z"},"ണ":{"ha":965,"x_min":43,"x_max":925,"o":"m 252 560 l 252 560 q 317 560 353 526 q 388 491 401 423 l 401 423 l 389 425 q 401 496 434 528 q 467 560 518 560 l 518 560 q 571 560 604 529 q 637 498 646 427 l 646 427 l 637 434 q 651 501 682 531 q 713 560 763 560 l 763 560 q 813 560 850 527 q 886 494 906 436 q 925 378 925 303 l 925 303 q 925 224 909 168 q 893 112 868 71 q 843 29 817 -6 l 817 -6 l 788 17 q 815 51 838 92 q 860 132 874 184 q 887 235 887 303 l 887 303 q 887 364 872 415 q 857 465 830 495 q 803 525 764 525 l 764 525 q 741 525 726 519 q 710 512 698 498 l 698 498 q 677 476 668 437 q 659 398 659 335 l 659 335 l 659 0 l 622 0 l 622 333 q 622 400 615 439 q 607 477 585 499 l 585 499 q 574 511 558 518 q 541 525 518 525 l 518 525 q 496 525 480 518 q 464 511 452 499 l 452 499 q 430 476 422 438 q 414 399 414 333 l 414 333 l 414 0 l 377 0 l 377 325 q 377 392 368 432 q 359 472 334 496 l 334 496 q 320 510 300 518 q 280 525 252 525 l 252 525 q 200 525 161 489 q 122 453 101 389 q 79 325 79 240 l 79 240 l 79 222 q 79 147 90 104 q 101 60 122 41 q 143 22 172 22 l 172 22 q 192 22 209 34 q 226 45 236 74 q 245 102 245 152 l 245 152 q 245 211 226 242 q 207 273 167 273 l 167 273 q 135 273 111 257 q 87 240 64 210 l 64 210 l 52 239 q 82 274 111 291 q 139 307 171 307 l 171 307 q 203 307 229 291 q 254 275 269 241 q 283 206 283 153 l 283 153 q 283 92 268 56 q 253 20 229 4 q 204 -12 172 -12 l 172 -12 q 135 -12 106 10 q 77 31 60 83 q 43 135 43 228 l 43 228 q 43 337 70 411 q 97 484 144 522 q 191 560 252 560 z"},"ത":{"ha":720,"x_min":41,"x_max":680,"o":"m 359 -12 l 359 -12 q 321 -12 292 9 q 262 30 246 78 q 229 125 229 205 l 229 205 q 229 261 241 316 q 253 371 279 421 q 305 470 343 504 l 343 504 l 352 512 q 378 535 409 548 q 440 560 477 560 l 477 560 q 527 560 565 540 q 602 519 628 483 q 653 446 667 397 q 680 347 680 290 l 680 290 q 680 213 663 158 q 645 102 619 62 q 592 22 564 -8 l 564 -8 l 538 18 q 561 44 585 80 q 609 115 625 166 q 641 217 641 288 l 641 288 q 641 356 623 410 q 604 463 568 495 q 531 526 476 526 l 476 526 q 446 526 423 517 q 399 508 380 492 l 380 492 l 369 483 q 334 453 312 406 q 289 359 278 307 q 267 254 267 205 l 267 205 q 267 133 279 94 q 290 54 311 38 q 332 22 359 22 l 359 22 q 387 22 408 38 q 429 54 441 94 q 453 133 453 205 l 453 205 q 453 253 442 307 q 431 360 409 408 q 386 455 350 486 l 350 486 l 342 493 q 322 511 300 519 q 277 526 251 526 l 251 526 q 193 526 155 494 q 116 462 98 408 q 79 354 79 289 l 79 289 q 79 222 93 173 q 107 123 131 86 q 154 49 181 19 l 181 19 l 155 -6 q 129 22 103 61 q 76 100 59 157 q 41 213 41 290 l 41 290 q 41 347 54 396 q 67 445 94 482 q 121 518 160 539 q 198 560 249 560 l 249 560 q 285 560 314 548 q 342 536 368 513 l 368 513 l 379 503 q 434 454 463 375 q 491 296 491 205 l 491 205 q 491 125 475 77 q 458 29 428 9 q 398 -12 359 -12 z"},"ഥ":{"ha":647,"x_min":64,"x_max":587,"o":"m 64 548 l 101 548 l 101 34 l 278 34 l 278 0 l 64 0 l 64 548 z m 427 560 l 427 560 q 461 560 487 550 q 512 540 529 525 l 529 525 q 566 492 577 445 q 587 398 587 334 l 587 334 l 587 0 l 263 0 l 263 339 q 263 379 268 413 q 272 446 285 474 q 297 502 321 523 l 321 523 q 339 539 366 550 q 392 560 427 560 z m 427 525 l 427 525 q 399 525 378 517 q 356 508 341 494 l 341 494 q 314 466 307 423 q 299 379 299 325 l 299 325 l 299 34 l 550 34 l 550 327 q 550 380 543 425 q 536 470 507 496 l 507 496 q 493 510 474 518 q 454 525 427 525 z"},"ദ":{"ha":458,"x_min":46,"x_max":422,"o":"m 272 560 l 272 560 q 316 560 348 542 q 380 524 398 491 q 415 457 415 412 l 415 412 q 415 353 388 316 q 361 279 299 269 l 299 269 l 300 275 q 354 269 388 233 q 422 196 422 132 l 422 132 q 422 64 388 28 q 354 -9 289 -9 l 289 -9 q 269 -9 250 -6 q 230 -3 215 1 l 215 1 l 223 34 q 238 30 254 28 q 269 25 287 25 l 287 25 q 333 25 359 49 q 384 73 384 132 l 384 132 q 384 164 375 187 q 366 209 348 224 l 348 224 q 331 239 307 247 q 283 254 242 254 l 242 254 l 229 254 l 229 288 l 241 288 q 279 288 303 295 q 327 302 344 317 l 344 317 q 359 331 368 354 q 377 376 377 410 l 377 410 q 377 469 348 497 q 319 525 271 525 l 271 525 q 212 525 170 487 q 127 448 105 381 q 83 313 83 225 l 83 225 q 83 162 91 107 q 98 52 108 1 l 108 1 l 72 -6 q 61 48 54 107 q 46 165 46 223 l 46 223 q 46 325 74 401 q 101 476 152 518 q 203 560 272 560 z"},"ധ":{"ha":649,"x_min":41,"x_max":608,"o":"m 444 -12 l 444 -12 q 411 -12 386 2 q 361 15 345 44 q 329 72 321 114 l 321 114 l 328 114 q 315 47 284 18 q 252 -12 202 -12 l 202 -12 q 152 -12 116 21 q 80 54 61 112 q 41 170 41 245 l 41 245 q 41 324 57 380 q 72 436 97 478 q 122 519 149 554 l 149 554 l 178 531 q 151 497 129 457 q 106 416 93 365 q 79 313 79 245 l 79 245 q 79 184 94 133 q 108 82 136 53 q 163 23 202 23 l 202 23 q 225 23 241 30 q 256 37 267 50 l 267 50 q 288 72 297 111 q 306 149 306 213 l 306 213 l 306 548 l 343 548 l 343 214 q 343 150 352 112 q 360 73 381 50 l 381 50 q 393 37 408 30 q 423 23 444 23 l 444 23 q 484 23 513 53 q 541 82 556 133 q 570 184 570 246 l 570 246 q 570 314 557 365 q 544 416 522 457 q 499 497 471 531 l 471 531 l 501 554 q 527 519 552 478 q 577 436 593 380 q 608 324 608 246 l 608 246 q 608 170 588 112 q 568 54 532 21 q 495 -12 444 -12 z"},"ന":{"ha":649,"x_min":41,"x_max":608,"o":"m 205 560 l 205 560 q 239 560 264 546 q 288 532 305 504 q 321 476 329 433 l 329 433 l 321 434 q 335 501 366 531 q 397 560 447 560 l 447 560 q 497 560 533 527 q 569 494 589 436 q 608 378 608 303 l 608 303 q 608 224 593 168 q 577 112 552 71 q 527 29 501 -6 l 501 -6 l 471 17 q 499 51 522 91 q 544 131 557 183 q 570 235 570 303 l 570 303 q 570 364 556 415 q 541 465 514 495 q 486 525 447 525 l 447 525 q 425 525 410 519 q 394 512 382 498 l 382 498 q 361 476 352 437 q 343 398 343 335 l 343 335 l 343 0 l 306 0 l 306 333 q 306 397 298 436 q 289 475 268 498 l 268 498 q 257 511 242 518 q 226 525 205 525 l 205 525 q 166 525 138 496 q 109 466 94 416 q 79 365 79 302 l 79 302 q 79 234 93 183 q 106 131 129 91 q 151 51 178 17 l 178 17 l 148 -6 q 122 29 97 71 q 72 112 57 168 q 41 224 41 302 l 41 302 q 41 378 61 436 q 81 494 118 527 q 155 560 205 560 z"},"ഩ":{"ha":720,"x_min":43,"x_max":679,"o":"m 252 560 l 252 560 q 317 560 353 525 q 388 490 401 425 l 401 425 l 391 434 q 405 500 437 530 q 468 560 518 560 l 518 560 q 568 560 604 527 q 640 494 660 436 q 679 378 679 303 l 679 303 q 679 225 664 169 q 648 113 623 71 q 598 29 571 -6 l 571 -6 l 542 17 q 570 51 592 91 q 614 131 628 183 q 641 235 641 303 l 641 303 q 641 364 627 415 q 612 465 585 495 q 557 525 518 525 l 518 525 q 496 525 481 519 q 465 512 453 498 l 453 498 q 432 476 423 437 q 414 398 414 335 l 414 335 l 414 0 l 377 0 l 377 325 q 377 392 368 432 q 359 472 334 496 l 334 496 q 320 510 300 518 q 280 525 252 525 l 252 525 q 200 525 161 489 q 122 453 101 389 q 79 325 79 240 l 79 240 l 79 222 q 79 147 90 104 q 101 60 122 41 q 143 22 172 22 l 172 22 q 192 22 209 34 q 226 45 236 74 q 245 102 245 152 l 245 152 q 245 211 226 242 q 207 273 167 273 l 167 273 q 135 273 111 257 q 87 240 64 210 l 64 210 l 52 239 q 82 274 111 291 q 139 307 171 307 l 171 307 q 203 307 229 291 q 254 275 269 241 q 283 206 283 153 l 283 153 q 283 92 268 56 q 253 20 229 4 q 204 -12 172 -12 l 172 -12 q 135 -12 106 10 q 77 31 60 83 q 43 135 43 228 l 43 228 q 43 337 70 411 q 97 484 144 522 q 191 560 252 560 z"},"പ":{"ha":637,"x_min":33,"x_max":574,"o":"m 164 331 l 164 331 q 204 331 233 312 q 262 293 278 258 q 294 222 294 172 l 294 172 q 294 126 279 86 q 263 46 239 20 l 239 20 l 240 34 l 537 34 l 537 548 l 574 548 l 574 0 l 224 0 l 207 26 q 229 55 243 92 q 257 128 257 170 l 257 170 q 257 235 232 266 q 206 297 164 297 l 164 297 q 135 297 114 282 q 93 266 82 239 q 71 211 71 172 l 71 172 q 71 121 89 83 q 106 45 130 15 l 130 15 l 103 -8 q 75 28 54 72 q 33 115 33 173 l 33 173 q 33 221 50 257 q 67 292 96 312 q 125 331 164 331 z"},"ഫ":{"ha":809,"x_min":33,"x_max":749,"o":"m 164 331 l 164 331 q 204 331 233 312 q 262 293 278 258 q 294 222 294 172 l 294 172 q 294 126 279 86 q 263 46 239 20 l 239 20 l 240 34 l 451 34 l 451 0 l 224 0 l 207 26 q 229 55 243 92 q 257 128 257 170 l 257 170 q 257 235 232 266 q 206 297 164 297 l 164 297 q 135 297 114 282 q 93 266 82 239 q 71 211 71 172 l 71 172 q 71 121 89 83 q 106 45 130 15 l 130 15 l 103 -8 q 75 28 54 72 q 33 115 33 173 l 33 173 q 33 221 50 257 q 67 292 96 312 q 125 331 164 331 z m 590 560 l 590 560 q 624 560 649 550 q 674 540 691 525 l 691 525 q 728 492 739 445 q 749 398 749 334 l 749 334 l 749 0 l 425 0 l 425 339 q 425 379 430 413 q 434 446 447 474 q 459 502 483 523 l 483 523 q 501 539 528 550 q 555 560 590 560 z m 590 525 l 590 525 q 562 525 540 517 q 518 508 504 494 l 504 494 q 476 466 469 423 q 462 379 462 325 l 462 325 l 462 34 l 713 34 l 713 327 q 713 380 706 425 q 698 470 669 496 l 669 496 q 656 510 637 518 q 617 525 590 525 z"},"ബ":{"ha":930,"x_min":43,"x_max":866,"o":"m 252 560 l 252 560 q 317 560 353 525 q 388 490 401 425 l 401 425 l 407 378 l 414 268 l 414 0 l 377 0 l 377 325 q 377 392 368 432 q 359 472 334 496 l 334 496 q 320 510 300 518 q 280 525 252 525 l 252 525 q 200 525 161 489 q 122 453 101 389 q 79 325 79 240 l 79 240 l 79 222 q 79 147 90 104 q 101 60 122 41 q 143 22 172 22 l 172 22 q 192 22 209 34 q 226 45 236 74 q 245 102 245 152 l 245 152 q 245 211 226 242 q 207 273 167 273 l 167 273 q 135 273 111 257 q 87 240 64 210 l 64 210 l 52 239 q 82 274 111 291 q 139 307 171 307 l 171 307 q 203 307 229 291 q 254 275 269 241 q 283 206 283 153 l 283 153 q 283 92 268 56 q 253 20 229 4 q 204 -12 172 -12 l 172 -12 q 135 -12 106 10 q 77 31 60 83 q 43 135 43 228 l 43 228 q 43 337 70 411 q 97 484 144 522 q 191 560 252 560 z m 830 548 l 866 548 l 866 0 l 569 0 l 552 26 q 575 59 596 97 q 616 135 629 185 q 641 235 641 303 l 641 303 q 641 364 627 415 q 612 465 585 495 q 557 525 518 525 l 518 525 q 496 525 481 519 q 465 512 453 498 l 453 498 q 432 476 423 437 q 414 398 414 335 l 414 335 l 414 10 l 381 10 l 381 269 l 392 370 l 391 433 q 405 500 437 530 q 468 560 518 560 l 518 560 q 568 560 604 527 q 640 494 660 436 q 679 378 679 303 l 679 303 q 679 229 665 177 q 651 124 631 88 q 611 51 592 24 l 592 24 l 587 34 l 830 34 l 830 548 z"},"ഭ":{"ha":468,"x_min":46,"x_max":437,"o":"m 290 560 l 290 560 q 335 560 368 544 q 401 528 419 499 q 437 469 437 428 l 437 428 q 437 404 431 385 q 424 365 410 352 l 410 352 q 397 339 376 333 q 354 326 321 326 l 321 326 l 320 326 q 302 325 287 322 q 272 319 262 312 l 262 312 q 250 305 244 294 q 238 283 238 267 l 238 267 q 238 235 260 222 q 281 208 319 208 l 319 208 l 321 208 q 350 208 375 199 q 400 189 416 169 l 416 169 q 426 157 432 141 q 437 124 437 104 l 437 104 q 437 69 424 43 q 411 17 381 3 q 351 -12 300 -12 l 300 -12 q 289 -12 269 -10 q 249 -8 228 -3 q 206 1 188 8 l 188 8 l 202 41 q 228 31 253 27 q 277 23 304 23 l 304 23 q 360 23 381 45 q 401 66 401 103 l 401 103 q 401 135 381 154 q 361 173 317 174 l 317 174 l 315 174 q 284 175 263 182 q 242 188 230 199 l 230 199 q 217 211 210 228 q 202 245 202 267 l 202 267 q 202 287 210 306 q 218 324 234 336 l 234 336 q 250 347 270 353 q 290 359 322 360 l 322 360 l 323 360 q 366 361 383 377 q 400 393 400 429 l 400 429 q 400 472 373 499 q 345 525 289 525 l 289 525 q 220 525 174 487 q 128 448 106 381 q 83 313 83 225 l 83 225 q 83 162 91 107 q 98 52 108 1 l 108 1 l 72 -6 q 61 48 54 107 q 46 165 46 223 l 46 223 q 46 325 74 401 q 102 476 157 518 q 211 560 290 560 z"},"മ":{"ha":514,"x_min":55,"x_max":459,"o":"m 257 560 l 257 560 q 306 560 343 544 q 379 528 402 501 l 402 501 q 423 476 436 444 q 449 411 454 371 q 459 331 459 280 l 459 280 l 459 0 l 55 0 l 55 278 q 55 330 61 372 q 66 413 79 446 q 92 478 113 501 l 113 501 q 137 529 173 545 q 209 560 257 560 z m 223 521 l 223 521 q 197 521 176 509 q 155 497 138 474 l 138 474 q 116 444 104 397 q 92 349 92 265 l 92 265 l 92 33 l 98 33 q 153 92 198 155 q 243 218 270 283 q 297 347 297 408 l 297 408 q 297 439 290 465 q 283 491 267 506 q 251 521 223 521 z m 335 407 l 335 407 q 335 340 308 275 q 281 209 235 146 q 189 82 131 18 l 131 18 l 131 32 q 154 34 186 34 q 218 34 244 34 l 244 34 l 422 34 l 422 271 q 422 352 408 408 q 393 463 360 494 q 327 525 272 528 l 272 528 l 271 531 q 306 516 321 484 q 335 451 335 407 z"},"യ":{"ha":746,"x_min":41,"x_max":701,"o":"m 484 -12 l 484 -12 q 451 -12 423 -3 q 395 6 371 23 l 371 23 q 368 25 365 28 q 362 31 359 33 l 359 33 q 318 68 293 120 q 268 171 256 230 q 244 288 244 346 l 244 346 q 244 391 252 429 q 259 466 274 494 l 274 494 l 282 505 q 294 523 309 535 q 323 547 342 554 q 360 560 382 560 l 382 560 q 444 560 480 507 q 516 453 516 343 l 516 343 q 516 242 489 160 q 461 77 400 32 l 400 32 q 399 30 396 28 q 392 26 390 24 l 390 24 q 364 7 334 -2 q 303 -12 265 -12 l 265 -12 q 212 -12 171 12 q 129 35 100 79 q 71 123 56 186 q 41 248 41 326 l 41 326 q 41 405 61 457 q 81 508 116 534 q 150 560 193 560 l 193 560 q 233 560 260 542 q 286 524 305 500 l 305 500 l 279 476 q 263 499 242 512 q 221 525 196 525 l 196 525 q 165 525 138 505 q 111 485 95 442 q 79 398 79 325 l 79 325 q 79 232 101 164 q 122 96 164 59 q 205 22 265 22 l 265 22 q 293 22 317 28 q 341 34 360 44 l 360 44 q 363 46 367 48 q 370 50 372 52 l 372 52 q 411 79 435 125 q 458 170 468 227 q 478 284 478 342 l 478 342 q 478 408 467 448 q 455 488 434 507 q 412 526 382 526 l 382 526 q 351 526 329 507 q 306 488 294 448 q 282 407 282 344 l 282 344 q 282 296 293 240 q 303 183 326 134 q 348 84 387 53 l 387 53 q 389 52 392 50 q 395 48 398 46 l 398 46 q 416 34 437 28 q 458 22 483 22 l 483 22 q 548 22 588 55 q 627 87 645 147 q 663 207 663 291 l 663 291 q 663 360 646 425 q 628 489 594 542 l 594 542 l 628 559 q 662 502 682 436 q 701 369 701 293 l 701 293 q 701 222 689 166 q 676 109 650 70 q 623 30 582 9 q 541 -12 484 -12 z"},"ര":{"ha":523,"x_min":41,"x_max":482,"o":"m 257 560 l 257 560 q 313 560 355 537 q 397 514 426 471 q 454 428 468 369 q 482 309 482 237 l 482 237 q 482 141 465 87 q 447 32 417 10 q 387 -12 347 -12 l 347 -12 q 302 -12 273 13 q 244 37 231 83 q 217 129 217 191 l 217 191 q 217 290 253 337 q 288 384 347 384 l 347 384 q 379 384 402 372 q 424 359 442 338 q 459 316 471 289 l 471 289 l 461 267 q 449 288 435 307 q 421 326 401 339 q 381 351 352 351 l 352 351 q 302 351 278 310 q 254 269 254 190 l 254 190 q 254 138 263 100 q 272 62 293 42 q 314 22 348 22 l 348 22 q 378 22 400 42 q 422 62 434 109 q 446 156 446 238 l 446 238 q 446 252 445 274 q 444 296 442 307 l 442 307 q 443 309 444 312 q 444 314 443 318 l 443 318 q 434 372 413 419 q 392 466 355 496 q 318 525 258 525 l 258 525 q 198 525 158 493 q 118 461 99 408 q 79 354 79 289 l 79 289 q 79 223 93 173 q 107 123 131 86 q 154 49 181 19 l 181 19 l 155 -6 q 129 22 103 61 q 76 100 59 157 q 41 213 41 290 l 41 290 q 41 347 55 396 q 68 444 96 481 q 123 518 164 539 q 204 560 257 560 z"},"റ":{"ha":481,"x_min":41,"x_max":440,"o":"m 243 560 l 243 560 q 291 560 328 540 q 365 519 390 483 q 415 447 428 398 q 440 349 440 291 l 440 291 q 440 214 423 158 q 405 102 379 62 q 353 22 324 -8 l 324 -8 l 298 18 q 322 44 346 80 q 370 115 386 166 q 402 217 402 289 l 402 289 q 402 359 384 413 q 365 466 330 496 q 294 525 242 525 l 242 525 q 189 525 153 494 q 116 462 98 409 q 79 355 79 289 l 79 289 q 79 223 93 173 q 107 123 131 86 q 154 49 181 19 l 181 19 l 155 -6 q 129 22 103 61 q 76 100 59 157 q 41 213 41 290 l 41 290 q 41 348 54 397 q 67 446 93 482 q 119 518 157 539 q 195 560 243 560 z"},"ല":{"ha":614,"x_min":60,"x_max":550,"o":"m 514 548 l 550 548 l 550 0 l 60 0 l 60 340 q 60 400 71 443 q 81 485 104 512 l 104 512 q 126 537 155 549 q 183 560 219 560 l 219 560 q 256 560 284 548 q 311 536 331 512 l 331 512 q 354 485 365 445 q 375 404 375 344 l 375 344 l 375 234 l 97 234 l 97 34 l 514 34 l 514 548 z m 218 526 l 218 526 q 157 526 127 483 q 97 439 97 338 l 97 338 l 97 268 l 338 268 l 338 337 q 338 437 309 482 q 279 526 218 526 z"},"ള":{"ha":520,"x_min":39,"x_max":484,"o":"m 295 526 l 295 526 q 249 526 212 513 q 175 499 148 475 q 120 450 102 418 q 84 386 77 349 l 77 349 q 76 345 76 341 q 76 337 76 332 l 76 332 q 75 324 75 315 q 74 306 74 297 l 74 297 q 74 219 93 179 q 112 139 156 139 l 156 139 q 190 139 207 169 q 224 199 224 252 l 224 252 q 224 282 218 306 q 211 329 196 344 q 181 358 154 358 l 154 358 q 125 358 102 343 q 79 327 59 302 l 59 302 l 47 328 q 62 347 79 361 q 95 375 115 383 q 135 391 158 391 l 158 391 q 194 391 217 373 q 239 354 251 323 q 262 291 262 253 l 262 253 q 262 206 250 173 q 237 140 214 123 q 190 105 158 105 l 158 105 q 120 105 94 126 q 67 146 53 189 q 39 231 39 296 l 39 296 q 39 349 55 397 q 71 444 104 481 q 136 517 185 539 q 233 560 296 560 l 296 560 q 353 560 394 539 q 434 518 456 483 q 477 447 477 401 l 477 401 q 477 374 467 345 q 457 316 431 295 q 404 273 355 267 l 355 267 l 311 270 l 311 288 l 315 288 q 344 288 366 295 q 388 301 404 315 l 404 315 q 419 327 429 348 q 439 369 439 400 l 439 400 q 439 439 422 467 q 404 495 372 511 q 339 526 295 526 z m 484 142 l 484 142 q 484 107 474 80 q 463 52 441 34 l 441 34 q 426 22 408 14 q 390 6 367 3 q 344 0 311 0 l 311 0 l 226 0 q 177 0 149 -5 q 121 -10 103 -26 l 103 -26 q 93 -36 88 -50 q 82 -64 82 -82 l 82 -82 q 82 -103 89 -117 q 96 -132 109 -143 l 109 -143 q 125 -155 152 -160 q 179 -166 223 -166 l 223 -166 l 459 -166 l 459 -201 l 217 -201 q 171 -201 141 -194 q 110 -187 86 -170 l 86 -170 q 66 -156 55 -134 q 44 -112 44 -83 l 44 -83 q 44 -57 52 -37 q 60 -17 76 -3 l 76 -3 q 90 10 109 18 q 127 26 154 30 q 181 34 221 34 l 221 34 l 309 34 q 351 34 375 40 q 399 46 415 59 l 415 59 q 431 73 439 94 q 446 115 446 142 l 446 142 q 446 170 437 192 q 427 213 409 227 l 409 227 q 392 241 370 248 q 347 254 315 254 l 315 254 l 311 254 l 311 273 l 356 277 q 412 271 448 237 q 484 202 484 142 z"},"ഴ":{"ha":477,"x_min":38,"x_max":439,"o":"m 203 421 l 203 421 q 203 481 236 521 q 268 560 320 560 l 320 560 q 360 560 387 538 q 413 516 426 480 q 439 444 439 400 l 439 400 q 439 330 417 278 q 394 225 353 196 q 312 166 255 166 l 255 166 l 248 166 q 186 166 139 191 q 91 216 65 267 q 38 317 38 393 l 38 393 q 38 437 50 479 q 61 520 82 559 l 82 559 l 114 541 q 93 501 85 466 q 76 431 76 392 l 76 392 q 76 325 99 282 q 121 239 159 219 q 197 199 245 199 l 245 199 l 256 199 q 304 199 336 225 q 368 251 385 296 q 402 341 402 399 l 402 399 q 402 454 382 490 q 362 526 321 526 l 321 526 q 295 526 277 512 q 259 497 250 473 q 240 449 240 419 l 240 419 q 240 377 251 339 q 261 300 275 264 q 289 227 300 191 q 310 154 310 116 l 310 116 q 310 79 298 50 q 285 21 259 5 q 232 -12 188 -12 l 188 -12 q 161 -12 133 -5 q 104 1 80 13 l 80 13 l 94 45 q 116 34 140 28 q 164 22 187 22 l 187 22 q 233 22 253 47 q 273 71 273 118 l 273 118 q 273 155 263 191 q 252 226 238 263 q 224 299 214 339 q 203 378 203 421 z"},"വ":{"ha":691,"x_min":41,"x_max":627,"o":"m 243 560 l 243 560 q 291 560 328 540 q 365 519 390 483 q 415 447 428 398 q 440 349 440 291 l 440 291 q 440 218 424 165 q 407 111 385 76 q 362 41 342 20 l 342 20 l 344 34 l 590 34 l 590 548 l 627 548 l 627 0 l 324 0 l 307 28 q 327 50 349 84 q 371 118 387 169 q 402 219 402 289 l 402 289 q 402 359 384 413 q 365 466 330 496 q 294 525 242 525 l 242 525 q 189 525 153 494 q 116 462 98 409 q 79 355 79 289 l 79 289 q 79 223 93 173 q 107 123 131 86 q 154 49 181 19 l 181 19 l 155 -6 q 129 22 103 61 q 76 100 59 157 q 41 213 41 290 l 41 290 q 41 348 54 397 q 67 446 93 482 q 119 518 157 539 q 195 560 243 560 z"},"ശ":{"ha":731,"x_min":41,"x_max":690,"o":"m 472 560 l 472 560 q 527 560 568 537 q 608 514 636 471 q 663 428 677 369 q 690 309 690 237 l 690 237 q 690 141 673 87 q 655 32 625 10 q 595 -12 556 -12 l 556 -12 q 510 -12 481 13 q 452 37 439 83 q 425 129 425 191 l 425 191 q 425 290 461 337 q 497 384 555 384 l 555 384 q 587 384 610 372 q 633 359 650 338 q 667 316 679 289 l 679 289 l 669 267 q 658 288 644 307 q 629 326 609 339 q 589 351 561 351 l 561 351 q 510 351 486 310 q 462 269 462 190 l 462 190 q 462 138 472 100 q 481 62 502 42 q 522 22 557 22 l 557 22 q 587 22 609 42 q 630 62 642 109 q 654 156 654 238 l 654 238 q 654 252 654 274 q 653 296 651 307 l 651 307 q 651 309 652 312 q 652 314 651 318 l 651 318 q 642 372 622 420 q 601 467 565 496 q 528 525 471 525 l 471 525 q 445 525 424 518 q 402 510 386 496 l 386 496 q 360 471 348 432 q 336 393 336 315 l 336 315 l 336 200 q 336 143 328 100 q 320 56 293 26 l 293 26 q 277 9 255 -1 q 233 -12 201 -12 l 201 -12 q 151 -12 115 20 q 78 51 60 109 q 41 166 41 245 l 41 245 q 41 324 57 380 q 72 436 97 478 q 122 520 149 556 l 149 556 l 178 532 q 151 498 129 458 q 106 417 93 365 q 79 313 79 245 l 79 245 q 79 181 93 131 q 106 80 133 52 q 160 23 201 23 l 201 23 q 222 23 238 30 q 253 36 264 49 l 264 49 q 284 72 291 111 q 298 149 298 215 l 298 215 l 298 330 q 298 402 313 446 q 327 489 358 519 l 358 519 q 379 538 409 549 q 438 560 472 560 z"},"ഷ":{"ha":809,"x_min":33,"x_max":745,"o":"m 164 331 l 164 331 q 204 331 233 312 q 262 293 278 258 q 294 222 294 172 l 294 172 q 294 126 279 86 q 263 46 239 20 l 239 20 l 239 34 l 488 34 l 492 0 l 224 0 l 207 26 q 230 55 244 92 q 257 128 257 170 l 257 170 q 257 235 232 266 q 206 297 164 297 l 164 297 q 135 297 114 282 q 93 266 82 239 q 71 211 71 172 l 71 172 q 71 121 89 83 q 106 45 130 15 l 130 15 l 103 -8 q 75 28 54 72 q 33 115 33 173 l 33 173 q 33 221 50 257 q 67 292 96 312 q 125 331 164 331 z m 745 0 l 473 0 l 473 408 q 473 451 468 475 q 463 499 451 512 l 451 512 q 445 519 437 523 q 428 526 417 526 l 417 526 q 387 526 368 497 q 349 467 349 414 l 349 414 q 349 371 362 342 q 374 312 401 298 q 428 284 469 284 l 469 284 l 487 284 q 527 284 559 301 q 591 317 618 351 q 645 384 668 433 q 690 482 710 548 l 710 548 l 745 548 l 745 0 z m 417 560 l 417 560 q 437 560 452 554 q 466 548 476 537 l 476 537 q 498 517 504 486 q 510 455 510 408 l 510 408 l 510 34 l 709 34 l 709 380 q 709 397 709 417 q 709 437 711 456 q 712 474 713 488 l 713 488 l 716 484 q 692 403 659 351 q 626 299 583 275 q 539 250 485 250 l 485 250 l 473 250 q 420 250 384 269 q 348 288 330 325 q 312 362 312 416 l 312 416 q 312 453 324 486 q 336 519 360 540 q 383 560 417 560 z"},"സ":{"ha":877,"x_min":41,"x_max":836,"o":"m 442 560 l 442 560 q 472 560 496 549 q 519 538 534 521 l 534 521 q 551 504 560 482 q 569 460 573 429 q 576 398 576 352 l 576 352 l 576 215 q 576 149 584 111 q 591 72 611 49 l 611 49 q 622 36 638 30 q 653 23 675 23 l 675 23 q 717 23 744 52 q 771 80 785 131 q 798 181 798 245 l 798 245 q 798 313 785 365 q 771 417 749 458 q 726 498 699 532 l 699 532 l 728 556 q 755 520 780 478 q 804 436 820 380 q 836 324 836 245 l 836 245 q 836 166 817 109 q 798 51 762 20 q 726 -12 675 -12 l 675 -12 q 644 -12 621 -1 q 598 9 582 26 l 582 26 q 564 46 555 72 q 546 98 543 131 q 540 163 540 200 l 540 200 l 540 343 q 540 404 533 441 q 526 477 506 499 l 506 499 q 495 511 479 518 q 462 525 440 525 l 440 525 q 419 525 403 518 q 386 511 376 498 l 376 498 q 357 477 350 437 q 343 397 343 337 l 343 337 l 343 0 l 306 0 l 306 335 q 306 398 297 437 q 288 476 267 498 l 267 498 q 256 512 241 519 q 225 525 201 525 l 201 525 q 163 525 136 495 q 108 465 94 415 q 79 364 79 303 l 79 303 q 79 235 93 184 q 106 132 129 92 q 151 51 178 17 l 178 17 l 149 -6 q 122 29 97 71 q 72 113 57 169 q 41 225 41 303 l 41 303 q 41 379 61 437 q 80 494 116 527 q 152 560 202 560 l 202 560 q 252 560 284 531 q 315 501 328 434 l 328 434 l 319 427 q 328 498 359 529 q 390 560 442 560 z"},"ഹ":{"ha":844,"x_min":33,"x_max":804,"o":"m 164 331 l 164 331 q 204 331 233 312 q 262 293 278 258 q 294 222 294 172 l 294 172 q 294 126 279 86 q 263 46 239 20 l 239 20 l 239 34 l 515 34 l 520 0 l 224 0 l 207 26 q 230 55 244 92 q 257 128 257 170 l 257 170 q 257 235 232 266 q 206 297 164 297 l 164 297 q 135 297 114 282 q 93 266 82 239 q 71 211 71 172 l 71 172 q 71 121 89 83 q 106 45 130 15 l 130 15 l 103 -8 q 75 28 54 72 q 33 115 33 173 l 33 173 q 33 221 50 257 q 67 292 96 312 q 125 331 164 331 z m 606 560 l 606 560 q 655 560 692 540 q 728 519 753 483 q 778 447 791 398 q 804 349 804 291 l 804 291 q 804 214 787 158 q 769 102 743 62 q 716 22 688 -8 l 688 -8 l 662 18 q 685 44 709 80 q 733 115 749 166 q 765 217 765 289 l 765 289 q 765 359 747 413 q 728 466 693 496 q 657 525 606 525 l 606 525 q 552 525 516 494 q 479 462 461 409 q 443 355 443 289 l 443 289 q 443 224 457 175 q 470 126 492 90 q 514 54 537 28 l 537 28 l 519 0 l 502 0 l 493 28 q 476 50 455 84 q 434 118 419 169 q 404 219 404 290 l 404 290 q 404 348 418 397 q 431 446 457 482 q 483 518 521 539 q 558 560 606 560 z"},"ഺ":{"ha":551,"x_min":23,"x_max":534,"o":"m 64 34 l 534 34 l 534 0 l 324 0 l 324 -202 l 287 -202 l 287 0 l 48 0 l 23 29 l 223 558 l 258 546 l 64 34 z"},"഻":{"ha":0,"x_min":-296,"x_max":-262,"o":"m -296 582 l -296 864 l -262 864 l -262 582 l -296 582 z"},"഼":{"ha":0,"x_min":-178,"x_max":9,"o":"m -178 724 l -178 724 q -178 785 -152 817 q -126 849 -85 849 l -85 849 q -43 849 -17 817 q 9 785 9 724 l 9 724 q 9 664 -17 632 q -43 599 -85 599 l -85 599 q -126 599 -152 631 q -178 663 -178 724 z m -144 725 l -144 725 q -144 679 -128 655 q -112 631 -85 631 l -85 631 q -57 631 -41 655 q -25 679 -25 725 l -25 725 q -25 770 -41 794 q -57 817 -85 817 l -85 817 q -112 817 -128 794 q -144 770 -144 725 z"},"ഽ":{"ha":327,"x_min":-54,"x_max":381,"o":"m 262 786 l 262 786 q 298 786 323 767 q 347 748 361 716 q 375 684 381 644 l 381 644 l 345 636 q 339 669 330 695 q 320 720 304 736 q 288 752 261 752 l 261 752 q 247 752 237 749 q 226 745 216 737 l 216 737 q 194 719 188 684 q 182 649 182 601 l 182 601 l 182 -64 q 182 -130 171 -164 q 160 -199 137 -220 l 137 -220 q 122 -232 104 -238 q 86 -244 65 -244 l 65 -244 q 29 -244 5 -225 q -19 -206 -33 -174 q -48 -142 -54 -103 l -54 -103 l -18 -95 q -12 -126 -2 -152 q 7 -179 24 -194 q 40 -210 66 -210 l 66 -210 q 80 -210 91 -206 q 102 -203 111 -195 l 111 -195 q 132 -177 139 -142 q 145 -108 145 -59 l 145 -59 l 145 605 q 145 672 156 707 q 167 742 190 761 l 190 761 q 205 774 223 780 q 241 786 262 786 z"},"ാ":{"ha":366,"x_min":24,"x_max":323,"o":"m 323 276 l 323 276 q 323 207 315 153 q 306 99 288 63 q 270 26 242 7 q 214 -12 173 -12 l 173 -12 q 138 -12 113 2 q 88 15 70 40 q 52 64 41 96 q 30 127 24 163 l 24 163 l 61 170 q 69 130 82 97 q 94 63 116 43 q 138 22 172 22 l 172 22 q 213 22 238 51 q 262 79 274 135 q 285 191 285 276 l 285 276 q 285 359 274 415 q 262 470 238 498 q 213 526 173 526 l 173 526 q 141 526 119 506 q 97 486 84 453 q 71 420 63 380 l 63 380 l 26 387 q 33 422 45 454 q 56 485 74 509 q 91 533 116 547 q 141 560 175 560 l 175 560 q 214 560 242 541 q 270 522 288 486 q 306 450 315 397 q 323 344 323 276 z"},"ി":{"ha":164,"x_min":-148,"x_max":101,"o":"m -28 843 l -28 843 q -6 843 14 837 q 34 830 48 817 l 48 817 q 68 801 80 777 q 91 752 96 716 q 101 680 101 628 l 101 628 l 101 0 l 64 0 l 64 608 q 64 656 61 691 q 58 726 50 751 q 41 776 24 791 l 24 791 q 14 800 2 805 q -11 809 -28 809 l -28 809 q -50 809 -69 798 q -88 787 -99 763 q -111 739 -111 701 l -111 701 q -111 680 -109 664 q -107 648 -105 636 l -105 636 l -142 631 q -144 644 -146 661 q -148 678 -148 702 l -148 702 q -148 748 -132 779 q -116 810 -88 827 q -61 843 -28 843 z"},"ീ":{"ha":164,"x_min":-212,"x_max":101,"o":"m -81 843 l -81 843 q -49 843 -24 835 q 1 827 21 814 l 21 814 q 67 782 84 728 q 101 674 101 586 l 101 586 l 101 0 l 64 0 l 64 570 q 64 623 60 663 q 56 703 44 733 q 31 762 7 781 l 7 781 q -9 796 -29 804 q -50 811 -83 811 l -83 811 q -107 811 -129 801 q -151 790 -164 768 q -178 746 -178 712 l -178 712 q -178 665 -160 647 q -143 628 -116 628 l -116 628 q -86 628 -71 649 q -56 669 -56 707 l -56 707 q -56 740 -68 768 q -80 796 -100 816 l -100 816 l -62 816 q -47 797 -35 770 q -23 743 -23 708 l -23 708 q -23 676 -33 650 q -43 624 -64 609 q -85 594 -116 594 l -116 594 q -145 594 -166 608 q -188 621 -200 648 q -212 674 -212 712 l -212 712 q -212 755 -194 785 q -176 814 -146 829 q -116 843 -81 843 z"},"ു":{"ha":228,"x_min":-13,"x_max":231,"o":"m 109 -221 l 109 -221 q 51 -221 19 -176 q -13 -132 -13 -55 l -13 -55 q -13 -1 2 36 q 16 73 44 93 q 71 112 108 112 l 108 112 q 146 112 174 93 q 202 73 217 36 q 231 -2 231 -54 l 231 -54 q 231 -106 216 -143 q 201 -181 174 -201 q 147 -221 109 -221 z m 109 -188 l 109 -188 q 149 -188 172 -154 q 194 -121 194 -54 l 194 -54 q 194 11 172 46 q 150 80 108 80 l 108 80 q 67 80 45 46 q 23 11 23 -55 l 23 -55 q 23 -120 45 -154 q 67 -188 109 -188 z m 69 560 l 69 560 q 110 560 135 541 q 160 521 172 489 q 183 456 183 415 l 183 415 q 183 347 168 264 q 152 180 130 86 l 130 86 l 95 94 q 117 187 131 268 q 145 349 145 411 l 145 411 q 145 468 126 497 q 106 525 66 525 l 66 525 q 53 525 41 524 q 28 522 16 518 l 16 518 l 8 551 q 20 554 37 557 q 53 560 69 560 z"},"ൂ":{"ha":228,"x_min":-13,"x_max":231,"o":"m 109 -221 l 109 -221 q 51 -221 19 -176 q -13 -132 -13 -55 l -13 -55 q -13 -1 2 36 q 16 73 44 93 q 71 112 108 112 l 108 112 q 146 112 174 93 q 202 73 217 36 q 231 -2 231 -54 l 231 -54 q 231 -106 216 -143 q 201 -181 174 -201 q 147 -221 109 -221 z m 108 80 l 108 80 q 66 80 43 49 q 19 17 19 -55 l 19 -55 q 19 -120 42 -154 q 65 -188 109 -188 l 109 -188 q 151 -188 175 -154 q 198 -121 198 -54 l 198 -54 q 198 18 176 49 q 153 80 108 80 z m 108 -87 l 108 -87 q 62 -87 42 -60 q 22 -33 22 6 l 22 6 q 22 31 33 52 q 44 72 59 91 l 59 91 l 73 80 q 57 63 50 48 q 43 32 43 10 l 43 10 q 43 -6 50 -21 q 56 -36 71 -45 q 85 -54 108 -54 l 108 -54 q 132 -54 146 -45 q 160 -36 167 -21 q 173 -6 173 10 l 173 10 q 173 32 166 48 q 159 63 143 80 l 143 80 l 159 91 q 173 71 184 51 q 194 31 194 7 l 194 7 q 194 -19 186 -40 q 178 -61 160 -74 q 141 -87 108 -87 z m 70 560 l 70 560 q 110 560 135 541 q 160 521 172 489 q 183 456 183 415 l 183 415 q 183 347 168 264 q 152 180 130 86 l 130 86 l 95 94 q 117 187 131 268 q 145 349 145 411 l 145 411 q 145 468 126 497 q 106 525 66 525 l 66 525 q 53 525 41 524 q 28 522 16 518 l 16 518 l 8 551 q 20 554 37 557 q 54 560 70 560 z"},"ൃ":{"ha":176,"x_min":-106,"x_max":168,"o":"m 21 -302 l 21 -302 q -14 -302 -43 -287 q -72 -273 -89 -243 q -106 -214 -106 -170 l -106 -170 q -106 -111 -72 -76 q -39 -41 16 -41 l 16 -41 q 57 -41 92 -58 q 126 -75 155 -106 l 155 -106 l 148 -139 q 116 -108 84 -91 q 52 -75 17 -75 l 17 -75 q -19 -75 -44 -98 q -69 -121 -69 -171 l -69 -171 q -69 -222 -43 -245 q -17 -268 21 -268 l 21 -268 q 51 -268 76 -255 q 101 -242 116 -210 q 131 -179 131 -125 l 131 -125 q 131 -94 126 -64 q 121 -35 111 3 q 101 41 84 94 l 84 94 q 66 150 55 199 q 44 248 44 300 l 44 300 q 44 365 61 426 q 77 486 104 548 l 104 548 l 144 548 q 123 499 109 459 q 94 419 88 382 q 81 344 81 302 l 81 302 q 81 253 91 210 q 101 166 119 105 l 119 105 q 138 44 149 4 q 159 -37 164 -67 q 168 -97 168 -125 l 168 -125 q 168 -187 149 -226 q 129 -265 96 -283 q 63 -302 21 -302 z"},"ൄ":{"ha":176,"x_min":-195,"x_max":168,"o":"m -24 -302 l -24 -302 q -74 -302 -112 -284 q -150 -267 -172 -233 q -195 -199 -195 -148 l -195 -148 q -195 -102 -171 -74 q -148 -46 -111 -46 l -111 -46 q -87 -46 -70 -61 q -54 -76 -48 -104 l -48 -104 l -56 -103 q -47 -75 -28 -60 q -10 -46 12 -46 l 12 -46 q 32 -46 46 -54 q 59 -62 68 -75 q 76 -89 80 -107 q 84 -126 84 -147 l 84 -147 l 84 -174 l 52 -174 l 52 -153 q 52 -118 42 -98 q 32 -79 10 -79 l 10 -79 q -14 -79 -24 -98 q -35 -117 -35 -152 l -35 -152 l -35 -174 l -67 -174 l -67 -152 q -67 -116 -77 -97 q -88 -79 -110 -79 l -110 -79 q -131 -79 -145 -96 q -160 -113 -160 -149 l -160 -149 q -160 -210 -121 -239 q -83 -268 -23 -268 l -23 -268 q 47 -268 89 -235 q 131 -202 131 -124 l 131 -124 q 131 -94 126 -64 q 121 -35 111 3 q 101 40 84 93 l 84 93 q 66 150 55 197 q 43 244 43 298 l 43 298 q 43 365 58 425 q 72 484 97 548 l 97 548 l 137 548 q 116 499 104 459 q 91 418 86 380 q 80 341 80 299 l 80 299 q 80 242 92 199 q 104 156 119 105 l 119 105 q 138 44 149 4 q 159 -37 164 -67 q 168 -97 168 -126 l 168 -126 q 168 -187 144 -226 q 119 -265 76 -283 q 32 -302 -24 -302 z"},"െ":{"ha":508,"x_min":41,"x_max":468,"o":"m 170 -12 l 170 -12 q 133 -12 104 9 q 75 30 58 83 q 41 135 41 230 l 41 230 q 41 311 58 373 q 75 434 105 476 q 134 517 176 539 q 217 560 264 560 l 264 560 q 315 560 353 540 q 391 519 417 483 q 442 447 455 398 q 468 349 468 291 l 468 291 q 468 214 451 158 q 433 102 407 62 q 380 22 352 -8 l 352 -8 l 325 18 q 349 44 373 80 q 397 115 413 166 q 429 217 429 289 l 429 289 q 429 359 411 413 q 392 466 356 496 q 319 525 264 525 l 264 525 q 209 525 167 490 q 125 455 101 389 q 77 323 77 229 l 77 229 q 77 151 88 106 q 99 61 120 42 q 141 22 170 22 l 170 22 q 190 22 207 34 q 224 45 234 74 q 243 102 243 152 l 243 152 q 243 211 224 242 q 205 273 165 273 l 165 273 q 133 273 109 257 q 85 240 62 210 l 62 210 l 50 239 q 80 274 109 291 q 137 307 169 307 l 169 307 q 201 307 227 291 q 252 275 267 241 q 281 206 281 153 l 281 153 q 281 92 266 56 q 251 20 227 4 q 202 -12 170 -12 z"},"േ":{"ha":422,"x_min":41,"x_max":388,"o":"m 254 -12 l 254 -12 q 212 -12 174 5 q 135 22 105 58 q 75 93 58 148 q 41 203 41 279 l 41 279 q 41 352 60 405 q 79 458 111 492 q 142 526 181 543 q 220 560 260 560 l 260 560 q 304 560 333 542 q 361 524 375 494 q 388 463 388 426 l 388 426 q 388 388 376 362 q 364 335 343 323 q 322 310 295 310 l 295 310 q 263 310 242 324 q 220 338 209 364 q 198 390 198 423 l 198 423 q 198 458 210 487 q 222 516 237 537 l 237 537 l 273 538 q 256 519 244 488 q 232 456 232 425 l 232 425 q 232 387 247 365 q 262 343 295 343 l 295 343 q 323 343 338 364 q 352 384 352 426 l 352 426 q 352 473 329 500 q 306 527 264 527 l 264 527 q 258 527 252 527 q 246 527 240 527 l 240 527 q 188 520 152 485 q 116 450 98 397 q 79 343 79 278 l 79 278 q 79 199 99 144 q 118 89 153 59 q 188 28 234 21 l 234 21 q 240 21 247 21 q 253 20 257 20 l 257 20 q 287 20 307 33 q 326 45 337 68 q 347 90 347 122 l 347 122 q 347 163 333 184 q 318 205 290 205 l 290 205 q 257 205 242 183 q 227 161 227 122 l 227 122 q 227 91 239 60 q 251 28 268 10 l 268 10 l 232 10 q 218 31 206 61 q 193 90 193 125 l 193 125 q 193 159 204 184 q 215 209 237 224 q 258 238 289 238 l 289 238 q 316 238 338 226 q 359 213 371 188 q 383 162 383 122 l 383 122 q 383 84 370 54 q 356 23 328 6 q 299 -12 254 -12 z"},"ൈ":{"ha":1016,"x_min":41,"x_max":976,"o":"m 170 -12 l 170 -12 q 133 -12 104 9 q 75 30 58 83 q 41 135 41 230 l 41 230 q 41 311 58 373 q 75 434 105 476 q 134 517 176 539 q 217 560 264 560 l 264 560 q 315 560 353 540 q 391 519 417 483 q 442 447 455 398 q 468 349 468 291 l 468 291 q 468 214 451 158 q 433 102 407 62 q 380 22 352 -8 l 352 -8 l 325 18 q 349 44 373 80 q 397 115 413 166 q 429 217 429 289 l 429 289 q 429 359 411 413 q 392 466 356 496 q 319 525 264 525 l 264 525 q 209 525 167 490 q 125 455 101 389 q 77 323 77 229 l 77 229 q 77 151 88 106 q 99 61 120 42 q 141 22 170 22 l 170 22 q 190 22 207 34 q 224 45 234 74 q 243 102 243 152 l 243 152 q 243 211 224 242 q 205 273 165 273 l 165 273 q 133 273 109 257 q 85 240 62 210 l 62 210 l 50 239 q 80 274 109 291 q 137 307 169 307 l 169 307 q 201 307 227 291 q 252 275 267 241 q 281 206 281 153 l 281 153 q 281 92 266 56 q 251 20 227 4 q 202 -12 170 -12 z m 678 -12 l 678 -12 q 641 -12 612 9 q 583 30 566 83 q 549 135 549 230 l 549 230 q 549 311 566 373 q 583 434 613 476 q 642 517 684 539 q 725 560 772 560 l 772 560 q 823 560 861 540 q 899 519 925 483 q 950 447 963 398 q 976 349 976 291 l 976 291 q 976 214 959 158 q 941 102 915 62 q 888 22 860 -8 l 860 -8 l 833 18 q 857 44 881 80 q 905 115 921 166 q 937 217 937 289 l 937 289 q 937 359 919 413 q 900 466 864 496 q 827 525 772 525 l 772 525 q 717 525 675 490 q 633 455 609 389 q 585 323 585 229 l 585 229 q 585 151 596 106 q 607 61 628 42 q 649 22 678 22 l 678 22 q 698 22 715 34 q 732 45 742 74 q 751 102 751 152 l 751 152 q 751 211 732 242 q 713 273 673 273 l 673 273 q 641 273 617 257 q 593 240 570 210 l 570 210 l 558 239 q 588 274 617 291 q 645 307 677 307 l 677 307 q 709 307 735 291 q 760 275 775 241 q 789 206 789 153 l 789 153 q 789 92 774 56 q 759 20 735 4 q 710 -12 678 -12 z"},"ൊ":{"ha":962,"x_min":41,"x_max":919,"o":"m 170 -12 l 170 -12 q 133 -12 104 9 q 75 30 58 83 q 41 135 41 230 l 41 230 q 41 311 58 373 q 75 434 105 476 q 134 517 176 539 q 217 560 264 560 l 264 560 q 315 560 353 540 q 391 519 417 483 q 442 447 455 398 q 468 349 468 291 l 468 291 q 468 214 451 158 q 433 102 407 62 q 380 22 352 -8 l 352 -8 l 325 18 q 349 44 373 80 q 397 115 413 166 q 429 217 429 289 l 429 289 q 429 359 411 413 q 392 466 356 496 q 319 525 264 525 l 264 525 q 209 525 167 490 q 125 455 101 389 q 77 323 77 229 l 77 229 q 77 151 88 106 q 99 61 120 42 q 141 22 170 22 l 170 22 q 190 22 207 34 q 224 45 234 74 q 243 102 243 152 l 243 152 q 243 211 224 242 q 205 273 165 273 l 165 273 q 133 273 109 257 q 85 240 62 210 l 62 210 l 50 239 q 80 274 109 291 q 137 307 169 307 l 169 307 q 201 307 227 291 q 252 275 267 241 q 281 206 281 153 l 281 153 q 281 92 266 56 q 251 20 227 4 q 202 -12 170 -12 z m 559 261 l 559 261 q 542 261 535 272 q 528 282 528 299 l 528 299 q 528 315 535 326 q 542 337 559 337 l 559 337 q 578 337 585 326 q 591 315 591 299 l 591 299 q 591 282 585 272 q 578 261 559 261 z m 919 276 l 919 276 q 919 207 911 153 q 902 99 884 63 q 866 26 838 7 q 810 -12 769 -12 l 769 -12 q 734 -12 709 2 q 684 15 666 40 q 648 64 637 96 q 626 127 620 163 l 620 163 l 657 170 q 665 130 678 97 q 690 63 712 43 q 734 22 768 22 l 768 22 q 809 22 834 51 q 858 79 870 135 q 881 191 881 276 l 881 276 q 881 359 870 415 q 858 470 834 498 q 809 526 769 526 l 769 526 q 737 526 715 506 q 693 486 680 453 q 667 420 659 380 l 659 380 l 622 387 q 629 422 641 454 q 652 485 670 509 q 687 533 712 547 q 737 560 771 560 l 771 560 q 810 560 838 541 q 866 522 884 486 q 902 450 911 397 q 919 344 919 276 z"},"ോ":{"ha":863,"x_min":41,"x_max":819,"o":"m 254 -12 l 254 -12 q 212 -12 174 5 q 135 22 105 58 q 75 93 58 148 q 41 203 41 279 l 41 279 q 41 352 60 405 q 79 458 111 492 q 142 526 181 543 q 220 560 260 560 l 260 560 q 304 560 333 542 q 361 524 375 494 q 388 463 388 426 l 388 426 q 388 388 376 362 q 364 335 343 323 q 322 310 295 310 l 295 310 q 263 310 242 324 q 220 338 209 364 q 198 390 198 423 l 198 423 q 198 458 210 487 q 222 516 237 537 l 237 537 l 273 538 q 256 519 244 488 q 232 456 232 425 l 232 425 q 232 387 247 365 q 262 343 295 343 l 295 343 q 323 343 338 364 q 352 384 352 426 l 352 426 q 352 473 329 500 q 306 527 264 527 l 264 527 q 258 527 252 527 q 246 527 240 527 l 240 527 q 188 520 152 485 q 116 450 98 397 q 79 343 79 278 l 79 278 q 79 199 99 144 q 118 89 153 59 q 188 28 234 21 l 234 21 q 240 21 247 21 q 253 20 257 20 l 257 20 q 287 20 307 33 q 326 45 337 68 q 347 90 347 122 l 347 122 q 347 163 333 184 q 318 205 290 205 l 290 205 q 257 205 242 183 q 227 161 227 122 l 227 122 q 227 91 239 60 q 251 28 268 10 l 268 10 l 232 10 q 218 31 206 61 q 193 90 193 125 l 193 125 q 193 159 204 184 q 215 209 237 224 q 258 238 289 238 l 289 238 q 316 238 338 226 q 359 213 371 188 q 383 162 383 122 l 383 122 q 383 84 370 54 q 356 23 328 6 q 299 -12 254 -12 z m 459 261 l 459 261 q 442 261 435 272 q 428 282 428 299 l 428 299 q 428 315 435 326 q 442 337 459 337 l 459 337 q 478 337 485 326 q 491 315 491 299 l 491 299 q 491 282 485 272 q 478 261 459 261 z m 819 276 l 819 276 q 819 207 811 153 q 802 99 784 63 q 766 26 738 7 q 710 -12 669 -12 l 669 -12 q 634 -12 609 2 q 584 15 566 40 q 548 64 537 96 q 526 127 520 163 l 520 163 l 557 170 q 565 130 578 97 q 590 63 612 43 q 634 22 668 22 l 668 22 q 709 22 734 51 q 758 79 770 135 q 781 191 781 276 l 781 276 q 781 359 770 415 q 758 470 734 498 q 709 526 669 526 l 669 526 q 637 526 615 506 q 593 486 580 453 q 567 420 559 380 l 559 380 l 522 387 q 529 422 541 454 q 552 485 570 509 q 587 533 612 547 q 637 560 671 560 l 671 560 q 710 560 738 541 q 766 522 784 486 q 802 450 811 397 q 819 344 819 276 z"},"ൌ":{"ha":1154,"x_min":41,"x_max":1110,"o":"m 170 -12 l 170 -12 q 133 -12 104 9 q 75 30 58 83 q 41 135 41 230 l 41 230 q 41 311 58 373 q 75 434 105 476 q 134 517 176 539 q 217 560 264 560 l 264 560 q 315 560 353 540 q 391 519 417 483 q 442 447 455 398 q 468 349 468 291 l 468 291 q 468 214 451 158 q 433 102 407 62 q 380 22 352 -8 l 352 -8 l 325 18 q 349 44 373 80 q 397 115 413 166 q 429 217 429 289 l 429 289 q 429 359 411 413 q 392 466 356 496 q 319 525 264 525 l 264 525 q 209 525 167 490 q 125 455 101 389 q 77 323 77 229 l 77 229 q 77 151 88 106 q 99 61 120 42 q 141 22 170 22 l 170 22 q 190 22 207 34 q 224 45 234 74 q 243 102 243 152 l 243 152 q 243 211 224 242 q 205 273 165 273 l 165 273 q 133 273 109 257 q 85 240 62 210 l 62 210 l 50 239 q 80 274 109 291 q 137 307 169 307 l 169 307 q 201 307 227 291 q 252 275 267 241 q 281 206 281 153 l 281 153 q 281 92 266 56 q 251 20 227 4 q 202 -12 170 -12 z m 559 261 l 559 261 q 542 261 535 272 q 528 282 528 299 l 528 299 q 528 315 535 326 q 542 337 559 337 l 559 337 q 578 337 585 326 q 591 315 591 299 l 591 299 q 591 282 585 272 q 578 261 559 261 z m 976 560 l 976 560 q 1018 560 1048 531 q 1078 502 1094 445 q 1110 388 1110 303 l 1110 303 q 1110 197 1090 127 q 1070 57 1024 23 q 977 -12 900 -12 l 900 -12 q 867 -12 832 -5 q 797 1 760 20 l 760 20 l 777 51 q 808 37 836 30 q 863 23 898 23 l 898 23 q 967 23 1005 54 q 1042 85 1057 147 q 1072 209 1072 303 l 1072 303 q 1072 414 1046 470 q 1019 525 974 525 l 974 525 q 955 525 942 517 q 929 508 919 494 l 919 494 q 903 468 898 433 q 893 397 893 352 l 893 352 l 893 257 l 856 257 l 856 356 q 856 406 851 439 q 845 472 832 492 l 832 492 q 822 508 808 517 q 793 525 773 525 l 773 525 q 729 525 707 488 q 685 450 685 393 l 685 393 q 685 358 689 325 q 693 292 701 261 l 701 261 l 666 254 q 658 286 653 320 q 647 354 647 395 l 647 395 q 647 442 662 479 q 676 516 704 538 q 732 560 771 560 l 771 560 q 811 560 840 535 q 868 509 878 448 l 878 448 l 871 448 q 881 506 909 533 q 937 560 976 560 z"},"്":{"ha":0,"x_min":-204,"x_max":35,"o":"m -84 599 l -84 599 q -121 599 -148 614 q -175 629 -189 661 q -204 692 -204 741 l -204 741 q -204 760 -201 778 q -199 795 -195 808 l -195 808 l -162 802 q -165 789 -167 774 q -169 759 -169 741 l -169 741 q -169 700 -158 677 q -148 653 -129 643 q -110 633 -84 633 l -84 633 q -57 633 -38 644 q -19 654 -9 678 q 0 702 0 742 l 0 742 q 0 759 -2 775 q -4 790 -7 802 l -7 802 l 27 808 q 30 796 33 778 q 35 760 35 742 l 35 742 q 35 693 21 661 q 6 629 -21 614 q -48 599 -84 599 z"},"ൎ":{"ha":0,"x_min":-302,"x_max":-256,"o":"m -302 799 l -256 799 l -262 625 l -296 625 l -302 799 z"},"൏":{"ha":900,"x_min":49,"x_max":854,"o":"m 426 560 l 426 560 q 492 560 528 525 q 563 490 576 425 l 576 425 l 566 434 q 580 500 612 530 q 643 560 692 560 l 692 560 q 742 560 778 526 q 814 491 834 419 q 854 346 854 230 l 854 230 q 854 87 814 -14 q 773 -116 686 -170 q 598 -224 459 -224 l 459 -224 q 364 -224 295 -200 q 226 -176 179 -133 q 131 -90 103 -33 q 74 24 62 89 q 49 154 49 223 l 49 223 q 49 309 64 382 q 79 454 105 530 l 105 530 l 140 518 q 114 448 100 376 q 86 304 86 223 l 86 223 q 86 161 97 102 q 107 42 132 -10 q 157 -63 199 -103 q 241 -143 305 -166 q 369 -189 459 -189 l 459 -189 q 554 -189 622 -161 q 690 -134 733 -80 q 776 -27 796 52 q 816 131 816 234 l 816 234 q 816 331 802 396 q 788 461 760 493 q 732 525 692 525 l 692 525 q 670 525 655 519 q 639 512 628 498 l 628 498 q 607 476 598 437 q 589 398 589 335 l 589 335 l 589 0 l 552 0 l 552 325 q 552 392 543 432 q 534 472 509 496 l 509 496 q 495 510 475 518 q 455 525 427 525 l 427 525 q 375 525 336 489 q 297 453 276 389 q 254 325 254 240 l 254 240 l 254 222 q 254 147 265 104 q 276 60 297 41 q 318 22 347 22 l 347 22 q 367 22 384 34 q 400 45 410 74 q 420 102 420 152 l 420 152 q 420 211 401 242 q 381 273 342 273 l 342 273 q 310 273 286 257 q 262 240 239 210 l 239 210 l 227 239 q 256 274 285 291 q 314 307 346 307 l 346 307 q 378 307 403 291 q 428 275 443 241 q 458 206 458 153 l 458 153 q 458 92 443 56 q 428 20 404 4 q 379 -12 347 -12 l 347 -12 q 310 -12 281 10 q 251 31 235 83 q 218 135 218 228 l 218 228 q 218 337 245 411 q 272 484 319 522 q 366 560 426 560 z"},"ൔ":{"ha":450,"x_min":30,"x_max":441,"o":"m 102 792 l 102 792 q 124 792 142 786 q 160 780 172 770 l 172 770 q 195 751 204 724 q 213 696 213 646 l 213 646 l 213 521 q 213 460 220 413 q 226 366 243 325 q 259 284 286 239 l 286 239 l 295 228 q 323 188 358 141 q 393 94 441 33 l 441 33 l 425 0 l 55 0 l 55 280 q 55 329 60 367 q 64 405 75 436 q 85 466 103 492 l 103 492 q 125 522 156 540 q 187 557 227 557 l 227 557 q 271 557 300 536 q 328 514 343 477 q 357 439 357 390 l 357 390 q 357 339 341 294 q 324 249 297 207 l 297 207 l 289 196 q 266 162 239 131 q 212 99 185 72 q 157 44 130 18 l 130 18 l 128 30 q 149 32 171 33 q 192 34 219 34 l 219 34 l 339 34 q 353 34 367 34 q 380 34 393 34 q 406 33 417 31 l 417 31 l 400 29 q 361 81 330 122 q 299 162 274 199 l 274 199 l 266 210 q 232 262 212 306 q 192 350 184 400 q 176 450 176 518 l 176 518 l 176 641 q 176 682 170 706 q 164 730 145 743 l 145 743 q 137 750 126 754 q 115 757 99 757 l 99 757 q 84 757 68 754 q 52 751 38 746 l 38 746 l 30 780 q 44 785 64 789 q 83 792 102 792 z m 92 264 l 92 33 l 98 33 q 128 60 158 91 q 187 121 216 155 q 244 189 267 226 l 267 226 l 275 239 q 296 275 308 313 q 319 351 319 390 l 319 390 q 319 432 309 462 q 298 492 277 508 q 255 524 221 524 l 221 524 q 193 524 171 510 q 148 496 132 470 l 132 470 q 117 447 108 417 q 99 386 96 349 q 92 311 92 264 l 92 264 z"},"ൕ":{"ha":737,"x_min":41,"x_max":702,"o":"m 497 -12 l 497 -12 q 470 -12 448 -8 q 425 -4 407 4 q 388 11 372 23 l 372 23 q 369 25 366 28 q 363 31 360 33 l 360 33 q 319 68 294 120 q 268 171 256 230 q 244 288 244 346 l 244 346 q 244 391 252 429 q 259 466 274 494 l 274 494 l 282 505 q 295 523 310 535 q 324 547 342 554 q 360 560 382 560 l 382 560 q 444 560 480 507 q 516 453 516 343 l 516 343 q 516 276 504 217 q 492 157 467 110 q 441 62 400 32 l 400 32 q 399 30 396 28 q 392 26 390 24 l 390 24 q 364 7 334 -2 q 303 -12 265 -12 l 265 -12 q 212 -12 171 12 q 129 35 100 79 q 71 123 56 186 q 41 248 41 326 l 41 326 q 41 405 61 457 q 81 508 116 534 q 150 560 193 560 l 193 560 q 233 560 260 542 q 286 524 305 500 l 305 500 l 279 476 q 263 499 242 512 q 221 525 196 525 l 196 525 q 165 525 138 505 q 111 485 95 442 q 79 398 79 325 l 79 325 q 79 232 101 164 q 122 96 164 59 q 205 22 265 22 l 265 22 q 293 22 317 28 q 341 34 360 44 l 360 44 q 363 46 367 48 q 370 50 372 52 l 372 52 q 411 79 435 125 q 458 170 468 227 q 478 284 478 342 l 478 342 q 478 408 467 448 q 455 488 434 507 q 412 526 382 526 l 382 526 q 351 526 329 507 q 306 488 294 448 q 282 407 282 344 l 282 344 q 282 296 293 240 q 303 183 326 134 q 349 84 388 53 l 388 53 q 390 52 394 50 q 397 48 399 46 l 399 46 q 417 34 440 28 q 463 22 497 22 l 497 22 q 555 22 590 46 q 625 70 641 113 q 657 156 657 214 l 657 214 q 657 253 650 290 q 643 327 629 368 q 614 408 590 456 l 590 456 q 565 507 549 545 q 533 582 525 612 q 517 641 517 668 l 517 668 q 517 702 530 730 q 543 758 570 775 q 596 792 634 792 l 634 792 q 653 792 670 789 q 687 786 702 781 l 702 781 l 694 748 q 680 753 667 755 q 654 757 636 757 l 636 757 q 592 757 574 730 q 555 703 555 668 l 555 668 q 555 644 561 620 q 567 596 582 561 q 597 526 623 471 l 623 471 q 647 423 663 380 q 679 336 687 296 q 695 255 695 216 l 695 216 q 695 174 688 139 q 680 104 665 76 q 649 48 626 28 q 602 8 570 -2 q 537 -12 497 -12 z"},"ൖ":{"ha":509,"x_min":38,"x_max":471,"o":"m 134 142 l 134 142 q 134 108 142 81 q 150 54 171 38 q 191 22 228 22 l 228 22 q 267 22 286 46 q 305 70 305 118 l 305 118 q 305 155 295 191 q 284 226 271 262 q 257 298 247 338 q 236 377 236 420 l 236 420 q 236 460 251 492 q 265 523 292 542 q 318 560 353 560 l 353 560 q 392 560 419 538 q 445 516 458 480 q 471 444 471 400 l 471 400 q 471 330 448 278 q 425 225 381 196 q 336 166 272 166 l 272 166 l 265 166 q 224 166 189 175 q 154 184 125 203 l 125 203 l 114 209 q 90 228 73 255 q 56 281 47 316 q 38 350 38 393 l 38 393 q 38 437 50 479 q 61 521 82 559 l 82 559 l 114 541 q 93 501 85 466 q 76 431 76 392 l 76 392 q 76 340 89 305 q 102 269 124 245 l 124 245 l 135 236 q 159 217 191 208 q 223 199 262 199 l 262 199 l 274 199 q 329 199 365 226 q 400 252 417 297 q 434 342 434 399 l 434 399 q 434 454 414 490 q 394 526 353 526 l 353 526 q 328 526 310 512 q 291 497 282 473 q 272 449 272 419 l 272 419 q 272 377 283 339 q 293 300 307 263 q 321 226 332 190 q 342 154 342 116 l 342 116 q 342 89 335 66 q 328 42 314 25 q 300 7 279 -2 q 257 -12 228 -12 l 228 -12 q 185 -12 156 6 q 126 24 112 59 q 97 93 97 144 l 97 144 q 97 177 105 214 q 113 250 132 304 q 150 358 181 441 l 181 441 q 204 499 217 540 q 230 581 236 612 q 241 643 241 671 l 241 671 q 241 708 224 733 q 207 757 166 757 l 166 757 q 150 757 135 754 q 119 750 104 745 l 104 745 l 95 779 q 113 785 132 789 q 150 792 169 792 l 169 792 q 210 792 234 775 q 258 757 269 731 q 279 704 279 676 l 279 676 q 279 654 276 630 q 273 605 265 577 q 257 548 245 513 q 233 477 215 429 l 215 429 q 190 362 174 318 q 158 273 149 243 q 140 213 137 190 q 134 166 134 142 z"},"ൗ":{"ha":545,"x_min":38,"x_max":501,"o":"m 367 560 l 367 560 q 409 560 439 531 q 469 502 485 445 q 501 388 501 303 l 501 303 q 501 197 481 127 q 461 57 415 23 q 368 -12 291 -12 l 291 -12 q 258 -12 223 -5 q 188 1 151 20 l 151 20 l 168 51 q 199 37 227 30 q 254 23 289 23 l 289 23 q 358 23 396 54 q 433 85 448 147 q 463 209 463 303 l 463 303 q 463 414 437 470 q 410 525 365 525 l 365 525 q 346 525 333 517 q 320 508 310 494 l 310 494 q 294 468 289 433 q 284 397 284 352 l 284 352 l 284 257 l 247 257 l 247 356 q 247 406 242 439 q 236 472 223 492 l 223 492 q 213 508 199 517 q 184 525 164 525 l 164 525 q 120 525 98 488 q 76 450 76 393 l 76 393 q 76 358 80 325 q 84 292 92 261 l 92 261 l 57 254 q 49 286 44 320 q 38 354 38 395 l 38 395 q 38 442 53 479 q 67 516 95 538 q 123 560 162 560 l 162 560 q 202 560 231 535 q 259 509 269 448 l 269 448 l 262 448 q 272 506 300 533 q 328 560 367 560 z"},"൘":{"ha":863,"x_min":41,"x_max":816,"o":"m 430 -12 l 430 -12 q 382 -12 351 19 q 319 49 307 121 l 307 121 l 317 114 q 307 50 277 19 q 246 -12 198 -12 l 198 -12 q 150 -12 114 21 q 78 53 60 112 q 41 170 41 245 l 41 245 q 41 324 57 380 q 72 436 97 478 q 122 519 148 554 l 148 554 l 178 531 q 151 497 128 457 q 105 416 92 365 q 79 314 79 246 l 79 246 q 79 184 93 133 q 107 82 134 53 q 160 23 198 23 l 198 23 q 218 23 233 30 q 248 37 259 50 l 259 50 q 280 74 287 112 q 294 150 294 212 l 294 212 l 294 548 l 331 548 l 331 214 q 331 150 339 111 q 347 71 368 48 l 368 48 q 378 36 395 30 q 411 23 430 23 l 430 23 q 451 23 467 30 q 483 36 493 48 l 493 48 q 514 71 522 110 q 529 148 529 213 l 529 213 l 529 548 l 566 548 l 566 233 l 553 121 q 543 49 511 19 q 479 -12 430 -12 z m 664 -12 l 664 -12 q 618 -12 587 18 q 555 48 544 114 l 544 114 l 537 222 l 537 538 l 566 538 l 566 214 q 566 152 574 115 q 581 78 600 54 l 600 54 q 611 39 627 31 q 642 23 663 23 l 663 23 q 701 23 727 53 q 753 83 766 148 q 778 213 778 315 l 778 315 q 778 411 766 489 q 753 566 728 626 q 703 686 664 727 q 624 767 571 788 q 518 808 449 808 l 449 808 q 406 808 365 804 q 324 799 279 788 l 279 788 l 273 822 q 299 829 327 834 q 355 838 386 841 q 416 843 449 843 l 449 843 q 526 843 586 820 q 645 797 689 753 q 733 709 761 645 q 789 581 803 498 q 816 415 816 315 l 816 315 q 816 195 798 123 q 780 51 746 20 q 711 -12 664 -12 z"},"൙":{"ha":777,"x_min":41,"x_max":756,"o":"m 257 560 l 257 560 q 313 560 355 537 q 397 513 426 470 q 454 426 468 365 q 482 304 482 229 l 482 229 q 482 134 465 82 q 447 29 417 9 q 386 -12 346 -12 l 346 -12 q 304 -12 277 8 q 250 28 238 61 q 225 93 225 130 l 225 130 q 225 173 239 206 q 253 238 279 260 l 279 260 q 299 277 326 288 q 352 298 386 303 q 420 308 461 308 l 461 308 l 499 308 l 499 274 l 461 274 q 408 274 371 266 q 334 258 307 236 l 307 236 q 286 220 274 194 q 262 167 262 132 l 262 132 q 262 82 283 52 q 304 22 345 22 l 345 22 q 378 22 400 42 q 422 61 434 106 q 445 151 445 228 l 445 228 q 445 245 445 261 q 445 276 443 289 l 443 289 l 442 298 q 436 370 413 421 q 389 472 351 499 q 312 525 258 525 l 258 525 q 198 525 158 493 q 118 461 99 408 q 79 354 79 289 l 79 289 q 79 223 93 173 q 107 123 131 86 q 154 49 181 19 l 181 19 l 155 -6 q 129 22 103 61 q 76 100 59 157 q 41 213 41 290 l 41 290 q 41 346 55 395 q 68 443 96 481 q 123 518 164 539 q 204 560 257 560 z m 649 548 l 649 548 q 683 548 707 531 q 731 514 744 486 q 756 457 756 420 l 756 420 q 756 385 746 356 q 735 326 713 309 l 713 309 q 699 296 682 289 q 664 281 642 278 q 619 274 590 274 l 590 274 l 485 274 l 486 308 l 592 308 q 633 308 655 315 q 676 322 691 335 l 691 335 q 706 349 713 371 q 719 393 719 420 l 719 420 q 719 461 702 488 q 684 514 650 514 l 650 514 q 615 514 595 488 q 575 462 575 412 l 575 412 q 575 376 586 345 q 597 314 613 287 l 613 287 l 577 283 q 561 309 550 344 q 538 379 538 418 l 538 418 q 538 459 553 488 q 567 516 593 532 q 618 548 649 548 z"},"൚":{"ha":764,"x_min":41,"x_max":709,"o":"m 507 560 l 507 560 q 556 560 593 544 q 629 528 652 501 l 652 501 q 673 476 686 444 q 698 411 704 371 q 709 331 709 280 l 709 280 l 709 0 l 348 0 l 348 34 q 403 92 448 155 q 493 218 520 283 q 547 347 547 408 l 547 408 q 547 439 540 465 q 533 491 517 506 q 501 521 472 521 l 472 521 q 447 521 426 509 q 404 497 388 474 l 388 474 q 365 443 354 396 q 343 348 343 275 l 343 275 l 343 230 l 306 230 l 306 333 q 306 397 298 436 q 289 475 268 498 l 268 498 q 257 511 242 518 q 226 525 205 525 l 205 525 q 166 525 138 496 q 109 466 94 416 q 79 365 79 302 l 79 302 q 79 234 93 183 q 106 131 129 91 q 151 51 178 17 l 178 17 l 148 -6 q 122 29 97 71 q 72 112 57 169 q 41 225 41 303 l 41 303 q 41 379 61 437 q 81 494 118 527 q 155 560 205 560 l 205 560 q 248 560 274 540 q 300 519 315 482 q 330 445 337 394 l 337 394 l 319 391 q 328 443 351 481 q 374 518 413 539 q 452 560 507 560 z m 585 407 l 585 407 q 585 340 558 275 q 531 209 485 146 q 439 82 381 18 l 381 18 l 381 32 q 403 34 436 34 q 468 34 494 34 l 494 34 l 672 34 l 672 271 q 672 352 658 408 q 643 463 610 494 q 577 525 521 528 l 521 528 l 521 531 q 555 516 570 484 q 585 451 585 407 z"},"൛":{"ha":691,"x_min":64,"x_max":650,"o":"m 448 -12 l 448 -12 q 400 -12 363 8 q 326 28 301 65 q 276 101 264 150 q 251 199 251 256 l 251 256 q 251 331 267 384 q 283 437 306 473 q 329 508 349 528 l 349 528 l 347 514 l 101 514 l 101 0 l 64 0 l 64 548 l 367 548 l 384 520 q 365 499 343 465 q 320 430 305 380 q 289 329 289 259 l 289 259 q 289 189 308 136 q 326 82 362 53 q 397 23 449 23 l 449 23 q 502 23 539 55 q 575 86 594 140 q 612 193 612 258 l 612 258 q 612 325 598 375 q 584 424 561 462 q 538 499 509 529 l 509 529 l 536 554 q 563 527 589 487 q 615 447 633 391 q 650 335 650 257 l 650 257 q 650 200 637 151 q 624 102 598 66 q 571 29 534 9 q 497 -12 448 -12 z"},"൜":{"ha":1091,"x_min":41,"x_max":1050,"o":"m 659 560 l 659 560 q 689 560 713 549 q 736 538 752 521 l 752 521 q 768 503 777 480 q 785 456 788 426 q 791 396 791 357 l 791 357 l 791 215 q 791 149 799 111 q 806 72 825 49 l 825 49 q 837 36 853 30 q 868 23 890 23 l 890 23 q 932 23 959 52 q 986 80 999 131 q 1012 181 1012 245 l 1012 245 q 1012 313 999 365 q 986 417 964 458 q 941 498 913 532 l 913 532 l 943 556 q 969 520 994 478 q 1019 436 1035 380 q 1050 324 1050 245 l 1050 245 q 1050 166 1032 109 q 1013 51 977 20 q 940 -12 889 -12 l 889 -12 q 859 -12 836 -1 q 812 9 797 26 l 797 26 q 779 46 770 72 q 760 98 757 131 q 754 163 754 200 l 754 200 l 754 353 q 754 406 749 442 q 743 477 724 498 l 724 498 q 713 512 696 519 q 679 525 659 525 l 659 525 q 639 525 622 519 q 605 512 594 498 l 594 498 q 575 477 570 442 q 564 406 564 353 l 564 353 l 564 191 q 564 153 561 123 q 558 92 550 69 q 541 45 525 27 l 525 27 q 509 10 486 -1 q 462 -12 432 -12 l 432 -12 q 402 -12 379 -1 q 355 10 339 27 l 339 27 q 323 45 315 69 q 306 93 303 124 q 300 154 300 190 l 300 190 l 300 332 q 300 399 293 438 q 286 476 266 499 l 266 499 q 254 511 239 518 q 224 525 201 525 l 201 525 q 160 525 133 497 q 106 468 93 418 q 79 367 79 303 l 79 303 q 79 235 93 183 q 106 131 129 91 q 151 50 178 16 l 178 16 l 149 -8 q 122 28 97 70 q 72 111 57 168 q 41 224 41 303 l 41 303 q 41 382 60 440 q 78 497 115 529 q 151 560 203 560 l 203 560 q 234 560 257 550 q 279 539 294 522 l 294 522 q 312 502 322 476 q 331 449 334 417 q 337 384 337 344 l 337 344 l 337 195 q 337 142 343 107 q 348 71 367 50 l 367 50 q 378 37 395 30 q 412 23 432 23 l 432 23 q 452 23 469 30 q 486 37 497 50 l 497 50 q 516 71 522 107 q 527 142 527 195 l 527 195 l 527 356 q 527 394 530 425 q 533 456 542 480 q 550 503 566 521 l 566 521 q 582 538 606 549 q 629 560 659 560 z"},"൝":{"ha":1471,"x_min":10,"x_max":1431,"o":"m 585 560 l 585 560 q 615 560 639 549 q 662 538 678 521 l 678 521 q 694 503 703 480 q 711 456 714 426 q 717 396 717 357 l 717 357 l 717 195 q 717 142 723 107 q 728 71 747 50 l 747 50 q 759 37 776 30 q 792 23 812 23 l 812 23 q 832 23 849 30 q 866 37 877 50 l 877 50 q 896 71 902 107 q 907 142 907 195 l 907 195 l 907 356 q 907 394 910 425 q 913 456 922 480 q 930 503 946 521 l 946 521 q 962 538 986 549 q 1009 560 1040 560 l 1040 560 q 1069 560 1093 549 q 1116 538 1132 521 l 1132 521 q 1148 503 1157 480 q 1165 456 1168 426 q 1171 396 1171 357 l 1171 357 l 1171 215 q 1171 149 1179 111 q 1186 72 1206 49 l 1206 49 q 1217 36 1233 30 q 1248 23 1270 23 l 1270 23 q 1312 23 1339 52 q 1366 80 1379 131 q 1392 181 1392 245 l 1392 245 q 1392 313 1379 365 q 1366 417 1344 458 q 1321 498 1294 532 l 1294 532 l 1323 556 q 1349 520 1374 478 q 1399 436 1415 380 q 1431 324 1431 245 l 1431 245 q 1431 166 1412 109 q 1393 51 1357 20 q 1321 -12 1270 -12 l 1270 -12 q 1239 -12 1216 -1 q 1192 9 1177 26 l 1177 26 q 1159 46 1150 72 q 1141 98 1138 131 q 1134 163 1134 200 l 1134 200 l 1134 353 q 1134 406 1129 442 q 1123 477 1104 498 l 1104 498 q 1093 512 1077 519 q 1060 525 1039 525 l 1039 525 q 1019 525 1003 519 q 986 512 974 498 l 974 498 q 955 477 950 442 q 944 406 944 353 l 944 353 l 944 191 q 944 153 941 123 q 938 92 930 69 q 921 45 905 27 l 905 27 q 889 10 866 -1 q 842 -12 812 -12 l 812 -12 q 782 -12 759 -1 q 735 10 719 27 l 719 27 q 703 45 695 69 q 686 93 683 124 q 680 154 680 190 l 680 190 l 680 353 q 680 406 675 442 q 669 477 650 498 l 650 498 q 639 512 622 519 q 605 525 585 525 l 585 525 q 565 525 549 519 q 532 512 520 498 l 520 498 q 501 477 496 442 q 490 406 490 353 l 490 353 l 490 196 q 490 127 482 90 q 473 53 448 26 l 448 26 q 433 10 410 -1 q 386 -12 356 -12 l 356 -12 q 304 -12 273 19 q 242 50 233 121 l 233 121 l 241 114 q 233 73 217 45 q 200 16 174 2 q 148 -12 111 -12 l 111 -12 q 86 -12 60 -6 q 33 0 10 12 l 10 12 l 24 43 q 44 33 66 28 q 87 23 111 23 l 111 23 q 137 23 153 30 q 169 37 181 50 l 181 50 q 202 72 211 111 q 220 149 220 213 l 220 213 l 220 548 l 257 548 l 257 211 q 257 151 264 112 q 270 72 289 50 l 289 50 q 300 36 316 30 q 332 23 354 23 l 354 23 q 376 23 392 30 q 408 36 420 49 l 420 49 q 440 71 447 108 q 453 144 453 204 l 453 204 l 453 356 q 453 394 456 425 q 459 456 468 480 q 476 503 492 521 l 492 521 q 508 538 532 549 q 555 560 585 560 z"},"൞":{"ha":957,"x_min":41,"x_max":925,"o":"m 257 560 l 257 560 q 313 560 355 537 q 397 513 426 470 q 454 426 468 365 q 482 304 482 229 l 482 229 q 482 134 465 82 q 447 29 417 9 q 386 -12 346 -12 l 346 -12 q 304 -12 277 8 q 250 28 238 61 q 225 93 225 130 l 225 130 q 225 173 239 206 q 253 238 279 260 l 279 260 q 299 277 326 288 q 352 298 386 303 q 420 308 461 308 l 461 308 l 469 308 l 469 274 l 461 274 q 408 274 371 266 q 334 258 307 236 l 307 236 q 286 220 274 194 q 262 167 262 132 l 262 132 q 262 82 283 52 q 304 22 345 22 l 345 22 q 378 22 400 42 q 422 61 434 106 q 445 151 445 228 l 445 228 q 445 245 445 261 q 445 276 443 289 l 443 289 l 442 298 q 436 370 413 421 q 389 472 351 499 q 312 525 258 525 l 258 525 q 198 525 158 493 q 118 461 99 408 q 79 354 79 289 l 79 289 q 79 223 93 173 q 107 123 131 86 q 154 49 181 19 l 181 19 l 155 -6 q 129 22 103 61 q 76 100 59 157 q 41 213 41 290 l 41 290 q 41 346 55 395 q 68 443 96 481 q 123 518 164 539 q 204 560 257 560 z m 795 217 l 795 217 q 755 217 726 236 q 696 255 680 291 q 664 326 664 375 l 664 375 q 664 422 680 462 q 696 502 719 528 l 719 528 l 719 514 l 547 514 l 561 525 q 579 499 592 470 q 605 440 605 403 l 605 403 q 605 352 585 324 q 564 295 531 285 q 498 274 461 274 l 461 274 l 454 274 l 454 308 l 458 308 q 486 308 511 314 q 536 320 552 340 q 568 360 568 402 l 568 402 q 568 436 556 464 q 543 491 527 514 l 527 514 l 539 548 l 734 548 l 752 522 q 729 493 715 456 q 701 419 701 378 l 701 378 q 701 313 727 282 q 753 251 794 251 l 794 251 q 825 251 846 267 q 866 282 877 310 q 888 338 888 375 l 888 375 q 888 426 870 465 q 852 503 828 533 l 828 533 l 856 555 q 884 520 905 477 q 925 433 925 374 l 925 374 q 925 326 909 291 q 892 256 863 237 q 833 217 795 217 z"},"ൟ":{"ha":947,"x_min":26,"x_max":921,"o":"m 26 265 l 26 265 q 26 325 52 358 q 78 390 120 390 l 120 390 q 161 390 188 358 q 214 325 214 265 l 214 265 q 214 204 188 172 q 162 140 120 140 l 120 140 q 78 140 52 172 q 26 204 26 265 z m 61 265 l 61 265 q 61 219 77 196 q 92 172 120 172 l 120 172 q 148 172 164 196 q 179 219 179 265 l 179 265 q 179 311 163 335 q 147 358 120 358 l 120 358 q 92 358 77 335 q 61 311 61 265 z m 733 265 l 733 265 q 733 325 760 358 q 786 390 827 390 l 827 390 q 869 390 895 358 q 921 325 921 265 l 921 265 q 921 204 895 172 q 869 140 827 140 l 827 140 q 785 140 759 172 q 733 204 733 265 z m 768 265 l 768 265 q 768 219 784 196 q 799 172 827 172 l 827 172 q 855 172 871 196 q 887 219 887 265 l 887 265 q 887 311 871 335 q 855 358 827 358 l 827 358 q 800 358 784 335 q 768 311 768 265 z m 469 560 l 469 560 q 525 560 567 537 q 609 514 638 471 q 666 428 680 369 q 694 309 694 237 l 694 237 q 694 141 677 87 q 659 32 629 10 q 599 -12 559 -12 l 559 -12 q 514 -12 485 13 q 456 37 443 83 q 429 129 429 191 l 429 191 q 429 290 465 337 q 501 384 559 384 l 559 384 q 591 384 614 372 q 637 359 654 338 q 671 316 683 289 l 683 289 l 673 267 q 662 288 648 307 q 633 326 613 339 q 593 351 564 351 l 564 351 q 514 351 490 310 q 466 269 466 190 l 466 190 q 466 138 476 100 q 485 62 506 42 q 526 22 560 22 l 560 22 q 590 22 612 42 q 634 62 646 109 q 658 156 658 238 l 658 238 q 658 252 657 274 q 656 296 654 307 l 654 307 q 655 309 656 312 q 656 314 655 318 l 655 318 q 646 372 626 419 q 605 466 568 496 q 530 525 470 525 l 470 525 q 410 525 370 493 q 330 461 311 408 q 291 354 291 289 l 291 289 q 291 223 305 173 q 319 123 343 86 q 366 49 393 19 l 393 19 l 367 -6 q 341 22 315 61 q 288 100 271 157 q 253 213 253 290 l 253 290 q 253 347 267 396 q 281 444 308 481 q 335 518 376 539 q 416 560 469 560 z"},"ൠ":{"ha":633,"x_min":39,"x_max":594,"o":"m 471 560 l 471 560 q 530 560 562 510 q 594 459 594 364 l 594 364 q 594 312 583 271 q 572 229 550 197 l 550 197 q 521 155 473 132 q 424 108 358 106 l 358 106 l 329 105 l 303 105 l 277 106 q 210 107 161 131 q 112 154 83 197 l 83 197 q 61 229 50 270 q 39 311 39 362 l 39 362 q 39 424 54 468 q 69 512 98 536 q 127 560 167 560 l 167 560 q 203 560 227 541 q 251 522 263 490 q 275 458 275 416 l 275 416 q 275 371 262 339 q 249 306 224 289 q 198 271 160 271 l 160 271 q 138 271 119 279 q 100 286 83 299 q 66 312 50 329 l 50 329 l 61 359 q 74 343 89 331 q 103 318 120 312 q 136 305 156 305 l 156 305 q 197 305 218 333 q 238 360 238 417 l 238 417 q 238 467 220 497 q 201 526 166 526 l 166 526 q 135 526 115 506 q 94 485 84 449 q 74 412 74 362 l 74 362 q 74 353 75 343 q 75 333 76 323 l 76 323 l 77 310 q 84 262 105 228 q 125 193 156 172 q 187 150 227 140 q 266 129 310 129 l 310 129 l 323 129 q 367 129 407 140 q 446 150 477 172 q 508 193 529 228 q 549 262 556 310 l 556 310 l 556 324 q 558 332 559 343 q 559 354 559 364 l 559 364 q 559 415 550 451 q 540 487 521 507 q 502 526 471 526 l 471 526 q 434 526 415 494 q 395 462 395 411 l 395 411 q 395 358 415 332 q 434 305 473 305 l 473 305 q 495 305 512 312 q 529 318 543 330 q 557 342 571 358 l 571 358 l 582 328 q 567 312 550 299 q 533 286 513 279 q 493 271 470 271 l 470 271 q 433 271 408 289 q 383 306 371 338 q 358 370 358 411 l 358 411 q 358 454 371 488 q 384 521 410 541 q 435 560 471 560 z m 316 -205 l 316 -205 q 230 -205 174 -186 q 117 -167 90 -129 q 62 -92 62 -38 l 62 -38 q 62 4 79 34 q 96 63 126 82 q 156 101 196 110 q 235 118 280 118 l 280 118 l 352 118 q 398 118 438 110 q 477 101 507 83 q 536 64 554 35 q 571 5 571 -37 l 571 -37 q 571 -91 544 -128 q 517 -166 461 -185 q 404 -205 316 -205 z m 317 -171 l 317 -171 q 392 -171 439 -156 q 486 -141 510 -111 q 533 -81 533 -37 l 533 -37 q 533 -3 520 22 q 506 46 479 63 q 452 80 412 88 q 372 96 320 96 l 320 96 l 313 96 q 244 96 197 82 q 149 67 125 38 q 100 8 100 -37 l 100 -37 q 100 -82 123 -111 q 145 -141 193 -156 q 241 -171 317 -171 z m 375 36 l 375 36 q 396 36 410 27 q 423 18 431 4 q 439 -11 443 -28 q 446 -46 446 -65 l 446 -65 l 446 -101 l 414 -101 l 414 -72 q 414 -32 404 -15 q 394 2 373 2 l 373 2 q 353 2 343 -17 q 332 -37 332 -72 l 332 -72 l 332 -101 l 300 -101 l 300 -72 q 300 -37 290 -17 q 280 2 259 2 l 259 2 q 238 2 228 -15 q 218 -32 218 -72 l 218 -72 l 218 -101 l 186 -101 l 186 -64 q 186 -46 190 -28 q 193 -10 201 4 q 209 18 223 27 q 236 36 257 36 l 257 36 q 278 36 293 23 q 308 10 316 -13 l 316 -13 q 325 11 341 24 q 356 36 375 36 z"},"ൡ":{"ha":918,"x_min":43,"x_max":892,"o":"m 252 560 l 252 560 q 317 560 353 525 q 388 490 401 425 l 401 425 l 406 380 l 414 289 l 414 0 l 377 0 l 377 325 q 377 392 368 432 q 359 472 334 496 l 334 496 q 320 510 300 518 q 280 525 252 525 l 252 525 q 200 525 161 489 q 122 453 101 389 q 79 325 79 240 l 79 240 l 79 222 q 79 147 90 104 q 101 60 122 41 q 143 22 172 22 l 172 22 q 192 22 209 34 q 226 45 236 74 q 245 102 245 152 l 245 152 q 245 211 226 242 q 207 273 167 273 l 167 273 q 135 273 111 257 q 87 240 64 210 l 64 210 l 52 239 q 82 274 111 291 q 139 307 171 307 l 171 307 q 203 307 229 291 q 254 275 269 241 q 283 206 283 153 l 283 153 q 283 92 268 56 q 253 20 229 4 q 204 -12 172 -12 l 172 -12 q 135 -12 106 10 q 77 31 60 83 q 43 135 43 228 l 43 228 q 43 337 70 411 q 97 484 144 522 q 191 560 252 560 z m 547 560 l 547 560 q 614 560 657 528 q 699 496 723 445 q 747 394 755 336 l 755 336 q 760 308 762 280 q 764 251 764 225 l 764 225 q 764 136 746 84 q 728 32 697 10 q 666 -12 626 -12 l 626 -12 q 582 -12 555 12 q 527 36 516 76 q 504 115 504 161 l 504 161 q 504 259 554 311 q 603 362 686 362 l 686 362 q 697 362 708 361 q 718 359 728 357 l 728 357 l 741 355 q 792 341 826 301 q 859 261 876 205 q 892 148 892 85 l 892 85 q 892 17 877 -36 q 862 -90 833 -126 q 803 -163 760 -182 q 716 -201 659 -201 l 659 -201 q 634 -201 610 -197 q 586 -194 560 -186 l 560 -186 l 571 -153 q 591 -159 613 -162 q 634 -166 659 -166 l 659 -166 q 711 -166 749 -148 q 786 -130 810 -97 q 833 -64 844 -17 q 854 29 854 87 l 854 87 q 854 135 844 182 q 833 229 810 266 q 786 302 747 318 l 747 318 l 732 322 q 721 324 711 326 q 700 328 690 328 l 690 328 q 646 328 613 312 q 579 295 560 259 q 541 222 541 162 l 541 162 q 541 125 549 93 q 556 61 575 42 q 593 22 627 22 l 627 22 q 677 22 702 72 q 727 121 727 226 l 727 226 q 727 252 726 280 q 724 308 719 336 l 719 336 l 717 349 q 708 395 688 436 q 668 476 634 501 q 600 525 547 525 l 547 525 q 520 525 499 518 q 477 510 461 496 l 461 496 q 446 482 436 461 q 425 439 420 408 q 414 377 414 333 l 414 333 l 414 251 l 388 401 q 395 455 416 491 q 437 526 471 543 q 504 560 547 560 z"},"ൢ":{"ha":0,"x_min":-556,"x_max":-38,"o":"m -407 4 l -407 4 q -358 4 -330 -23 q -303 -50 -292 -100 l -292 -100 l -283 -149 l -283 -332 l -317 -332 l -317 -163 q -317 -126 -323 -96 q -329 -66 -346 -48 l -346 -48 q -356 -37 -370 -31 q -385 -26 -406 -26 l -406 -26 q -436 -26 -460 -41 q -484 -57 -499 -84 q -515 -112 -520 -152 l -520 -152 q -521 -159 -521 -167 q -522 -176 -522 -183 l -522 -183 q -522 -245 -507 -275 q -493 -305 -466 -305 l -466 -305 q -437 -305 -425 -282 q -413 -260 -413 -224 l -413 -224 q -413 -181 -427 -162 q -441 -143 -465 -143 l -465 -143 q -485 -143 -502 -152 q -519 -162 -536 -181 l -536 -181 l -544 -154 q -525 -135 -504 -123 q -484 -112 -461 -112 l -461 -112 q -424 -112 -401 -139 q -379 -167 -379 -224 l -379 -224 q -379 -275 -401 -306 q -423 -337 -466 -337 l -466 -337 q -510 -337 -533 -295 q -556 -253 -556 -184 l -556 -184 q -556 -127 -537 -85 q -518 -43 -484 -19 q -451 4 -407 4 z m -182 4 l -182 4 q -131 4 -99 -20 q -68 -45 -53 -88 q -38 -131 -38 -186 l -38 -186 q -38 -271 -64 -304 q -90 -337 -130 -337 l -130 -337 q -160 -337 -180 -321 q -201 -305 -211 -279 q -221 -253 -221 -219 l -221 -219 q -221 -180 -209 -153 q -197 -127 -175 -113 q -154 -99 -127 -99 l -127 -99 q -106 -99 -90 -108 q -75 -118 -63 -133 q -51 -148 -44 -166 l -44 -166 l -53 -183 q -66 -159 -82 -144 q -98 -130 -122 -130 l -122 -130 q -154 -130 -170 -153 q -187 -177 -187 -220 l -187 -220 q -187 -256 -174 -280 q -161 -305 -130 -305 l -130 -305 q -100 -305 -85 -276 q -71 -247 -71 -187 l -71 -187 q -71 -173 -71 -161 q -72 -149 -73 -141 l -73 -141 l -74 -132 q -78 -106 -90 -81 q -102 -57 -124 -41 q -146 -26 -182 -26 l -182 -26 q -205 -26 -222 -33 q -239 -41 -251 -54 l -251 -54 q -268 -74 -275 -102 q -283 -130 -283 -176 l -283 -176 l -308 -133 q -305 -93 -290 -62 q -276 -32 -249 -14 q -222 4 -182 4 z"},"ൣ":{"ha":0,"x_min":-556,"x_max":48,"o":"m -407 4 l -407 4 q -358 4 -330 -23 q -303 -50 -292 -100 l -292 -100 l -283 -149 l -283 -332 l -317 -332 l -317 -163 q -317 -126 -323 -96 q -329 -66 -346 -48 l -346 -48 q -356 -37 -370 -31 q -385 -26 -406 -26 l -406 -26 q -436 -26 -460 -41 q -484 -57 -499 -84 q -515 -112 -520 -152 l -520 -152 q -521 -159 -521 -167 q -522 -176 -522 -183 l -522 -183 q -522 -245 -507 -275 q -493 -305 -466 -305 l -466 -305 q -437 -305 -425 -282 q -413 -260 -413 -224 l -413 -224 q -413 -181 -427 -162 q -441 -143 -465 -143 l -465 -143 q -485 -143 -502 -152 q -519 -162 -536 -181 l -536 -181 l -544 -154 q -525 -135 -504 -123 q -484 -112 -461 -112 l -461 -112 q -424 -112 -401 -139 q -379 -167 -379 -224 l -379 -224 q -379 -275 -401 -306 q -423 -337 -466 -337 l -466 -337 q -510 -337 -533 -295 q -556 -253 -556 -184 l -556 -184 q -556 -127 -537 -85 q -518 -43 -484 -19 q -451 4 -407 4 z m -182 4 l -182 4 q -133 4 -101 -22 q -70 -48 -55 -91 q -41 -134 -41 -184 l -41 -184 q -41 -242 -52 -275 q -64 -309 -85 -323 q -106 -337 -134 -337 l -134 -337 q -161 -337 -180 -322 q -200 -308 -210 -283 q -221 -259 -221 -231 l -221 -231 q -221 -164 -186 -131 q -151 -98 -97 -98 l -97 -98 q -89 -98 -80 -98 q -71 -99 -63 -101 l -63 -101 q -24 -109 1 -132 q 25 -156 37 -189 q 49 -222 49 -261 l 49 -261 q 49 -291 43 -317 q 37 -343 26 -364 l 26 -364 l -4 -352 q 4 -332 9 -310 q 14 -288 14 -263 l 14 -263 q 14 -218 -1 -183 q -16 -149 -54 -135 l -54 -135 l -67 -132 q -74 -130 -81 -129 q -89 -129 -97 -129 l -97 -129 q -140 -129 -163 -154 q -187 -180 -187 -232 l -187 -232 q -187 -259 -174 -282 q -162 -305 -133 -305 l -133 -305 q -103 -305 -88 -277 q -74 -250 -74 -185 l -74 -185 q -74 -168 -75 -151 q -77 -134 -82 -117 l -82 -117 l -84 -106 q -91 -84 -104 -66 q -117 -48 -136 -37 q -155 -26 -182 -26 l -182 -26 q -205 -26 -222 -33 q -239 -41 -251 -54 l -251 -54 q -268 -74 -275 -102 q -283 -130 -283 -176 l -283 -176 l -308 -133 q -306 -103 -297 -78 q -289 -53 -273 -35 q -258 -17 -235 -6 q -212 4 -182 4 z"},"൦":{"ha":421,"x_min":43,"x_max":378,"o":"m 210 48 l 210 48 q 160 48 122 75 q 84 101 64 154 q 43 206 43 282 l 43 282 q 43 359 64 411 q 84 462 122 489 q 160 515 210 515 l 210 515 q 261 515 299 489 q 337 462 358 411 q 378 359 378 282 l 378 282 q 378 206 358 154 q 337 101 299 75 q 261 48 210 48 z m 210 82 l 210 82 q 249 82 278 103 q 307 124 324 169 q 340 213 340 282 l 340 282 q 340 385 304 433 q 268 481 210 481 l 210 481 q 153 481 117 433 q 81 385 81 281 l 81 281 q 81 178 117 130 q 153 82 210 82 z"},"൧":{"ha":647,"x_min":13,"x_max":587,"o":"m 284 -166 l 284 -201 l 186 -201 q 140 -201 109 -194 q 78 -187 55 -170 l 55 -170 q 34 -156 24 -134 q 13 -112 13 -83 l 13 -83 q 13 -57 21 -37 q 29 -17 45 -3 l 45 -3 q 59 10 77 18 q 95 26 123 30 q 150 34 189 34 l 189 34 l 291 34 l 290 0 l 194 0 q 146 0 118 -5 q 89 -10 72 -26 l 72 -26 q 62 -36 56 -50 q 50 -64 50 -82 l 50 -82 q 50 -121 78 -143 l 78 -143 q 94 -155 121 -160 q 148 -166 192 -166 l 192 -166 l 284 -166 z m 427 560 l 427 560 q 461 560 487 550 q 512 540 529 525 l 529 525 q 566 492 577 445 q 587 398 587 334 l 587 334 l 587 0 l 263 0 l 263 339 q 263 379 268 413 q 272 446 285 474 q 297 502 321 523 l 321 523 q 339 539 366 550 q 392 560 427 560 z m 427 525 l 427 525 q 399 525 378 517 q 356 508 341 494 l 341 494 q 314 466 307 423 q 299 379 299 325 l 299 325 l 299 34 l 550 34 l 550 327 q 550 380 543 425 q 536 470 507 496 l 507 496 q 493 510 474 518 q 454 525 427 525 z"},"൨":{"ha":618,"x_min":41,"x_max":601,"o":"m 243 560 l 243 560 q 291 560 328 540 q 365 519 390 483 q 415 447 428 398 q 440 349 440 291 l 440 291 q 440 218 424 165 q 407 111 385 76 q 362 41 342 20 l 342 20 l 344 34 l 601 34 l 601 0 l 324 0 l 307 28 q 327 50 349 84 q 371 118 387 169 q 402 219 402 289 l 402 289 q 402 359 384 413 q 365 466 330 496 q 294 525 242 525 l 242 525 q 189 525 153 494 q 116 462 98 409 q 79 355 79 289 l 79 289 q 79 223 93 173 q 107 123 131 86 q 154 49 181 19 l 181 19 l 155 -6 q 129 22 103 61 q 76 100 59 157 q 41 213 41 290 l 41 290 q 41 348 54 397 q 67 446 93 482 q 119 518 157 539 q 195 560 243 560 z"},"൩":{"ha":781,"x_min":41,"x_max":764,"o":"m 205 560 l 205 560 q 239 560 264 546 q 288 532 305 504 q 321 476 329 433 l 329 433 l 321 434 q 335 501 366 531 q 397 560 447 560 l 447 560 q 497 560 533 527 q 569 494 589 436 q 608 378 608 303 l 608 303 q 608 229 594 177 q 580 124 560 88 q 540 51 521 24 l 521 24 l 520 0 l 498 0 l 481 26 q 504 59 525 97 q 545 135 558 185 q 570 235 570 303 l 570 303 q 570 364 556 415 q 541 465 514 495 q 486 525 447 525 l 447 525 q 425 525 410 519 q 394 512 382 498 l 382 498 q 361 476 352 437 q 343 398 343 335 l 343 335 l 343 0 l 306 0 l 306 333 q 306 397 298 436 q 289 475 268 498 l 268 498 q 257 511 242 518 q 226 525 205 525 l 205 525 q 166 525 138 496 q 109 466 94 416 q 79 365 79 302 l 79 302 q 79 234 93 183 q 106 131 129 91 q 151 51 178 17 l 178 17 l 148 -6 q 122 29 97 71 q 72 112 57 168 q 41 224 41 302 l 41 302 q 41 378 61 436 q 81 494 118 527 q 155 560 205 560 z m 509 0 l 520 34 l 764 34 l 764 0 l 509 0 z"},"൪":{"ha":556,"x_min":41,"x_max":551,"o":"m 259 560 l 259 560 q 315 560 356 534 q 396 508 425 467 l 425 467 q 462 415 479 348 q 496 281 496 212 l 496 212 q 496 131 478 82 q 460 32 428 10 q 396 -12 355 -12 l 355 -12 q 309 -12 279 11 q 249 34 234 75 q 219 116 219 167 l 219 167 q 219 224 238 274 q 257 323 297 370 q 336 416 399 464 l 399 464 q 445 499 470 523 q 495 546 504 568 q 513 590 513 619 l 513 619 q 513 644 506 664 q 498 683 486 702 l 486 702 l 520 719 q 533 699 542 675 q 551 650 551 620 l 551 620 q 551 584 539 556 q 527 528 498 501 q 468 474 418 436 l 418 436 q 363 395 328 353 q 292 311 275 266 q 257 220 257 167 l 257 167 q 257 99 282 61 q 306 22 355 22 l 355 22 q 386 22 409 40 q 431 58 444 99 q 457 140 457 211 l 457 211 q 457 270 444 334 q 430 397 398 445 l 398 445 q 375 481 341 503 q 306 525 259 525 l 259 525 q 198 525 158 494 q 118 462 99 409 q 79 355 79 289 l 79 289 q 79 223 93 173 q 107 123 131 86 q 154 49 181 19 l 181 19 l 155 -6 q 129 22 103 61 q 76 100 59 157 q 41 213 41 290 l 41 290 q 41 347 55 396 q 68 444 96 481 q 124 518 165 539 q 205 560 259 560 z"},"൫":{"ha":700,"x_min":47,"x_max":653,"o":"m 360 723 l 360 723 q 434 723 489 691 q 544 658 581 600 q 617 542 635 466 q 653 389 653 301 l 653 301 q 653 215 640 139 q 627 63 600 -11 l 600 -11 l 566 2 q 583 48 594 97 q 604 145 610 197 q 615 248 615 301 l 615 301 q 615 382 600 452 q 585 522 554 575 q 523 628 475 658 q 426 688 360 688 l 360 688 q 281 688 219 642 q 157 596 121 500 q 85 404 85 255 l 85 255 q 85 167 98 94 q 111 21 139 -32 q 166 -85 208 -114 q 250 -143 307 -143 l 307 -143 q 386 -143 429 -95 q 471 -47 471 54 l 471 54 q 471 109 455 150 q 439 191 408 214 q 376 236 332 236 l 332 236 l 326 236 l 326 270 l 330 270 q 365 270 389 277 q 412 284 429 299 l 429 299 q 445 313 454 335 q 462 357 462 389 l 462 389 q 462 449 434 479 q 406 508 363 508 l 363 508 q 321 508 290 480 q 259 452 243 402 q 227 351 227 282 l 227 282 q 227 212 245 145 q 262 78 297 7 l 297 7 l 263 -7 q 228 68 209 136 q 189 203 189 284 l 189 284 q 189 360 210 419 q 231 477 271 510 q 310 543 364 543 l 364 543 q 404 543 435 525 q 465 506 483 472 q 500 438 500 392 l 500 392 q 500 355 488 325 q 476 295 451 276 q 425 256 383 249 l 383 249 l 384 255 q 441 243 475 189 q 509 134 509 53 l 509 53 q 509 -24 485 -75 q 460 -127 415 -152 q 369 -178 308 -178 l 308 -178 q 228 -178 170 -129 q 111 -80 79 17 q 47 113 47 254 l 47 254 q 47 377 72 466 q 96 554 140 611 q 183 668 240 696 q 296 723 360 723 z"},"൬":{"ha":865,"x_min":41,"x_max":818,"o":"m 430 560 l 430 560 q 479 560 511 529 q 543 498 553 427 l 553 427 l 566 314 l 566 0 l 529 0 l 529 334 q 529 399 522 438 q 514 477 493 499 l 493 499 q 483 511 467 518 q 451 525 430 525 l 430 525 q 411 525 395 518 q 378 511 368 499 l 368 499 q 347 476 339 437 q 331 398 331 334 l 331 334 l 331 0 l 294 0 l 294 336 q 294 397 287 436 q 280 474 259 498 l 259 498 q 248 511 233 518 q 218 525 198 525 l 198 525 q 160 525 134 495 q 107 465 93 415 q 79 364 79 302 l 79 302 q 79 234 92 183 q 105 131 128 91 q 151 51 178 17 l 178 17 l 148 -6 q 122 29 97 71 q 72 112 57 169 q 41 225 41 303 l 41 303 q 41 378 60 436 q 78 494 114 527 q 150 560 198 560 l 198 560 q 246 560 277 530 q 307 499 317 434 l 317 434 l 307 427 q 319 500 351 530 q 382 560 430 560 z m 664 560 l 664 560 q 737 560 778 478 q 818 396 818 225 l 818 225 q 818 86 794 -9 q 769 -104 713 -152 q 657 -201 563 -201 l 563 -201 q 545 -201 527 -199 q 508 -198 492 -194 l 492 -194 l 496 -159 q 512 -163 530 -164 q 548 -166 562 -166 l 562 -166 q 628 -166 670 -139 q 712 -112 736 -61 q 760 -11 770 62 q 780 134 780 225 l 780 225 q 780 324 767 391 q 753 457 727 491 q 701 525 663 525 l 663 525 q 642 525 627 517 q 611 509 600 494 l 600 494 q 581 470 574 433 q 566 396 566 334 l 566 334 l 566 10 l 537 10 l 537 325 l 544 434 q 555 500 587 530 q 618 560 664 560 z"},"൭":{"ha":532,"x_min":41,"x_max":487,"o":"m 267 560 l 267 560 q 322 560 364 536 q 405 511 433 465 q 460 418 474 352 q 487 286 487 202 l 487 202 q 487 115 474 42 q 460 -32 430 -86 q 400 -141 351 -171 q 301 -201 228 -201 l 228 -201 q 208 -201 187 -199 q 166 -198 145 -194 l 145 -194 l 149 -159 q 169 -163 188 -164 q 207 -166 228 -166 l 228 -166 q 293 -166 336 -138 q 378 -110 403 -60 q 428 -10 439 57 q 449 124 449 202 l 449 202 q 449 357 404 441 q 358 525 266 525 l 266 525 q 210 525 168 490 q 125 455 101 391 q 77 326 77 236 l 77 236 l 77 222 q 77 148 88 104 q 99 60 120 41 q 141 22 170 22 l 170 22 q 190 22 207 34 q 224 45 234 74 q 244 102 244 152 l 244 152 q 244 211 225 242 q 205 273 166 273 l 166 273 q 133 273 109 257 q 85 240 62 210 l 62 210 l 50 239 q 80 274 109 291 q 137 307 169 307 l 169 307 q 201 307 227 291 q 252 275 267 241 q 281 206 281 153 l 281 153 q 281 92 267 56 q 252 20 227 4 q 202 -12 170 -12 l 170 -12 q 134 -12 105 9 q 75 30 58 83 q 41 136 41 231 l 41 231 q 41 338 71 411 q 100 484 151 522 q 202 560 267 560 z"},"൮":{"ha":691,"x_min":41,"x_max":627,"o":"m 243 560 l 243 560 q 291 560 328 540 q 365 519 390 483 q 415 447 428 398 q 440 349 440 291 l 440 291 q 440 218 424 165 q 407 111 385 76 q 362 41 342 20 l 342 20 l 344 34 l 590 34 l 590 548 l 627 548 l 627 79 l 599 0 l 324 0 l 307 28 q 327 50 349 84 q 371 118 387 169 q 402 219 402 289 l 402 289 q 402 359 384 413 q 365 466 330 496 q 294 525 242 525 l 242 525 q 189 525 153 494 q 116 462 98 409 q 79 355 79 289 l 79 289 q 79 223 93 173 q 107 123 131 86 q 154 49 181 19 l 181 19 l 155 -6 q 129 22 103 61 q 76 100 59 157 q 41 213 41 290 l 41 290 q 41 348 54 397 q 67 446 93 482 q 119 518 157 539 q 195 560 243 560 z m 399 -201 l 399 -201 q 377 -201 354 -199 q 331 -197 311 -192 l 311 -192 l 316 -157 q 333 -161 355 -163 q 377 -166 399 -166 l 399 -166 q 457 -166 494 -151 q 530 -137 551 -111 q 571 -86 580 -52 q 588 -18 590 21 l 590 21 l 627 113 l 627 52 q 627 1 620 -38 q 613 -77 598 -106 q 583 -135 558 -155 l 558 -155 q 530 -178 491 -189 q 452 -201 399 -201 z"},"൯":{"ha":779,"x_min":41,"x_max":774,"o":"m 205 560 l 205 560 q 239 560 264 546 q 289 532 306 504 q 322 476 330 433 l 330 433 l 343 280 l 343 0 l 306 0 l 306 333 q 306 397 298 436 q 289 475 268 498 l 268 498 q 257 511 242 518 q 226 525 205 525 l 205 525 q 166 525 138 496 q 109 466 94 416 q 79 365 79 302 l 79 302 q 79 234 93 183 q 106 131 129 91 q 151 51 178 17 l 178 17 l 148 -6 q 122 29 97 71 q 72 112 57 168 q 41 224 41 302 l 41 302 q 41 378 61 436 q 81 494 118 527 q 155 560 205 560 z m 474 560 l 474 560 q 534 560 576 534 q 618 507 647 465 l 647 465 q 684 414 702 347 q 719 280 719 212 l 719 212 q 719 131 701 82 q 683 32 651 10 q 619 -12 578 -12 l 578 -12 q 532 -12 502 11 q 472 34 457 75 q 442 116 442 167 l 442 167 q 442 224 461 274 q 480 323 520 370 q 559 416 622 464 l 622 464 q 668 499 693 523 q 718 546 727 568 q 736 590 736 619 l 736 619 q 736 644 729 664 q 721 683 709 702 l 709 702 l 743 719 q 756 699 765 675 q 774 650 774 620 l 774 620 q 774 584 762 556 q 750 528 721 501 q 691 474 641 436 l 641 436 q 586 395 551 353 q 515 311 498 266 q 480 220 480 167 l 480 167 q 480 99 505 61 q 529 22 578 22 l 578 22 q 609 22 632 40 q 655 58 668 99 q 680 140 680 211 l 680 211 q 680 273 666 335 q 652 396 620 444 l 620 444 q 597 480 561 503 q 524 525 475 525 l 475 525 q 446 525 424 517 q 401 509 385 492 l 385 492 q 372 479 363 458 q 353 437 348 407 q 343 377 343 334 l 343 334 l 343 156 l 314 156 l 314 283 l 315 398 q 322 456 343 492 q 364 527 397 544 q 430 560 474 560 z"},"൰":{"ha":776,"x_min":-22,"x_max":735,"o":"m 187 548 l 224 548 l 224 121 l 222 81 q 222 5 215 -51 q 208 -108 175 -146 l 175 -146 q 155 -171 122 -186 q 88 -201 38 -201 l 38 -201 q 26 -201 11 -200 q -5 -199 -22 -195 l -22 -195 l -20 -160 q -8 -163 7 -164 q 21 -166 36 -166 l 36 -166 q 76 -166 102 -155 q 128 -144 146 -125 l 146 -125 q 171 -96 179 -50 q 187 -5 187 71 l 187 71 l 187 548 z m 571 -12 l 571 -12 q 523 -12 492 18 q 461 48 447 114 l 447 114 l 456 121 q 446 49 413 19 q 380 -12 328 -12 l 328 -12 q 293 -12 268 2 q 242 16 226 46 q 210 76 202 124 l 202 124 l 199 221 l 199 529 l 224 529 l 224 214 q 224 147 232 109 q 240 71 261 48 l 261 48 q 273 36 290 30 q 306 23 328 23 l 328 23 q 351 23 367 30 q 383 37 394 48 l 394 48 q 417 71 425 110 q 433 149 433 215 l 433 215 l 433 548 l 469 548 l 469 213 q 469 150 478 111 q 487 72 507 50 l 507 50 q 519 37 535 30 q 550 23 571 23 l 571 23 q 612 23 640 53 q 667 82 682 133 q 697 184 697 245 l 697 245 q 697 313 684 365 q 670 416 648 457 q 625 497 598 531 l 598 531 l 627 554 q 654 519 679 478 q 703 436 719 380 q 735 324 735 244 l 735 244 q 735 170 715 112 q 695 53 659 21 q 622 -12 571 -12 z"},"൱":{"ha":650,"x_min":41,"x_max":603,"o":"m 205 560 l 205 560 q 239 560 264 546 q 288 532 305 504 q 321 476 329 433 l 329 433 l 343 280 l 343 0 l 306 0 l 306 333 q 306 397 298 436 q 289 475 268 498 l 268 498 q 257 511 242 518 q 226 525 205 525 l 205 525 q 166 525 138 496 q 109 466 94 416 q 79 365 79 302 l 79 302 q 79 234 93 183 q 106 131 129 91 q 151 51 178 17 l 178 17 l 148 -6 q 122 29 97 71 q 72 112 57 168 q 41 224 41 302 l 41 302 q 41 378 61 436 q 81 494 118 527 q 155 560 205 560 z m 445 560 l 445 560 q 496 560 531 524 q 566 488 585 414 q 603 340 603 225 l 603 225 q 603 86 579 -9 q 554 -104 498 -152 q 442 -201 348 -201 l 348 -201 q 329 -201 311 -199 q 292 -198 274 -194 l 274 -194 l 278 -159 q 295 -163 314 -164 q 332 -166 347 -166 l 347 -166 q 413 -166 455 -139 q 497 -112 521 -61 q 545 -11 555 62 q 565 134 565 225 l 565 225 q 565 324 551 391 q 537 458 511 492 q 484 525 444 525 l 444 525 q 424 525 408 518 q 391 510 378 495 l 378 495 q 360 472 352 435 q 343 398 343 335 l 343 335 l 343 10 l 314 10 l 314 321 l 321 434 q 333 501 365 531 q 397 560 445 560 z"},"൲":{"ha":976,"x_min":41,"x_max":955,"o":"m 849 548 l 849 548 q 882 548 906 531 q 930 514 943 486 q 955 457 955 420 l 955 420 q 955 385 945 356 q 934 326 912 309 l 912 309 q 898 296 881 289 q 863 281 841 278 q 818 274 789 274 l 789 274 l 682 274 l 683 308 l 791 308 q 832 308 854 315 q 875 322 890 335 l 890 335 q 905 349 912 371 q 918 393 918 420 l 918 420 q 918 461 901 488 q 883 514 849 514 l 849 514 q 814 514 794 488 q 774 462 774 412 l 774 412 q 774 376 785 345 q 796 314 812 287 l 812 287 l 776 283 q 760 309 749 344 q 737 379 737 418 l 737 418 q 737 459 752 488 q 766 516 792 532 q 817 548 849 548 z m 205 560 l 205 560 q 239 560 264 546 q 289 532 306 504 q 322 476 330 432 l 330 432 l 343 280 l 343 0 l 306 0 l 306 333 q 306 397 298 436 q 289 475 268 498 l 268 498 q 257 511 242 518 q 226 525 205 525 l 205 525 q 166 525 138 496 q 109 466 94 416 q 79 365 79 302 l 79 302 q 79 234 93 183 q 106 131 129 91 q 151 51 178 17 l 178 17 l 148 -6 q 122 29 97 71 q 72 112 57 168 q 41 224 41 302 l 41 302 q 41 378 61 436 q 81 494 118 527 q 155 560 205 560 z m 471 560 l 471 560 q 517 560 556 539 q 594 517 622 476 q 650 434 666 373 q 681 311 681 229 l 681 229 q 681 134 664 82 q 646 29 616 9 q 585 -12 545 -12 l 545 -12 q 503 -12 476 8 q 449 28 437 61 q 424 93 424 130 l 424 130 q 424 173 439 206 q 453 238 478 260 l 478 260 q 499 277 525 288 q 551 298 585 303 q 619 308 660 308 l 660 308 l 795 308 l 795 274 l 660 274 q 607 274 570 266 q 533 258 506 236 l 506 236 q 485 220 473 194 q 461 167 461 132 l 461 132 q 461 82 482 52 q 503 22 544 22 l 544 22 q 578 22 600 42 q 621 61 633 106 q 644 151 644 228 l 644 228 q 644 244 644 259 q 644 274 642 287 l 642 287 l 642 296 q 636 366 614 417 q 591 468 555 497 q 519 525 470 525 l 470 525 q 447 525 426 518 q 405 511 389 496 l 389 496 q 374 482 364 461 q 353 440 348 410 q 343 379 343 335 l 343 335 l 343 199 l 319 202 l 315 400 q 322 461 345 496 q 367 530 400 545 q 433 560 471 560 z"},"൳":{"ha":563,"x_min":40,"x_max":541,"o":"m 169 -12 l 169 -12 q 133 -12 104 9 q 74 29 57 79 q 40 128 40 215 l 40 215 q 40 291 60 348 q 79 405 121 441 l 121 441 q 149 465 184 481 q 218 497 268 505 q 318 512 392 512 l 392 512 l 541 512 l 541 477 l 396 477 q 328 477 282 471 q 235 465 203 452 q 171 439 147 417 l 147 417 q 114 388 98 346 q 82 304 76 245 l 76 245 l 76 234 q 76 229 76 224 q 76 218 76 212 l 76 212 q 76 143 87 101 q 98 59 119 41 q 140 22 169 22 l 169 22 q 189 22 206 34 q 223 45 233 74 q 243 102 243 152 l 243 152 q 243 211 224 242 q 204 273 165 273 l 165 273 q 132 273 108 257 q 84 240 61 210 l 61 210 l 49 239 q 79 274 108 291 q 136 307 168 307 l 168 307 q 200 307 226 291 q 251 275 266 241 q 280 206 280 153 l 280 153 q 280 92 266 56 q 251 19 226 4 q 201 -12 169 -12 z"},"൴":{"ha":657,"x_min":41,"x_max":616,"o":"m 365 792 l 401 792 l 401 173 q 401 145 403 121 q 405 96 411 77 q 417 58 428 46 l 428 46 q 438 34 452 28 q 466 22 485 22 l 485 22 q 516 22 537 42 q 558 62 568 104 q 578 145 578 209 l 578 209 q 578 263 567 314 q 556 365 533 409 q 510 452 474 482 q 438 512 388 522 l 388 522 l 373 523 q 364 524 355 525 q 345 525 336 525 l 336 525 q 271 525 222 502 q 173 478 141 437 q 109 396 93 343 q 77 290 77 230 l 77 230 l 77 217 q 77 145 88 103 q 99 60 120 41 q 141 22 170 22 l 170 22 q 190 22 207 34 q 224 45 234 74 q 243 102 243 152 l 243 152 q 243 211 224 242 q 205 273 165 273 l 165 273 q 133 273 109 257 q 85 240 62 210 l 62 210 l 50 239 q 80 274 109 291 q 137 307 169 307 l 169 307 q 201 307 227 291 q 252 275 267 241 q 281 206 281 153 l 281 153 q 281 92 266 56 q 251 20 227 4 q 202 -12 170 -12 l 170 -12 q 133 -12 104 9 q 75 30 58 81 q 41 131 41 221 l 41 221 q 41 291 59 352 q 77 413 114 460 q 151 507 207 534 q 262 560 337 560 l 337 560 q 347 560 356 560 q 365 559 374 557 l 374 557 l 391 556 q 445 546 487 516 q 529 485 558 439 q 586 393 601 334 q 616 275 616 209 l 616 209 q 616 135 601 86 q 586 37 557 13 q 527 -12 486 -12 l 486 -12 q 457 -12 436 -2 q 414 8 400 24 l 400 24 q 385 41 378 63 q 370 85 368 114 q 365 142 365 180 l 365 180 l 365 792 z"},"൵":{"ha":850,"x_min":43,"x_max":845,"o":"m 252 560 l 252 560 q 317 560 353 525 q 389 490 401 424 l 401 424 l 406 380 l 414 289 l 414 0 l 377 0 l 377 325 q 377 392 368 432 q 359 472 334 496 l 334 496 q 320 510 300 518 q 280 525 252 525 l 252 525 q 200 525 161 489 q 122 453 101 389 q 79 325 79 240 l 79 240 l 79 222 q 79 147 90 104 q 101 60 122 41 q 143 22 172 22 l 172 22 q 192 22 209 34 q 226 45 236 74 q 245 102 245 152 l 245 152 q 245 211 226 242 q 207 273 167 273 l 167 273 q 135 273 111 257 q 87 240 64 210 l 64 210 l 52 239 q 82 274 111 291 q 139 307 171 307 l 171 307 q 203 307 229 291 q 254 275 269 241 q 283 206 283 153 l 283 153 q 283 92 268 56 q 253 20 229 4 q 204 -12 172 -12 l 172 -12 q 135 -12 106 10 q 77 31 60 83 q 43 135 43 228 l 43 228 q 43 337 70 411 q 97 484 144 522 q 191 560 252 560 z m 545 560 l 545 560 q 604 560 647 534 q 689 507 718 465 l 718 465 q 755 414 773 347 q 790 280 790 212 l 790 212 q 790 131 772 82 q 754 32 722 10 q 690 -12 649 -12 l 649 -12 q 603 -12 573 11 q 543 34 528 75 q 513 116 513 167 l 513 167 q 513 224 532 274 q 551 323 591 370 q 630 416 693 464 l 693 464 q 739 499 764 523 q 789 546 798 568 q 807 590 807 619 l 807 619 q 807 644 800 664 q 792 683 780 702 l 780 702 l 814 719 q 827 699 836 675 q 845 650 845 620 l 845 620 q 845 584 833 556 q 820 528 791 501 q 762 474 712 436 l 712 436 q 657 395 621 353 q 585 311 568 266 q 551 220 551 167 l 551 167 q 551 99 576 61 q 600 22 649 22 l 649 22 q 680 22 703 40 q 725 58 738 99 q 751 140 751 211 l 751 211 q 751 273 737 335 q 723 396 691 444 l 691 444 q 668 480 632 503 q 595 525 546 525 l 546 525 q 516 525 494 517 q 472 509 456 492 l 456 492 q 443 479 434 458 q 424 437 419 407 q 414 377 414 334 l 414 334 l 414 156 l 385 156 l 385 283 l 386 398 q 393 456 414 492 q 435 527 468 544 q 501 560 545 560 z"},"൶":{"ha":962,"x_min":33,"x_max":907,"o":"m 164 331 l 164 331 q 204 331 233 312 q 262 293 278 258 q 294 222 294 172 l 294 172 q 294 126 279 86 q 263 46 239 20 l 239 20 l 240 34 l 526 34 l 528 0 l 224 0 l 207 26 q 229 55 243 92 q 257 128 257 170 l 257 170 q 257 235 232 266 q 206 297 164 297 l 164 297 q 135 297 114 282 q 93 266 82 239 q 71 211 71 172 l 71 172 q 71 121 89 83 q 106 45 130 15 l 130 15 l 103 -8 q 75 28 54 72 q 33 115 33 173 l 33 173 q 33 221 50 257 q 67 292 96 312 q 125 331 164 331 z m 706 560 l 706 560 q 755 560 791 544 q 827 528 851 501 l 851 501 q 872 476 885 444 q 897 411 902 371 q 907 331 907 280 l 907 280 l 907 0 l 503 0 l 503 278 q 503 330 509 372 q 515 413 528 446 q 541 478 562 501 l 562 501 q 586 529 622 545 q 657 560 706 560 z m 671 521 l 671 521 q 645 521 624 509 q 603 497 587 474 l 587 474 q 565 444 553 397 q 540 349 540 265 l 540 265 l 540 33 l 546 33 q 601 92 647 155 q 692 218 719 283 q 746 347 746 408 l 746 408 q 746 439 739 465 q 732 491 716 506 q 700 521 671 521 z m 783 407 l 783 407 q 783 340 756 275 q 729 209 683 146 q 637 82 579 18 l 579 18 l 580 32 q 602 34 635 34 q 667 34 692 34 l 692 34 l 871 34 l 871 271 q 871 352 856 408 q 841 463 808 494 q 775 525 720 528 l 720 528 l 719 531 q 754 516 769 484 q 783 451 783 407 z"},"൷":{"ha":1219,"x_min":33,"x_max":1199,"o":"m 164 331 l 164 331 q 204 331 233 312 q 262 293 278 258 q 294 222 294 172 l 294 172 q 294 126 279 86 q 263 46 239 20 l 239 20 l 239 34 l 506 34 l 511 0 l 224 0 l 207 26 q 230 55 244 92 q 257 128 257 170 l 257 170 q 257 235 232 266 q 206 297 164 297 l 164 297 q 135 297 114 282 q 93 266 82 239 q 71 211 71 172 l 71 172 q 71 121 89 83 q 106 45 130 15 l 130 15 l 103 -8 q 75 28 54 72 q 33 115 33 173 l 33 173 q 33 221 50 257 q 67 292 96 312 q 125 331 164 331 z m 572 560 l 572 560 q 605 560 630 546 q 655 532 672 504 q 688 476 696 432 l 696 432 l 709 322 l 709 230 l 672 230 l 672 333 q 672 397 664 436 q 655 475 634 498 l 634 498 q 623 511 608 518 q 592 525 571 525 l 571 525 q 532 525 504 496 q 475 466 460 416 q 445 366 445 303 l 445 303 q 445 208 471 143 q 497 78 535 26 l 535 26 l 519 0 l 492 0 l 495 26 q 471 60 451 99 q 430 138 419 188 q 407 237 407 304 l 407 304 q 407 379 427 437 q 447 495 484 528 q 521 560 572 560 z m 837 560 l 837 560 q 883 560 922 539 q 960 517 988 476 q 1016 434 1032 372 q 1047 310 1047 229 l 1047 229 q 1047 134 1030 82 q 1012 29 982 9 q 951 -12 911 -12 l 911 -12 q 869 -12 842 8 q 815 28 803 61 q 790 93 790 130 l 790 130 q 790 173 805 206 q 819 238 844 260 l 844 260 q 865 277 891 288 q 917 298 951 303 q 985 308 1025 308 l 1025 308 l 1035 308 l 1035 274 l 1026 274 q 973 274 936 266 q 899 258 872 236 l 872 236 q 851 220 839 194 q 827 167 827 132 l 827 132 q 827 82 848 52 q 869 22 910 22 l 910 22 q 944 22 966 42 q 988 61 999 106 q 1010 151 1010 228 l 1010 228 q 1010 244 1010 259 q 1010 274 1008 287 l 1008 287 l 1008 296 q 1002 366 980 417 q 957 468 921 497 q 885 525 836 525 l 836 525 q 813 525 792 518 q 771 511 755 496 l 755 496 q 740 482 730 461 q 719 440 714 410 q 709 379 709 335 l 709 335 l 709 247 l 686 249 l 681 400 q 688 461 711 496 q 733 530 766 545 q 799 560 837 560 z m 1154 452 l 1191 460 q 1195 447 1197 432 q 1199 417 1199 402 l 1199 402 q 1199 371 1190 347 q 1181 323 1165 309 l 1165 309 q 1144 290 1115 282 q 1086 274 1045 274 l 1045 274 l 1030 274 l 1030 308 l 1040 308 q 1077 308 1101 314 q 1124 319 1138 333 l 1138 333 q 1150 343 1156 361 q 1161 378 1161 402 l 1161 402 q 1161 413 1160 428 q 1158 442 1154 452 l 1154 452 z"},"൸":{"ha":1592,"x_min":10,"x_max":1537,"o":"m 1039 560 l 1039 560 q 1068 560 1090 549 q 1112 538 1127 520 q 1142 501 1151 477 q 1159 453 1161 428 l 1161 428 l 1147 391 q 1156 443 1180 481 q 1203 518 1242 539 q 1280 560 1336 560 l 1336 560 q 1384 560 1421 544 q 1457 528 1480 501 l 1480 501 q 1501 476 1514 444 q 1527 411 1532 371 q 1537 331 1537 280 l 1537 280 l 1537 0 l 1177 0 l 1177 34 q 1231 92 1276 155 q 1321 218 1348 283 q 1375 347 1375 408 l 1375 408 q 1375 439 1369 465 q 1362 491 1346 506 q 1329 521 1301 521 l 1301 521 q 1275 521 1254 509 q 1233 497 1217 474 l 1217 474 q 1194 443 1183 396 q 1171 348 1171 275 l 1171 275 l 1171 230 l 1134 230 l 1134 353 q 1134 406 1129 442 q 1123 477 1104 498 l 1104 498 q 1093 512 1077 519 q 1060 525 1039 525 l 1039 525 q 1019 525 1003 519 q 986 512 974 498 l 974 498 q 955 477 950 442 q 944 406 944 353 l 944 353 l 944 191 q 944 153 941 123 q 938 92 930 69 q 921 45 905 27 l 905 27 q 889 10 866 -1 q 842 -12 812 -12 l 812 -12 q 782 -12 759 -1 q 735 10 719 27 l 719 27 q 703 45 695 69 q 686 93 683 124 q 680 154 680 190 l 680 190 l 680 353 q 680 406 675 442 q 669 477 650 498 l 650 498 q 639 512 622 519 q 605 525 585 525 l 585 525 q 565 525 549 519 q 532 512 520 498 l 520 498 q 501 477 496 442 q 490 406 490 353 l 490 353 l 490 196 q 490 127 482 90 q 473 53 448 26 l 448 26 q 433 10 410 -1 q 386 -12 356 -12 l 356 -12 q 304 -12 273 19 q 242 50 233 121 l 233 121 l 241 114 q 233 73 217 45 q 200 16 174 2 q 148 -12 111 -12 l 111 -12 q 86 -12 60 -6 q 33 0 10 12 l 10 12 l 24 43 q 44 33 66 28 q 87 23 111 23 l 111 23 q 137 23 153 30 q 169 37 181 50 l 181 50 q 202 72 211 111 q 220 149 220 213 l 220 213 l 220 548 l 257 548 l 257 211 q 257 151 264 112 q 270 72 289 50 l 289 50 q 300 36 316 30 q 332 23 354 23 l 354 23 q 376 23 392 30 q 408 36 420 49 l 420 49 q 440 71 447 108 q 453 144 453 204 l 453 204 l 453 356 q 453 394 456 425 q 459 456 468 480 q 476 503 492 521 l 492 521 q 508 538 532 549 q 555 560 585 560 l 585 560 q 615 560 639 549 q 662 538 678 521 l 678 521 q 694 503 703 480 q 711 456 714 426 q 717 396 717 357 l 717 357 l 717 195 q 717 142 723 107 q 728 71 747 50 l 747 50 q 759 37 776 30 q 792 23 812 23 l 812 23 q 832 23 849 30 q 866 37 877 50 l 877 50 q 896 71 902 107 q 907 142 907 195 l 907 195 l 907 356 q 907 394 910 425 q 913 456 922 480 q 930 503 946 521 l 946 521 q 962 538 986 549 q 1009 560 1039 560 z m 1413 407 l 1413 407 q 1413 340 1386 275 q 1359 209 1313 146 q 1267 82 1209 18 l 1209 18 l 1209 32 q 1231 34 1264 34 q 1296 34 1322 34 l 1322 34 l 1500 34 l 1500 271 q 1500 352 1486 408 q 1471 463 1438 494 q 1405 525 1350 528 l 1350 528 l 1349 531 q 1384 516 1399 484 q 1413 451 1413 407 z"},"൹":{"ha":817,"x_min":41,"x_max":795,"o":"m 205 560 l 205 560 q 239 560 264 546 q 289 532 306 504 q 322 476 330 432 l 330 432 l 343 280 l 343 0 l 306 0 l 306 333 q 306 397 298 436 q 289 475 268 498 l 268 498 q 257 511 242 518 q 226 525 205 525 l 205 525 q 166 525 138 496 q 109 466 94 416 q 79 365 79 302 l 79 302 q 79 234 93 183 q 106 131 129 91 q 151 51 178 17 l 178 17 l 148 -6 q 122 29 97 71 q 72 112 57 168 q 41 224 41 302 l 41 302 q 41 378 61 436 q 81 494 118 527 q 155 560 205 560 z m 471 560 l 471 560 q 517 560 556 539 q 594 517 622 476 q 650 434 666 373 q 681 311 681 229 l 681 229 q 681 134 664 82 q 646 29 616 9 q 585 -12 545 -12 l 545 -12 q 503 -12 476 8 q 449 28 437 61 q 424 93 424 130 l 424 130 q 424 173 439 206 q 453 238 478 260 l 478 260 q 499 277 525 288 q 551 298 585 303 q 619 308 660 308 l 660 308 l 795 308 l 795 274 l 660 274 q 607 274 570 266 q 533 258 506 236 l 506 236 q 485 220 473 194 q 461 167 461 132 l 461 132 q 461 82 482 52 q 503 22 544 22 l 544 22 q 578 22 600 42 q 621 61 633 106 q 644 151 644 228 l 644 228 q 644 244 644 259 q 644 274 642 287 l 642 287 l 642 296 q 636 366 614 417 q 591 468 555 497 q 519 525 470 525 l 470 525 q 447 525 426 518 q 405 511 389 496 l 389 496 q 374 482 364 461 q 353 440 348 410 q 343 379 343 335 l 343 335 l 343 199 l 319 202 l 315 400 q 322 461 345 496 q 367 530 400 545 q 433 560 471 560 z"},"ൺ":{"ha":1068,"x_min":43,"x_max":1027,"o":"m 252 560 l 252 560 q 317 560 353 526 q 388 491 401 423 l 401 423 l 389 425 q 401 496 434 528 q 467 560 519 560 l 519 560 q 571 560 605 529 q 638 497 648 424 l 648 424 l 649 401 l 659 335 l 659 0 l 622 0 l 622 333 q 622 400 615 439 q 607 477 585 499 l 585 499 q 574 511 558 518 q 541 525 518 525 l 518 525 q 496 525 480 518 q 464 511 452 499 l 452 499 q 430 476 422 438 q 414 399 414 333 l 414 333 l 414 0 l 377 0 l 377 325 q 377 392 368 432 q 359 472 334 496 l 334 496 q 320 510 300 518 q 280 525 252 525 l 252 525 q 200 525 161 489 q 122 453 101 389 q 79 325 79 240 l 79 240 l 79 222 q 79 147 90 104 q 101 60 122 41 q 143 22 172 22 l 172 22 q 192 22 209 34 q 226 45 236 74 q 245 102 245 152 l 245 152 q 245 211 226 242 q 207 273 167 273 l 167 273 q 135 273 111 257 q 87 240 64 210 l 64 210 l 52 239 q 82 274 111 291 q 139 307 171 307 l 171 307 q 203 307 229 291 q 254 275 269 241 q 283 206 283 153 l 283 153 q 283 92 268 56 q 253 20 229 4 q 204 -12 172 -12 l 172 -12 q 135 -12 106 10 q 77 31 60 83 q 43 135 43 228 l 43 228 q 43 337 70 411 q 97 484 144 522 q 191 560 252 560 z m 898 -12 l 898 -12 q 859 -12 830 9 q 800 29 783 76 q 765 122 765 200 l 765 200 q 765 269 781 325 q 797 380 822 427 q 847 474 875 515 l 875 515 l 883 526 q 908 566 926 603 q 943 639 943 677 l 943 677 q 943 710 926 734 q 909 757 868 757 l 868 757 q 851 757 835 754 q 819 750 805 745 l 805 745 l 796 779 q 814 785 833 789 q 852 792 871 792 l 871 792 q 913 792 937 775 q 960 757 971 731 q 981 705 981 679 l 981 679 q 981 633 962 593 q 942 552 912 507 l 912 507 l 905 498 q 879 458 856 414 q 833 369 818 317 q 803 264 803 201 l 803 201 q 803 130 816 91 q 829 52 851 37 q 872 22 897 22 l 897 22 q 940 22 965 63 q 989 104 989 205 l 989 205 q 989 262 978 320 q 966 377 943 425 q 919 472 881 499 l 881 499 q 863 513 841 520 q 819 526 791 526 l 791 526 q 760 526 740 519 q 720 511 705 497 l 705 497 q 686 480 677 456 q 667 432 663 402 q 659 371 659 334 l 659 334 l 659 61 l 629 61 l 631 239 l 632 401 q 638 456 659 491 q 680 526 714 543 q 747 560 791 560 l 791 560 q 823 560 849 552 q 874 544 896 529 l 896 529 q 898 528 901 527 q 903 525 905 523 l 905 523 q 948 492 975 442 q 1001 391 1014 331 q 1027 270 1027 207 l 1027 207 q 1027 89 991 39 q 955 -12 898 -12 z"},"ൻ":{"ha":751,"x_min":41,"x_max":710,"o":"m 205 560 l 205 560 q 239 560 264 546 q 288 532 305 504 q 321 476 329 433 l 329 433 l 343 303 l 343 0 l 306 0 l 306 333 q 306 397 298 436 q 289 475 268 498 l 268 498 q 257 511 242 518 q 226 525 205 525 l 205 525 q 166 525 138 496 q 109 466 94 416 q 79 365 79 302 l 79 302 q 79 234 93 183 q 106 131 129 91 q 151 51 178 17 l 178 17 l 148 -6 q 122 29 97 71 q 72 112 57 168 q 41 224 41 302 l 41 302 q 41 378 61 436 q 81 494 118 527 q 155 560 205 560 z m 582 -12 l 582 -12 q 543 -12 513 9 q 482 29 466 76 q 449 122 449 200 l 449 200 q 449 269 465 325 q 480 380 506 427 q 531 474 558 515 l 558 515 l 567 526 q 592 566 610 603 q 627 639 627 677 l 627 677 q 627 710 610 734 q 593 757 552 757 l 552 757 q 535 757 520 754 q 504 750 489 745 l 489 745 l 480 779 q 498 785 517 789 q 536 792 554 792 l 554 792 q 596 792 620 775 q 644 757 654 731 q 664 705 664 679 l 664 679 q 664 633 645 593 q 626 552 595 507 l 595 507 l 589 498 q 563 458 540 414 q 516 369 502 317 q 487 264 487 201 l 487 201 q 487 130 500 91 q 512 52 534 37 q 555 22 581 22 l 581 22 q 624 22 648 63 q 672 104 672 205 l 672 205 q 672 262 661 320 q 650 377 627 425 q 603 472 565 499 l 565 499 q 547 513 525 520 q 503 526 475 526 l 475 526 q 444 526 424 519 q 404 511 389 497 l 389 497 q 370 480 361 456 q 351 432 347 402 q 343 371 343 334 l 343 334 l 343 61 l 313 61 l 315 239 l 316 401 q 322 456 343 491 q 363 526 397 543 q 431 560 474 560 l 474 560 q 507 560 533 552 q 558 544 579 529 l 579 529 q 582 528 585 527 q 587 525 589 523 l 589 523 q 631 492 658 442 q 685 391 698 331 q 710 270 710 207 l 710 207 q 710 89 675 39 q 639 -12 582 -12 z"},"ർ":{"ha":527,"x_min":41,"x_max":486,"o":"m 357 -12 l 357 -12 q 318 -12 289 9 q 259 29 242 76 q 224 122 224 200 l 224 200 q 224 269 240 325 q 256 380 281 427 q 306 474 334 515 l 334 515 l 342 526 q 367 566 385 603 q 402 639 402 677 l 402 677 q 402 710 385 734 q 368 757 327 757 l 327 757 q 310 757 294 754 q 278 750 264 745 l 264 745 l 255 779 q 273 785 292 789 q 311 792 330 792 l 330 792 q 372 792 396 775 q 419 757 430 731 q 440 705 440 679 l 440 679 q 440 633 421 593 q 401 552 371 507 l 371 507 l 364 498 q 338 458 315 414 q 292 369 277 317 q 262 264 262 201 l 262 201 q 262 130 275 91 q 288 52 310 37 q 331 22 356 22 l 356 22 q 399 22 424 63 q 448 104 448 205 l 448 205 q 448 247 442 291 q 435 334 422 375 q 409 415 389 447 q 368 479 340 500 l 340 500 q 322 513 301 520 q 280 526 255 526 l 255 526 q 195 526 156 494 q 117 461 98 408 q 79 354 79 289 l 79 289 q 79 223 93 173 q 107 123 131 86 q 154 49 181 19 l 181 19 l 155 -6 q 129 22 103 61 q 76 100 59 157 q 41 213 41 290 l 41 290 q 41 348 55 397 q 69 446 97 482 q 124 518 164 539 q 204 560 256 560 l 256 560 q 285 560 309 552 q 333 544 355 530 l 355 530 q 357 529 360 527 q 362 525 365 523 l 365 523 q 407 492 434 442 q 460 392 473 331 q 486 270 486 207 l 486 207 q 486 89 450 39 q 414 -12 357 -12 z"},"ൽ":{"ha":843,"x_min":41,"x_max":802,"o":"m 520 560 l 520 560 q 549 560 576 555 q 602 550 626 541 q 649 531 670 517 l 670 517 l 678 512 q 742 466 772 387 q 802 307 802 207 l 802 207 q 802 89 767 39 q 731 -12 673 -12 l 673 -12 q 634 -12 605 9 q 575 29 558 76 q 541 122 541 200 l 541 200 q 541 266 556 321 q 571 375 595 422 q 618 468 645 508 l 645 508 l 652 517 q 680 558 699 599 q 718 639 718 677 l 718 677 q 718 710 701 734 q 684 757 643 757 l 643 757 q 627 757 611 754 q 595 750 580 745 l 580 745 l 572 779 q 590 785 609 789 q 627 792 646 792 l 646 792 q 688 792 712 775 q 736 757 746 731 q 756 705 756 679 l 756 679 q 756 633 737 592 q 717 551 684 502 l 684 502 l 676 490 q 652 454 630 411 q 607 368 593 316 q 579 264 579 201 l 579 201 q 579 130 592 91 q 605 52 626 37 q 647 22 673 22 l 673 22 q 715 22 740 63 q 764 104 764 205 l 764 205 q 764 267 753 321 q 741 375 718 417 q 695 459 658 485 l 658 485 l 645 493 q 619 509 587 517 q 555 525 518 525 l 518 525 q 479 525 446 516 q 412 507 384 489 l 384 489 l 373 481 q 321 442 294 370 q 267 298 267 205 l 267 205 q 267 133 279 94 q 290 54 311 38 q 332 22 359 22 l 359 22 q 387 22 408 38 q 429 54 441 94 q 453 133 453 205 l 453 205 q 453 253 442 307 q 431 360 409 408 q 386 455 350 486 l 350 486 l 343 493 q 323 511 300 519 q 277 526 251 526 l 251 526 q 193 526 155 494 q 116 462 98 408 q 79 354 79 289 l 79 289 q 79 222 93 173 q 107 123 131 86 q 154 49 181 19 l 181 19 l 155 -6 q 129 22 103 61 q 76 100 59 157 q 41 213 41 290 l 41 290 q 41 347 54 396 q 67 445 94 482 q 121 518 160 539 q 198 560 249 560 l 249 560 q 285 560 314 549 q 343 537 369 514 l 369 514 l 380 504 q 435 453 463 375 q 491 296 491 205 l 491 205 q 491 125 475 77 q 458 29 428 9 q 398 -12 359 -12 l 359 -12 q 321 -12 292 9 q 262 30 246 78 q 229 125 229 205 l 229 205 q 229 269 242 325 q 255 380 281 425 q 306 470 345 501 l 345 501 l 355 509 q 387 533 428 547 q 469 560 520 560 z"},"ൾ":{"ha":735,"x_min":41,"x_max":694,"o":"m 538 792 l 538 792 q 580 792 604 775 q 628 757 638 731 q 648 705 648 679 l 648 679 q 648 633 629 593 q 609 552 579 507 l 579 507 l 573 498 q 547 458 524 414 q 500 369 486 317 q 471 264 471 201 l 471 201 q 471 130 484 91 q 496 52 518 37 q 539 22 565 22 l 565 22 q 607 22 632 63 q 656 104 656 205 l 656 205 q 656 247 650 291 q 644 334 631 375 q 617 415 597 447 q 577 479 549 500 l 549 500 q 531 513 511 520 q 491 526 468 526 l 468 526 q 442 526 422 519 q 402 512 387 499 l 387 499 q 360 475 348 437 q 336 398 336 327 l 336 327 l 336 200 q 336 163 333 131 q 329 98 320 72 q 311 46 293 26 l 293 26 q 277 9 255 -1 q 233 -12 201 -12 l 201 -12 q 151 -12 115 20 q 78 51 60 109 q 41 166 41 245 l 41 245 q 41 324 57 380 q 72 436 97 478 q 122 520 149 556 l 149 556 l 178 532 q 151 498 129 458 q 106 417 93 365 q 79 313 79 245 l 79 245 q 79 181 93 131 q 106 80 133 52 q 160 23 201 23 l 201 23 q 222 23 238 30 q 253 36 264 49 l 264 49 q 284 72 292 111 q 299 149 299 215 l 299 215 l 299 334 q 299 405 313 450 q 327 494 361 523 l 361 523 q 381 540 408 550 q 435 560 468 560 l 468 560 q 494 560 518 552 q 542 544 563 530 l 563 530 l 573 523 q 615 492 642 442 q 669 392 682 331 q 694 270 694 207 l 694 207 q 694 89 659 39 q 623 -12 565 -12 l 565 -12 q 527 -12 497 9 q 466 29 450 76 q 433 122 433 200 l 433 200 q 433 269 449 325 q 464 380 490 427 q 515 474 542 515 l 542 515 l 550 526 q 576 566 594 603 q 611 639 611 677 l 611 677 q 611 710 594 734 q 576 757 535 757 l 535 757 q 519 757 503 754 q 487 750 472 745 l 472 745 l 464 779 q 482 785 501 789 q 520 792 538 792 z"},"ൿ":{"ha":840,"x_min":33,"x_max":806,"o":"m 374 560 l 374 560 q 427 560 461 528 q 495 496 511 434 q 527 371 527 277 l 527 277 q 527 168 508 105 q 489 42 455 15 q 420 -12 373 -12 l 373 -12 q 337 -12 311 3 q 285 17 267 43 l 267 43 q 241 81 231 142 q 220 202 220 275 l 220 275 q 220 421 259 491 q 298 560 374 560 z m 374 526 l 374 526 q 316 526 286 468 q 256 410 256 275 l 256 275 q 256 179 270 124 q 284 68 311 45 q 337 22 373 22 l 373 22 q 411 22 437 46 q 463 69 477 125 q 491 181 491 276 l 491 276 q 491 368 478 423 q 464 477 438 502 q 412 526 374 526 z m 167 -12 l 167 -12 q 109 -12 71 27 q 33 66 33 143 l 33 143 q 33 180 45 207 q 57 234 77 252 l 77 252 q 98 273 126 285 q 153 296 189 302 q 225 307 269 307 l 269 307 l 600 307 q 656 307 693 296 q 729 285 754 263 l 754 263 q 779 242 793 209 q 806 176 806 134 l 806 134 q 806 63 777 26 q 748 -12 692 -12 l 692 -12 q 641 -12 609 29 q 577 69 577 143 l 577 143 q 577 176 585 211 q 592 245 606 287 l 606 287 q 607 290 608 293 q 609 296 610 299 l 610 299 q 621 329 634 364 q 646 399 662 441 l 662 441 q 684 499 698 540 q 711 581 717 612 q 722 643 722 671 l 722 671 q 722 708 705 733 q 688 757 647 757 l 647 757 q 630 757 614 754 q 598 750 584 745 l 584 745 l 575 779 q 593 785 612 789 q 631 792 650 792 l 650 792 q 691 792 715 775 q 739 757 750 731 q 760 704 760 676 l 760 676 q 760 654 757 630 q 753 606 746 577 q 738 548 726 513 q 714 477 696 429 l 696 429 q 681 390 668 357 q 655 323 647 297 l 647 297 q 646 293 645 290 q 643 286 642 283 l 642 283 q 627 241 621 209 q 614 176 614 142 l 614 142 q 614 100 625 74 q 635 48 653 36 q 671 23 695 23 l 695 23 q 732 23 751 51 q 769 79 769 134 l 769 134 q 769 168 759 195 q 748 221 729 238 l 729 238 q 710 255 680 264 q 649 273 599 273 l 599 273 l 266 273 q 205 273 166 263 q 126 253 101 226 l 101 226 q 87 212 79 191 q 70 170 70 142 l 70 142 q 70 97 84 71 q 98 45 121 34 q 143 23 169 23 l 169 23 q 197 23 223 32 q 248 41 279 68 l 279 68 l 299 40 q 275 21 255 10 q 234 -2 213 -7 q 192 -12 167 -12 z"},"!":{"ha":203,"x_min":70,"x_max":133,"o":"m 117 179 l 86 179 l 80 714 l 123 714 l 117 179 z m 101 -9 l 101 -9 q 84 -9 77 2 q 70 12 70 29 l 70 29 q 70 45 77 56 q 83 67 101 67 l 101 67 q 120 67 127 56 q 133 45 133 29 l 133 29 q 133 12 127 2 q 120 -9 101 -9 z"},"\"":{"ha":328,"x_min":72,"x_max":256,"o":"m 107 542 l 78 542 l 72 800 l 114 800 l 107 542 z m 249 542 l 220 542 l 214 800 l 256 800 l 249 542 z"},"#":{"ha":500,"x_min":26,"x_max":474,"o":"m 114 0 l 80 0 l 122 224 l 26 224 l 26 257 l 129 257 l 166 458 l 66 458 l 66 492 l 173 492 l 215 714 l 249 714 l 207 492 l 344 492 l 386 714 l 420 714 l 378 492 l 474 492 l 474 458 l 372 458 l 334 257 l 434 257 l 434 224 l 328 224 l 285 0 l 251 0 l 294 224 l 156 224 l 114 0 z m 200 458 l 163 257 l 300 257 l 338 458 l 200 458 z"},"%":{"ha":607,"x_min":50,"x_max":557,"o":"m 204 0 l 169 0 l 404 714 l 438 714 l 204 0 z m 152 276 l 152 276 q 102 276 76 332 q 50 388 50 501 l 50 501 q 50 615 76 670 q 101 724 152 724 l 152 724 q 203 724 229 670 q 254 615 254 501 l 254 501 q 254 387 228 332 q 201 276 152 276 z m 152 311 l 152 311 q 186 311 203 357 q 219 403 219 501 l 219 501 q 219 599 203 646 q 186 692 152 692 l 152 692 q 118 692 102 646 q 85 599 85 501 l 85 501 q 85 402 102 357 q 119 311 152 311 z m 455 -9 l 455 -9 q 405 -9 379 47 q 353 103 353 216 l 353 216 q 353 329 379 384 q 404 439 455 439 l 455 439 q 507 439 532 384 q 557 329 557 216 l 557 216 q 557 102 531 47 q 505 -9 455 -9 z m 456 25 l 456 25 q 489 25 506 71 q 522 117 522 216 l 522 216 q 522 314 506 361 q 489 407 455 407 l 455 407 q 422 407 405 361 q 388 314 388 216 l 388 216 q 388 117 406 71 q 423 25 456 25 z"},"'":{"ha":186,"x_min":72,"x_max":114,"o":"m 107 542 l 78 542 l 72 800 l 114 800 l 107 542 z"},"(":{"ha":281,"x_min":57,"x_max":252,"o":"m 57 276 l 57 276 q 57 380 75 474 q 93 568 127 651 q 161 733 209 800 l 209 800 l 252 800 q 199 728 164 644 q 129 560 112 468 q 95 375 95 277 l 95 277 q 95 178 112 86 q 129 -6 164 -88 q 199 -171 251 -244 l 251 -244 l 209 -244 q 160 -176 127 -94 q 93 -13 75 81 q 57 174 57 276 z"},")":{"ha":281,"x_min":29,"x_max":223,"o":"m 223 281 l 223 281 q 223 177 205 83 q 187 -12 154 -94 q 120 -176 72 -244 l 72 -244 l 29 -244 q 82 -171 117 -87 q 151 -4 168 89 q 185 181 185 280 l 185 280 q 185 379 168 471 q 151 562 117 645 q 82 728 29 800 l 29 800 l 72 800 q 120 732 154 651 q 188 569 206 476 q 223 383 223 281 z"},"*":{"ha":498,"x_min":44,"x_max":454,"o":"m 229 800 l 269 800 l 263 610 l 445 670 l 454 632 l 271 585 l 386 434 l 352 411 l 248 571 l 147 412 l 113 434 l 226 585 l 44 632 l 54 670 l 234 610 l 229 800 z"},"+":{"ha":405,"x_min":32,"x_max":373,"o":"m 220 126 l 186 126 l 186 336 l 32 336 l 32 370 l 186 370 l 186 580 l 220 580 l 220 370 l 373 370 l 373 336 l 220 336 l 220 126 z"},",":{"ha":215,"x_min":39,"x_max":138,"o":"m 94 116 l 131 116 l 138 106 q 132 65 122 24 q 111 -17 98 -55 q 85 -94 70 -130 l 70 -130 l 39 -130 q 53 -93 64 -50 q 75 -7 83 37 q 91 80 94 116 l 94 116 z"},"-":{"ha":305,"x_min":38,"x_max":267,"o":"m 267 252 l 38 252 l 38 287 l 267 287 l 267 252 z"},".":{"ha":215,"x_min":76,"x_max":139,"o":"m 107 -9 l 107 -9 q 90 -9 83 2 q 76 12 76 29 l 76 29 q 76 45 83 56 q 90 67 107 67 l 107 67 q 126 67 133 56 q 139 45 139 29 l 139 29 q 139 12 133 2 q 126 -9 107 -9 z"},"/":{"ha":349,"x_min":24,"x_max":325,"o":"m 62 -244 l 24 -244 l 287 800 l 325 800 l 62 -244 z"},":":{"ha":215,"x_min":76,"x_max":139,"o":"m 107 -9 l 107 -9 q 90 -9 83 2 q 76 12 76 29 l 76 29 q 76 45 83 56 q 89 67 107 67 l 107 67 q 126 67 133 56 q 139 45 139 29 l 139 29 q 139 12 133 2 q 126 -9 107 -9 z m 107 465 l 107 465 q 90 465 83 476 q 76 486 76 503 l 76 503 q 76 519 83 530 q 89 540 107 540 l 107 540 q 127 540 133 530 q 139 519 139 503 l 139 503 q 139 486 133 476 q 126 465 107 465 z"},";":{"ha":215,"x_min":39,"x_max":139,"o":"m 94 116 l 131 116 l 138 106 q 132 65 122 24 q 111 -17 98 -55 q 85 -94 70 -130 l 70 -130 l 39 -130 q 54 -93 65 -50 q 76 -7 84 37 q 91 80 94 116 l 94 116 z m 107 465 l 107 465 q 90 465 83 476 q 76 486 76 503 l 76 503 q 76 519 83 530 q 89 540 107 540 l 107 540 q 127 540 133 530 q 139 519 139 503 l 139 503 q 139 486 133 476 q 126 465 107 465 z"},"<":{"ha":405,"x_min":31,"x_max":374,"o":"m 374 186 l 374 147 l 31 350 l 31 378 l 374 560 l 374 521 l 72 364 l 374 186 z"},"=":{"ha":405,"x_min":32,"x_max":372,"o":"m 372 230 l 32 230 l 32 265 l 372 265 l 372 230 z m 372 440 l 32 440 l 32 475 l 372 475 l 372 440 z"},">":{"ha":405,"x_min":31,"x_max":374,"o":"m 374 350 l 31 147 l 31 186 l 333 363 l 31 521 l 31 560 l 374 378 l 374 350 z"},"?":{"ha":309,"x_min":32,"x_max":272,"o":"m 141 724 l 141 724 q 201 724 237 684 q 272 643 272 565 l 272 565 q 272 521 262 489 q 252 456 235 427 q 218 398 195 365 l 195 365 q 172 333 160 306 q 148 279 145 253 q 141 226 141 196 l 141 196 l 141 176 l 107 176 l 107 198 q 107 239 112 268 q 116 297 129 324 q 141 351 163 383 l 163 383 q 184 412 200 439 q 216 465 225 495 q 234 525 234 564 l 234 564 q 234 625 209 657 q 184 689 138 689 l 138 689 q 114 689 91 682 q 67 674 47 663 l 47 663 l 32 695 q 54 706 82 715 q 109 724 141 724 z m 124 -9 l 124 -9 q 107 -9 100 2 q 93 12 93 29 l 93 29 q 93 45 100 56 q 107 67 124 67 l 124 67 q 144 67 151 56 q 157 45 157 29 l 157 29 q 157 12 150 2 q 143 -9 124 -9 z"},"[":{"ha":312,"x_min":82,"x_max":272,"o":"m 272 -244 l 82 -244 l 82 799 l 272 799 l 272 765 l 119 765 l 119 -209 l 272 -209 l 272 -244 z"},"\\":{"ha":349,"x_min":24,"x_max":325,"o":"m 325 -245 l 287 -245 l 24 800 l 62 800 l 325 -245 z"},"]":{"ha":312,"x_min":40,"x_max":230,"o":"m 230 -244 l 40 -244 l 40 -209 l 193 -209 l 193 765 l 40 765 l 40 800 l 230 800 l 230 -244 z"},"^":{"ha":405,"x_min":18,"x_max":386,"o":"m 57 368 l 18 368 l 188 718 l 217 718 l 386 368 l 347 368 l 203 673 l 57 368 z"},"_":{"ha":357,"x_min":-2,"x_max":359,"o":"m 359 -123 l -2 -123 l -2 -90 l 359 -90 l 359 -123 z"},"{":{"ha":348,"x_min":30,"x_max":309,"o":"m 309 -210 l 309 -244 q 252 -244 215 -230 q 178 -216 161 -186 q 143 -156 143 -106 l 143 -106 l 143 151 q 143 212 117 237 q 91 261 30 261 l 30 261 l 30 295 q 91 295 117 321 q 143 346 143 407 l 143 407 l 143 660 q 143 706 162 737 q 181 768 218 784 q 255 800 309 800 l 309 800 l 309 766 q 241 766 211 740 q 180 713 180 655 l 180 655 l 180 404 q 180 353 162 321 q 143 288 97 279 l 97 279 l 97 277 q 142 267 161 239 q 180 210 180 155 l 180 155 l 180 -101 q 180 -142 192 -166 q 204 -190 232 -200 q 260 -210 309 -210 l 309 -210 z"},"|":{"ha":520,"x_min":242,"x_max":278,"o":"m 278 -244 l 242 -244 l 242 800 l 278 800 l 278 -244 z"},"}":{"ha":348,"x_min":39,"x_max":318,"o":"m 39 766 l 39 800 q 97 800 134 786 q 170 772 187 742 q 204 712 204 662 l 204 662 l 204 404 q 204 343 231 319 q 257 294 318 294 l 318 294 l 318 260 q 257 260 231 235 q 204 210 204 148 l 204 148 l 204 -104 q 204 -149 185 -180 q 166 -212 129 -228 q 92 -244 39 -244 l 39 -244 l 39 -210 q 106 -210 137 -183 q 168 -157 168 -99 l 168 -99 l 168 151 q 168 202 187 235 q 206 267 251 276 l 251 276 l 251 279 q 206 289 187 318 q 168 346 168 401 l 168 401 l 168 657 q 168 699 156 723 q 144 746 116 756 q 88 766 39 766 l 39 766 z"},"~":{"ha":405,"x_min":30,"x_max":376,"o":"m 199 338 l 199 338 q 177 351 160 358 q 143 365 124 365 l 124 365 q 98 365 76 352 q 54 338 30 311 l 30 311 l 30 353 q 49 372 72 386 q 95 399 124 399 l 124 399 q 148 399 169 391 q 189 383 210 371 l 210 371 q 236 355 252 349 q 268 342 291 342 l 291 342 q 314 342 334 355 q 354 368 376 393 l 376 393 l 376 351 q 360 333 338 321 q 316 308 289 308 l 289 308 q 264 308 244 316 q 224 323 199 338 z"}," ":{"ha":221,"x_min":0,"x_max":0,"o":""},"­":{"ha":305,"x_min":38,"x_max":267,"o":"m 267 252 l 38 252 l 38 287 l 267 287 l 267 252 z"},"–":{"ha":500,"x_min":40,"x_max":460,"o":"m 460 252 l 40 252 l 40 287 l 460 287 l 460 252 z"},"—":{"ha":1000,"x_min":40,"x_max":960,"o":"m 960 252 l 40 252 l 40 287 l 960 287 l 960 252 z"},"‘":{"ha":188,"x_min":45,"x_max":143,"o":"m 88 555 l 51 555 l 45 564 q 52 605 62 646 q 71 687 85 727 q 98 766 113 800 l 113 800 l 143 800 q 130 764 119 721 q 107 677 100 634 q 92 591 88 555 l 88 555 z"},"’":{"ha":188,"x_min":45,"x_max":143,"o":"m 99 800 l 137 800 l 143 791 q 137 750 127 709 q 116 668 103 629 q 90 590 75 555 l 75 555 l 45 555 q 55 582 64 614 q 72 645 80 678 q 87 711 92 742 q 97 773 99 800 l 99 800 z"},"“":{"ha":327,"x_min":45,"x_max":283,"o":"m 228 555 l 190 555 l 184 564 q 191 605 201 646 q 211 687 225 727 q 238 766 253 800 l 253 800 l 283 800 q 269 764 258 721 q 247 677 240 634 q 232 591 228 555 l 228 555 z m 88 555 l 51 555 l 45 564 q 52 605 62 646 q 71 687 85 727 q 98 766 113 800 l 113 800 l 143 800 q 130 764 119 721 q 107 677 100 634 q 92 591 88 555 l 88 555 z"},"”":{"ha":327,"x_min":45,"x_max":283,"o":"m 239 800 l 276 800 l 283 791 q 277 750 267 709 q 256 668 243 629 q 230 590 215 555 l 215 555 l 184 555 q 199 592 210 635 q 221 678 229 721 q 236 764 239 800 l 239 800 z m 99 800 l 137 800 l 143 791 q 137 750 127 709 q 116 668 103 629 q 90 590 75 555 l 75 555 l 45 555 q 55 582 64 614 q 72 645 80 678 q 87 711 92 742 q 97 773 99 800 l 99 800 z"},"…":{"ha":627,"x_min":76,"x_max":551,"o":"m 107 -9 l 107 -9 q 90 -9 83 2 q 76 12 76 29 l 76 29 q 76 45 83 56 q 90 67 107 67 l 107 67 q 126 67 133 56 q 139 45 139 29 l 139 29 q 139 12 133 2 q 126 -9 107 -9 z m 312 -9 l 312 -9 q 295 -9 288 2 q 281 12 281 29 l 281 29 q 281 45 288 56 q 295 67 312 67 l 312 67 q 332 67 339 56 q 345 45 345 29 l 345 29 q 345 12 338 2 q 331 -9 312 -9 z m 518 -9 l 518 -9 q 501 -9 495 2 q 488 12 488 29 l 488 29 q 488 45 495 56 q 501 67 518 67 l 518 67 q 538 67 545 56 q 551 45 551 29 l 551 29 q 551 12 545 2 q 538 -9 518 -9 z"},"×":{"ha":405,"x_min":37,"x_max":368,"o":"m 202 377 l 344 519 l 368 495 l 226 353 l 367 211 l 343 188 l 202 329 l 60 188 l 37 211 l 178 353 l 37 494 l 60 518 l 202 377 z"},"÷":{"ha":405,"x_min":32,"x_max":372,"o":"m 372 336 l 32 336 l 32 370 l 372 370 l 372 336 z m 202 134 l 202 134 q 185 134 179 146 q 172 157 172 174 l 172 174 q 172 194 180 205 q 187 216 202 216 l 202 216 q 219 216 226 205 q 232 193 232 176 l 232 176 q 232 157 226 146 q 219 134 202 134 z m 202 489 l 202 489 q 185 489 179 501 q 172 512 172 530 l 172 530 q 172 548 179 560 q 185 571 202 571 l 202 571 q 219 571 226 560 q 232 548 232 529 l 232 529 q 232 511 226 500 q 219 489 202 489 z"},"−":{"ha":405,"x_min":32,"x_max":372,"o":"m 372 337 l 32 337 l 32 371 l 372 371 l 372 337 z"},"₹":{"ha":405,"x_min":52,"x_max":361,"o":"m 269 0 l 226 0 l 55 308 l 59 340 l 70 340 q 110 340 135 350 q 159 360 174 377 l 174 377 q 194 399 201 433 q 207 467 207 510 l 207 510 q 207 555 199 591 q 191 626 167 649 l 167 649 q 152 664 129 673 q 106 681 70 681 l 70 681 l 52 681 l 52 714 l 361 714 l 361 681 l 173 681 q 205 664 225 627 q 244 590 244 510 l 244 510 q 244 446 228 402 q 211 357 176 334 q 141 311 85 307 l 85 307 l 92 316 l 269 0 z m 361 496 l 52 496 l 52 529 l 361 529 l 361 496 z"},"꠰":{"ha":176,"x_min":70,"x_max":107,"o":"m 70 0 l 70 548 l 107 548 l 107 0 l 70 0 z"},"꠱":{"ha":318,"x_min":70,"x_max":248,"o":"m 70 0 l 70 548 l 107 548 l 107 0 l 70 0 z m 211 0 l 211 548 l 248 548 l 248 0 l 211 0 z"},"꠲":{"ha":459,"x_min":70,"x_max":389,"o":"m 70 0 l 70 548 l 107 548 l 107 0 l 70 0 z m 211 0 l 211 548 l 248 548 l 248 0 l 211 0 z m 352 0 l 352 548 l 389 548 l 389 0 l 352 0 z"},"॑":{"ha":0,"x_min":-296,"x_max":-262,"o":"m -296 653 l -296 864 l -262 864 l -262 653 l -296 653 z"},"॒":{"ha":0,"x_min":-448,"x_max":-110,"o":"m -110 -128 l -110 -161 l -448 -161 l -448 -128 l -110 -128 z"},"।":{"ha":253,"x_min":144,"x_max":181,"o":"m 181 -49 l 144 -49 l 144 597 l 181 597 l 181 -49 z"},"॥":{"ha":411,"x_min":144,"x_max":339,"o":"m 339 -49 l 302 -49 l 302 597 l 339 597 l 339 -49 z m 181 -49 l 144 -49 l 144 597 l 181 597 l 181 -49 z"},"᳚":{"ha":0,"x_min":-345,"x_max":-212,"o":"m -345 653 l -345 864 l -311 864 l -311 653 l -345 653 z m -246 653 l -246 864 l -212 864 l -212 653 l -246 653 z"},"̇":{"ha":0,"x_min":-309,"x_max":-248,"o":"m -309 701 l -309 701 q -309 716 -302 727 q -295 737 -279 737 l -279 737 q -260 737 -254 727 q -248 716 -248 701 l -248 701 q -248 685 -254 675 q -260 665 -279 665 l -279 665 q -295 665 -302 675 q -309 685 -309 701 z"},"̣":{"ha":0,"x_min":-309,"x_max":-248,"o":"m -309 -135 l -309 -135 q -309 -120 -302 -109 q -295 -99 -279 -99 l -279 -99 q -260 -99 -254 -109 q -248 -120 -248 -135 l -248 -135 q -248 -151 -254 -161 q -260 -171 -279 -171 l -279 -171 q -295 -171 -302 -161 q -309 -151 -309 -135 z"},"‐":{"ha":305,"x_min":38,"x_max":267,"o":"m 267 252 l 38 252 l 38 287 l 267 287 l 267 252 z"},"​":{"ha":0,"x_min":0,"x_max":0,"o":""},"‌":{"ha":0,"x_min":0,"x_max":0,"o":""},"‍":{"ha":0,"x_min":-161,"x_max":161,"o":"m 29 -244 l -29 -244 l -29 565 l -121 474 l -161 514 l -40 631 l -161 748 l -121 788 l 0 669 l 121 788 l 161 748 l 40 631 l 161 514 l 121 474 l 29 565 l 29 -244 z"},"◌":{"ha":562,"x_min":57,"x_max":504,"o":"m 89 231 l 89 231 q 57 231 57 264 l 57 264 q 57 295 89 295 l 89 295 q 121 295 121 264 l 121 264 q 121 231 89 231 z m 138 95 l 138 95 q 106 95 106 127 l 106 127 q 106 158 138 158 l 138 158 q 169 158 169 127 l 169 127 q 169 95 138 95 z m 281 40 l 281 40 q 249 40 249 72 l 249 72 q 249 104 281 104 l 281 104 q 312 104 312 72 l 312 72 q 312 40 281 40 z m 138 369 l 138 369 q 106 369 106 401 l 106 401 q 106 432 138 432 l 138 432 q 169 432 169 401 l 169 401 q 169 369 138 369 z m 423 95 l 423 95 q 391 95 391 127 l 391 127 q 391 158 423 158 l 423 158 q 455 158 455 127 l 455 127 q 455 95 423 95 z m 281 424 l 281 424 q 249 424 249 456 l 249 456 q 249 487 281 487 l 281 487 q 312 487 312 456 l 312 456 q 312 424 281 424 z m 472 231 l 472 231 q 441 231 441 264 l 441 264 q 441 295 472 295 l 472 295 q 504 295 504 264 l 504 264 q 504 231 472 231 z m 423 369 l 423 369 q 391 369 391 401 l 391 401 q 391 432 423 432 l 423 432 q 455 432 455 401 l 455 401 q 455 369 423 369 z"},"«":{"ha":419,"x_min":39,"x_max":380,"o":"m 39 268 l 39 281 l 181 460 l 206 446 l 86 275 l 207 105 l 181 91 l 39 268 z m 213 268 l 213 281 l 355 460 l 380 446 l 260 275 l 380 105 l 355 91 l 213 268 z"},"»":{"ha":410,"x_min":39,"x_max":372,"o":"m 372 281 l 372 268 l 230 91 l 204 105 l 324 275 l 204 446 l 230 460 l 372 281 z m 207 281 l 207 268 l 65 91 l 39 105 l 159 275 l 39 446 l 65 460 l 207 281 z"},"̈":{"ha":0,"x_min":-102,"x_max":101,"o":"m -101 664 l -101 664 q -101 680 -93 690 q -86 700 -73 700 l -73 700 q -60 700 -52 690 q -45 680 -45 664 l -45 664 q -45 648 -52 638 q -60 628 -73 628 l -73 628 q -86 628 -93 638 q -101 648 -101 664 z m 44 664 l 44 664 q 44 681 53 691 q 61 700 73 700 l 73 700 q 85 700 93 691 q 101 681 101 665 l 101 665 q 101 648 93 638 q 85 628 72 628 l 72 628 q 60 628 52 639 q 44 649 44 664 z"},"̀":{"ha":0,"x_min":-399,"x_max":-246,"o":"m -399 764 l -355 764 q -338 737 -320 712 q -302 686 -283 663 q -264 639 -246 617 l -246 617 l -246 606 l -269 606 q -283 620 -301 638 q -319 656 -337 677 q -355 697 -371 718 q -387 738 -399 756 l -399 756 l -399 764 z"},"́":{"ha":0,"x_min":-246,"x_max":-96,"o":"m -96 764 l -96 756 q -107 739 -123 719 q -139 698 -157 677 q -175 656 -192 638 q -209 620 -224 606 l -224 606 l -246 606 l -246 618 q -224 645 -206 669 q -188 692 -171 715 q -155 738 -139 764 l -139 764 l -96 764 z"},"̋":{"ha":0,"x_min":-94,"x_max":159,"o":"m 159 766 l 159 759 q 152 747 139 727 q 126 707 109 685 q 92 662 75 642 q 58 621 44 606 l 44 606 l 23 606 l 23 615 q 40 636 59 665 q 77 694 94 722 q 110 749 119 766 l 119 766 l 159 766 z m 42 766 l 42 759 q 35 746 22 727 q 9 707 -7 685 q -24 662 -41 642 q -59 621 -73 606 l -73 606 l -94 606 l -94 615 q -77 638 -58 667 q -39 695 -23 722 q -8 749 2 766 l 2 766 l 42 766 z"},"̄":{"ha":0,"x_min":-113,"x_max":97,"o":"m -113 648 l 97 648 l 97 616 l -113 616 l -113 648 z"},"˙":{"ha":140,"x_min":40,"x_max":100,"o":"m 70 727 l 70 727 q 86 727 93 716 q 100 704 100 689 l 100 689 q 100 671 92 661 q 84 650 70 650 l 70 650 q 55 650 48 661 q 40 672 40 688 l 40 688 q 40 704 47 716 q 54 727 70 727 z"},"°":{"ha":359,"x_min":55,"x_max":304,"o":"m 180 474 l 180 474 q 144 474 116 490 q 88 505 72 533 q 55 561 55 599 l 55 599 q 55 638 72 666 q 88 693 117 708 q 145 723 179 723 l 179 723 q 213 723 242 708 q 270 693 287 666 q 304 638 304 599 l 304 599 q 304 561 288 533 q 271 505 243 490 q 215 474 180 474 z m 179 502 l 179 502 q 220 502 247 530 q 273 557 273 599 l 273 599 q 273 642 247 669 q 221 695 178 695 l 178 695 q 136 695 111 668 q 85 641 85 599 l 85 599 q 85 555 113 529 q 140 502 179 502 z"},"A":{"ha":392,"x_min":0,"x_max":392,"o":"m 392 0 l 353 0 l 289 269 l 104 269 l 39 0 l 0 0 l 171 714 l 221 714 l 392 0 z m 281 305 l 215 596 q 211 614 208 628 q 205 642 202 656 q 199 669 196 683 l 196 683 q 193 669 191 656 q 188 642 185 628 q 181 614 177 597 l 177 597 l 111 305 l 281 305 z"},"Á":{"ha":392,"x_min":0,"x_max":392,"o":"m 392 0 l 353 0 l 289 269 l 104 269 l 39 0 l 0 0 l 171 714 l 221 714 l 392 0 z m 281 305 l 215 596 q 211 614 208 628 q 205 642 202 656 q 199 669 196 683 l 196 683 q 193 669 191 656 q 188 642 185 628 q 181 614 177 597 l 177 597 l 111 305 l 281 305 z m 303 949 l 303 941 q 292 924 276 904 q 260 883 242 862 q 224 841 207 823 q 190 805 175 791 l 175 791 l 153 791 l 153 803 q 175 830 193 854 q 211 877 228 900 q 244 923 260 949 l 260 949 l 303 949 z"},"Ă":{"ha":392,"x_min":0,"x_max":392,"o":"m 392 0 l 353 0 l 289 269 l 104 269 l 39 0 l 0 0 l 171 714 l 221 714 l 392 0 z m 281 305 l 215 596 q 211 614 208 628 q 205 642 202 656 q 199 669 196 683 l 196 683 q 193 669 191 656 q 188 642 185 628 q 181 614 177 597 l 177 597 l 111 305 l 281 305 z m 271 904 l 300 904 q 299 871 286 847 q 273 822 250 808 q 227 794 195 794 l 195 794 q 152 794 123 822 q 94 849 92 904 l 92 904 l 121 904 q 122 880 132 863 q 141 845 158 836 q 174 826 196 826 l 196 826 q 220 826 236 836 q 252 845 261 863 q 270 881 271 904 l 271 904 z"},"Â":{"ha":392,"x_min":0,"x_max":392,"o":"m 392 0 l 353 0 l 289 269 l 104 269 l 39 0 l 0 0 l 171 714 l 221 714 l 392 0 z m 281 305 l 215 596 q 211 614 208 628 q 205 642 202 656 q 199 669 196 683 l 196 683 q 193 669 191 656 q 188 642 185 628 q 181 614 177 597 l 177 597 l 111 305 l 281 305 z m 177 949 l 216 949 q 229 926 247 895 q 264 864 281 838 q 298 811 306 799 l 306 799 l 306 791 l 285 791 q 264 816 241 849 q 217 882 196 911 l 196 911 q 177 884 153 849 q 128 814 109 791 l 109 791 l 87 791 l 87 799 q 99 816 116 843 q 132 870 149 899 q 165 927 177 949 l 177 949 z"},"Ä":{"ha":392,"x_min":0,"x_max":392,"o":"m 392 0 l 353 0 l 289 269 l 104 269 l 39 0 l 0 0 l 171 714 l 221 714 l 392 0 z m 281 305 l 215 596 q 211 614 208 628 q 205 642 202 656 q 199 669 196 683 l 196 683 q 193 669 191 656 q 188 642 185 628 q 181 614 177 597 l 177 597 l 111 305 l 281 305 z m 95 849 l 95 849 q 95 865 103 875 q 110 885 123 885 l 123 885 q 136 885 144 875 q 151 865 151 849 l 151 849 q 151 833 144 823 q 136 813 123 813 l 123 813 q 110 813 103 823 q 95 833 95 849 z m 240 849 l 240 849 q 240 866 249 876 q 257 885 269 885 l 269 885 q 281 885 289 876 q 297 866 297 850 l 297 850 q 297 833 289 823 q 281 813 268 813 l 268 813 q 256 813 248 824 q 240 834 240 849 z"},"À":{"ha":392,"x_min":0,"x_max":392,"o":"m 392 0 l 353 0 l 289 269 l 104 269 l 39 0 l 0 0 l 171 714 l 221 714 l 392 0 z m 281 305 l 215 596 q 211 614 208 628 q 205 642 202 656 q 199 669 196 683 l 196 683 q 193 669 191 656 q 188 642 185 628 q 181 614 177 597 l 177 597 l 111 305 l 281 305 z m 116 949 l 160 949 q 177 922 195 897 q 213 871 232 848 q 251 824 269 802 l 269 802 l 269 791 l 246 791 q 232 805 214 823 q 196 841 178 862 q 160 882 144 903 q 128 923 116 941 l 116 941 l 116 949 z"},"Ā":{"ha":392,"x_min":0,"x_max":392,"o":"m 392 0 l 353 0 l 289 269 l 104 269 l 39 0 l 0 0 l 171 714 l 221 714 l 392 0 z m 281 305 l 215 596 q 211 614 208 628 q 205 642 202 656 q 199 669 196 683 l 196 683 q 193 669 191 656 q 188 642 185 628 q 181 614 177 597 l 177 597 l 111 305 l 281 305 z m 91 833 l 301 833 l 301 801 l 91 801 l 91 833 z"},"Ą":{"ha":392,"x_min":0,"x_max":392,"o":"m 392 0 l 353 0 l 289 269 l 104 269 l 39 0 l 0 0 l 171 714 l 221 714 l 392 0 z m 281 305 l 215 596 q 211 614 208 628 q 205 642 202 656 q 199 669 196 683 l 196 683 q 193 669 191 656 q 188 642 185 628 q 181 614 177 597 l 177 597 l 111 305 l 281 305 z m 313 -132 l 313 -132 q 313 -159 325 -173 q 336 -188 358 -188 l 358 -188 q 368 -188 378 -186 q 387 -184 392 -182 l 392 -182 l 392 -212 q 385 -214 376 -216 q 366 -218 354 -218 l 354 -218 q 318 -218 298 -197 q 278 -177 278 -138 l 278 -138 q 278 -112 288 -86 q 298 -60 317 -36 q 336 -12 361 10 l 361 10 l 386 0 q 348 -36 331 -67 q 313 -98 313 -132 z"},"Å":{"ha":392,"x_min":0,"x_max":392,"o":"m 392 0 l 353 0 l 289 269 l 104 269 l 39 0 l 0 0 l 171 714 l 221 714 l 392 0 z m 281 305 l 215 596 q 211 614 208 628 q 205 642 202 656 q 199 669 196 683 l 196 683 q 193 669 191 656 q 188 642 185 628 q 181 614 177 597 l 177 597 l 111 305 l 281 305 z m 196 693 l 196 693 q 158 693 132 717 q 105 740 105 782 l 105 782 q 105 824 131 848 q 156 871 195 871 l 195 871 q 234 871 260 847 q 286 823 286 782 l 286 782 q 286 741 261 717 q 236 693 196 693 z m 197 721 l 197 721 q 224 721 241 738 q 258 754 258 781 l 258 781 q 258 809 241 827 q 224 844 195 844 l 195 844 q 165 844 150 827 q 134 809 134 782 l 134 782 q 134 757 150 739 q 166 721 197 721 z"},"Ã":{"ha":392,"x_min":0,"x_max":392,"o":"m 392 0 l 353 0 l 289 269 l 104 269 l 39 0 l 0 0 l 171 714 l 221 714 l 392 0 z m 281 305 l 215 596 q 211 614 208 628 q 205 642 202 656 q 199 669 196 683 l 196 683 q 193 669 191 656 q 188 642 185 628 q 181 614 177 597 l 177 597 l 111 305 l 281 305 z m 91 800 l 63 800 q 65 824 71 842 q 77 859 87 871 q 96 882 108 888 q 120 894 135 894 l 135 894 q 155 894 171 885 q 187 875 201 863 q 214 850 228 841 q 241 831 257 831 l 257 831 q 276 831 288 848 q 300 865 302 895 l 302 895 l 330 895 q 329 847 308 824 q 287 800 258 800 l 258 800 q 237 800 222 810 q 206 819 192 832 q 177 844 164 854 q 151 863 136 863 l 136 863 q 120 863 107 848 q 94 832 91 800 l 91 800 z"},"Æ":{"ha":579,"x_min":0,"x_max":532,"o":"m 532 35 l 532 0 l 239 0 l 239 268 l 116 268 l 41 0 l 0 0 l 204 714 l 532 714 l 532 679 l 277 679 l 277 392 l 519 392 l 519 357 l 277 357 l 277 35 l 532 35 z m 230 678 l 125 304 l 239 304 l 239 678 l 230 678 z"},"B":{"ha":440,"x_min":77,"x_max":401,"o":"m 77 714 l 220 714 q 303 714 345 673 q 386 631 386 548 l 386 548 q 386 502 374 466 q 362 430 340 407 q 317 384 284 377 l 284 377 l 284 376 q 324 366 350 343 q 376 319 389 283 q 401 247 401 199 l 401 199 q 401 137 382 93 q 362 49 324 25 q 286 0 231 0 l 231 0 l 77 0 l 77 714 z m 115 392 l 214 392 q 280 392 314 431 q 347 469 347 547 l 347 547 q 347 614 316 647 q 285 679 208 679 l 208 679 l 115 679 l 115 392 z m 218 358 l 115 358 l 115 35 l 223 35 q 288 35 325 76 q 361 116 361 200 l 361 200 q 361 258 343 293 q 325 327 293 343 q 260 358 218 358 l 218 358 z"},"C":{"ha":421,"x_min":53,"x_max":397,"o":"m 286 689 l 286 689 q 233 689 196 661 q 159 633 137 586 q 114 539 103 480 q 92 421 92 357 l 92 357 q 92 257 117 183 q 141 108 186 67 q 230 25 291 25 l 291 25 q 324 25 350 35 q 376 44 393 53 l 393 53 l 393 16 q 373 5 346 -2 q 319 -10 289 -10 l 289 -10 q 217 -10 164 35 q 111 79 82 162 q 53 244 53 358 l 53 358 q 53 430 66 496 q 79 562 107 614 q 135 665 179 695 q 223 724 286 724 l 286 724 q 316 724 344 717 q 371 709 397 695 l 397 695 l 381 662 q 357 677 333 683 q 308 689 286 689 z"},"Ć":{"ha":421,"x_min":53,"x_max":397,"o":"m 286 689 l 286 689 q 233 689 196 661 q 159 633 137 586 q 114 539 103 480 q 92 421 92 357 l 92 357 q 92 257 117 183 q 141 108 186 67 q 230 25 291 25 l 291 25 q 324 25 350 35 q 376 44 393 53 l 393 53 l 393 16 q 373 5 346 -2 q 319 -10 289 -10 l 289 -10 q 217 -10 164 35 q 111 79 82 162 q 53 244 53 358 l 53 358 q 53 430 66 496 q 79 562 107 614 q 135 665 179 695 q 223 724 286 724 l 286 724 q 316 724 344 717 q 371 709 397 695 l 397 695 l 381 662 q 357 677 333 683 q 308 689 286 689 z m 377 949 l 377 941 q 366 924 350 904 q 334 883 316 862 q 298 841 281 823 q 264 805 249 791 l 249 791 l 227 791 l 227 803 q 249 830 267 854 q 285 877 302 900 q 318 923 334 949 l 334 949 l 377 949 z"},"Č":{"ha":421,"x_min":53,"x_max":397,"o":"m 286 689 l 286 689 q 233 689 196 661 q 159 633 137 586 q 114 539 103 480 q 92 421 92 357 l 92 357 q 92 257 117 183 q 141 108 186 67 q 230 25 291 25 l 291 25 q 324 25 350 35 q 376 44 393 53 l 393 53 l 393 16 q 373 5 346 -2 q 319 -10 289 -10 l 289 -10 q 217 -10 164 35 q 111 79 82 162 q 53 244 53 358 l 53 358 q 53 430 66 496 q 79 562 107 614 q 135 665 179 695 q 223 724 286 724 l 286 724 q 316 724 344 717 q 371 709 397 695 l 397 695 l 381 662 q 357 677 333 683 q 308 689 286 689 z m 288 791 l 253 791 q 240 815 224 844 q 208 872 192 898 q 176 924 164 941 l 164 941 l 164 949 l 186 949 q 206 925 229 893 q 251 861 270 829 l 270 829 q 292 862 312 889 q 331 916 356 949 l 356 949 l 377 949 l 377 941 q 363 920 347 894 q 331 868 316 842 q 300 815 288 791 l 288 791 z"},"Ç":{"ha":421,"x_min":53,"x_max":397,"o":"m 286 689 l 286 689 q 233 689 196 661 q 159 633 137 586 q 114 539 103 480 q 92 421 92 357 l 92 357 q 92 257 117 183 q 141 108 186 67 q 230 25 291 25 l 291 25 q 324 25 350 35 q 376 44 393 53 l 393 53 l 393 16 q 373 5 346 -2 q 319 -10 289 -10 l 289 -10 q 217 -10 164 35 q 111 79 82 162 q 53 244 53 358 l 53 358 q 53 430 66 496 q 79 562 107 614 q 135 665 179 695 q 223 724 286 724 l 286 724 q 316 724 344 717 q 371 709 397 695 l 397 695 l 381 662 q 357 677 333 683 q 308 689 286 689 z m 352 -143 l 352 -143 q 352 -188 322 -214 q 292 -240 240 -240 l 240 -240 q 230 -240 217 -238 q 203 -237 192 -234 l 192 -234 l 192 -204 q 203 -207 216 -209 q 228 -211 238 -211 l 238 -211 q 272 -211 295 -193 q 318 -176 318 -143 l 318 -143 q 318 -110 294 -96 q 269 -82 229 -81 l 229 -81 l 263 0 l 293 0 l 268 -60 q 296 -63 315 -74 q 333 -86 343 -103 q 352 -120 352 -143 z"},"Ċ":{"ha":421,"x_min":53,"x_max":397,"o":"m 286 689 l 286 689 q 233 689 196 661 q 159 633 137 586 q 114 539 103 480 q 92 421 92 357 l 92 357 q 92 257 117 183 q 141 108 186 67 q 230 25 291 25 l 291 25 q 324 25 350 35 q 376 44 393 53 l 393 53 l 393 16 q 373 5 346 -2 q 319 -10 289 -10 l 289 -10 q 217 -10 164 35 q 111 79 82 162 q 53 244 53 358 l 53 358 q 53 430 66 496 q 79 562 107 614 q 135 665 179 695 q 223 724 286 724 l 286 724 q 316 724 344 717 q 371 709 397 695 l 397 695 l 381 662 q 357 677 333 683 q 308 689 286 689 z m 270 912 l 270 912 q 286 912 293 901 q 300 889 300 874 l 300 874 q 300 856 292 846 q 284 835 270 835 l 270 835 q 255 835 248 846 q 240 857 240 873 l 240 873 q 240 889 247 901 q 254 912 270 912 z"},"D":{"ha":481,"x_min":77,"x_max":428,"o":"m 428 364 l 428 364 q 428 244 403 163 q 378 82 327 41 q 275 0 195 0 l 195 0 l 77 0 l 77 714 l 197 714 q 277 714 328 675 q 378 636 403 558 q 428 480 428 364 z m 389 362 l 389 362 q 389 464 370 535 q 350 605 308 642 q 266 679 195 679 l 195 679 l 115 679 l 115 35 l 192 35 q 296 35 343 118 q 389 201 389 362 z"},"Ð":{"ha":487,"x_min":28,"x_max":433,"o":"m 82 714 l 202 714 q 282 714 333 675 q 384 636 409 558 q 433 480 433 364 l 433 364 q 433 244 409 163 q 384 82 332 41 q 280 0 200 0 l 200 0 l 82 0 l 82 357 l 28 357 l 28 390 l 82 390 l 82 714 z m 200 679 l 200 679 l 120 679 l 120 390 l 250 390 l 250 357 l 120 357 l 120 35 l 198 35 q 302 35 348 118 q 394 200 394 362 l 394 362 q 394 464 375 535 q 356 605 314 642 q 271 679 200 679 z"},"Ď":{"ha":481,"x_min":77,"x_max":428,"o":"m 428 364 l 428 364 q 428 244 403 163 q 378 82 327 41 q 275 0 195 0 l 195 0 l 77 0 l 77 714 l 197 714 q 277 714 328 675 q 378 636 403 558 q 428 480 428 364 z m 389 362 l 389 362 q 389 464 370 535 q 350 605 308 642 q 266 679 195 679 l 195 679 l 115 679 l 115 35 l 192 35 q 296 35 343 118 q 389 201 389 362 z m 257 791 l 222 791 q 209 815 193 844 q 177 872 161 898 q 145 924 133 941 l 133 941 l 133 949 l 155 949 q 175 925 198 893 q 220 861 239 829 l 239 829 q 261 862 281 889 q 300 916 325 949 l 325 949 l 346 949 l 346 941 q 332 920 316 894 q 300 868 285 842 q 269 815 257 791 l 257 791 z"},"Đ":{"ha":487,"x_min":28,"x_max":433,"o":"m 82 714 l 202 714 q 282 714 333 675 q 384 636 409 558 q 433 480 433 364 l 433 364 q 433 244 409 163 q 384 82 332 41 q 280 0 200 0 l 200 0 l 82 0 l 82 357 l 28 357 l 28 390 l 82 390 l 82 714 z m 200 679 l 200 679 l 120 679 l 120 390 l 250 390 l 250 357 l 120 357 l 120 35 l 198 35 q 302 35 348 118 q 394 200 394 362 l 394 362 q 394 464 375 535 q 356 605 314 642 q 271 679 200 679 z"},"E":{"ha":385,"x_min":77,"x_max":338,"o":"m 338 35 l 338 0 l 77 0 l 77 714 l 338 714 l 338 679 l 115 679 l 115 392 l 325 392 l 325 357 l 115 357 l 115 35 l 338 35 z"},"É":{"ha":385,"x_min":77,"x_max":338,"o":"m 338 35 l 338 0 l 77 0 l 77 714 l 338 714 l 338 679 l 115 679 l 115 392 l 325 392 l 325 357 l 115 357 l 115 35 l 338 35 z m 323 949 l 323 941 q 312 924 296 904 q 280 883 262 862 q 244 841 227 823 q 210 805 195 791 l 195 791 l 173 791 l 173 803 q 195 830 213 854 q 231 877 248 900 q 264 923 280 949 l 280 949 l 323 949 z"},"Ě":{"ha":385,"x_min":77,"x_max":338,"o":"m 338 35 l 338 0 l 77 0 l 77 714 l 338 714 l 338 679 l 115 679 l 115 392 l 325 392 l 325 357 l 115 357 l 115 35 l 338 35 z m 234 791 l 199 791 q 186 815 170 844 q 154 872 138 898 q 122 924 110 941 l 110 941 l 110 949 l 132 949 q 152 925 175 893 q 197 861 216 829 l 216 829 q 238 862 258 889 q 277 916 302 949 l 302 949 l 323 949 l 323 941 q 309 920 293 894 q 277 868 262 842 q 246 815 234 791 l 234 791 z"},"Ê":{"ha":385,"x_min":77,"x_max":338,"o":"m 338 35 l 338 0 l 77 0 l 77 714 l 338 714 l 338 679 l 115 679 l 115 392 l 325 392 l 325 357 l 115 357 l 115 35 l 338 35 z m 197 949 l 236 949 q 249 926 267 895 q 284 864 301 838 q 318 811 326 799 l 326 799 l 326 791 l 305 791 q 284 816 261 849 q 237 882 216 911 l 216 911 q 197 884 173 849 q 148 814 129 791 l 129 791 l 107 791 l 107 799 q 119 816 136 843 q 152 870 169 899 q 185 927 197 949 l 197 949 z"},"Ë":{"ha":385,"x_min":77,"x_max":338,"o":"m 338 35 l 338 0 l 77 0 l 77 714 l 338 714 l 338 679 l 115 679 l 115 392 l 325 392 l 325 357 l 115 357 l 115 35 l 338 35 z m 115 849 l 115 849 q 115 865 123 875 q 130 885 143 885 l 143 885 q 156 885 164 875 q 171 865 171 849 l 171 849 q 171 833 164 823 q 156 813 143 813 l 143 813 q 130 813 123 823 q 115 833 115 849 z m 260 849 l 260 849 q 260 866 269 876 q 277 885 289 885 l 289 885 q 301 885 309 876 q 317 866 317 850 l 317 850 q 317 833 309 823 q 301 813 288 813 l 288 813 q 276 813 268 824 q 260 834 260 849 z"},"Ė":{"ha":385,"x_min":77,"x_max":338,"o":"m 338 35 l 338 0 l 77 0 l 77 714 l 338 714 l 338 679 l 115 679 l 115 392 l 325 392 l 325 357 l 115 357 l 115 35 l 338 35 z m 217 912 l 217 912 q 233 912 240 901 q 247 889 247 874 l 247 874 q 247 856 239 846 q 231 835 217 835 l 217 835 q 202 835 195 846 q 187 857 187 873 l 187 873 q 187 889 194 901 q 201 912 217 912 z"},"È":{"ha":385,"x_min":77,"x_max":338,"o":"m 338 35 l 338 0 l 77 0 l 77 714 l 338 714 l 338 679 l 115 679 l 115 392 l 325 392 l 325 357 l 115 357 l 115 35 l 338 35 z m 136 949 l 180 949 q 197 922 215 897 q 233 871 252 848 q 271 824 289 802 l 289 802 l 289 791 l 266 791 q 252 805 234 823 q 216 841 198 862 q 180 882 164 903 q 148 923 136 941 l 136 941 l 136 949 z"},"Ē":{"ha":385,"x_min":77,"x_max":338,"o":"m 338 35 l 338 0 l 77 0 l 77 714 l 338 714 l 338 679 l 115 679 l 115 392 l 325 392 l 325 357 l 115 357 l 115 35 l 338 35 z m 111 833 l 321 833 l 321 801 l 111 801 l 111 833 z"},"Ę":{"ha":385,"x_min":77,"x_max":338,"o":"m 338 35 l 338 0 l 77 0 l 77 714 l 338 714 l 338 679 l 115 679 l 115 392 l 325 392 l 325 357 l 115 357 l 115 35 l 338 35 z m 228 -132 l 228 -132 q 228 -159 240 -173 q 251 -188 273 -188 l 273 -188 q 283 -188 293 -186 q 302 -184 307 -182 l 307 -182 l 307 -212 q 300 -214 291 -216 q 281 -218 269 -218 l 269 -218 q 233 -218 213 -197 q 193 -177 193 -138 l 193 -138 q 193 -112 203 -86 q 213 -60 232 -36 q 251 -12 276 10 l 276 10 l 301 0 q 263 -36 246 -67 q 228 -98 228 -132 z"},"F":{"ha":358,"x_min":77,"x_max":339,"o":"m 115 324 l 115 0 l 77 0 l 77 714 l 339 714 l 339 679 l 115 679 l 115 359 l 327 359 l 327 324 l 115 324 z"},"G":{"ha":525,"x_min":53,"x_max":469,"o":"m 300 321 l 300 356 l 469 356 l 469 24 q 431 7 388 -1 q 345 -10 307 -10 l 307 -10 q 219 -10 163 38 q 107 85 80 168 q 53 250 53 355 l 53 355 q 53 464 82 548 q 111 631 169 678 q 227 724 315 724 l 315 724 q 353 724 389 714 q 425 704 462 680 l 462 680 l 445 648 q 411 671 379 680 q 347 689 316 689 l 316 689 q 239 689 189 647 q 139 605 116 530 q 92 454 92 355 l 92 355 q 92 259 115 185 q 137 110 185 68 q 233 25 309 25 l 309 25 q 342 25 374 32 q 406 39 433 48 l 433 48 l 433 321 l 300 321 z"},"Ğ":{"ha":525,"x_min":53,"x_max":469,"o":"m 300 321 l 300 356 l 469 356 l 469 24 q 431 7 388 -1 q 345 -10 307 -10 l 307 -10 q 219 -10 163 38 q 107 85 80 168 q 53 250 53 355 l 53 355 q 53 464 82 548 q 111 631 169 678 q 227 724 315 724 l 315 724 q 353 724 389 714 q 425 704 462 680 l 462 680 l 445 648 q 411 671 379 680 q 347 689 316 689 l 316 689 q 239 689 189 647 q 139 605 116 530 q 92 454 92 355 l 92 355 q 92 259 115 185 q 137 110 185 68 q 233 25 309 25 l 309 25 q 342 25 374 32 q 406 39 433 48 l 433 48 l 433 321 l 300 321 z m 369 904 l 398 904 q 397 871 384 847 q 371 822 348 808 q 325 794 293 794 l 293 794 q 250 794 221 822 q 192 849 190 904 l 190 904 l 219 904 q 220 880 230 863 q 239 845 256 836 q 272 826 294 826 l 294 826 q 318 826 334 836 q 350 845 359 863 q 368 881 369 904 l 369 904 z"},"Ģ":{"ha":525,"x_min":53,"x_max":469,"o":"m 300 321 l 300 356 l 469 356 l 469 24 q 431 7 388 -1 q 345 -10 307 -10 l 307 -10 q 219 -10 163 38 q 107 85 80 168 q 53 250 53 355 l 53 355 q 53 464 82 548 q 111 631 169 678 q 227 724 315 724 l 315 724 q 353 724 389 714 q 425 704 462 680 l 462 680 l 445 648 q 411 671 379 680 q 347 689 316 689 l 316 689 q 239 689 189 647 q 139 605 116 530 q 92 454 92 355 l 92 355 q 92 259 115 185 q 137 110 185 68 q 233 25 309 25 l 309 25 q 342 25 374 32 q 406 39 433 48 l 433 48 l 433 321 l 300 321 z m 334 -61 l 334 -71 q 328 -94 319 -120 q 310 -147 299 -173 q 287 -199 273 -221 l 273 -221 l 253 -221 l 253 -211 q 260 -193 269 -165 q 277 -138 284 -109 q 291 -81 293 -61 l 293 -61 l 334 -61 z"},"Ġ":{"ha":525,"x_min":53,"x_max":469,"o":"m 300 321 l 300 356 l 469 356 l 469 24 q 431 7 388 -1 q 345 -10 307 -10 l 307 -10 q 219 -10 163 38 q 107 85 80 168 q 53 250 53 355 l 53 355 q 53 464 82 548 q 111 631 169 678 q 227 724 315 724 l 315 724 q 353 724 389 714 q 425 704 462 680 l 462 680 l 445 648 q 411 671 379 680 q 347 689 316 689 l 316 689 q 239 689 189 647 q 139 605 116 530 q 92 454 92 355 l 92 355 q 92 259 115 185 q 137 110 185 68 q 233 25 309 25 l 309 25 q 342 25 374 32 q 406 39 433 48 l 433 48 l 433 321 l 300 321 z m 294 912 l 294 912 q 310 912 317 901 q 324 889 324 874 l 324 874 q 324 856 316 846 q 308 835 294 835 l 294 835 q 279 835 272 846 q 264 857 264 873 l 264 873 q 264 889 271 901 q 278 912 294 912 z"},"H":{"ha":496,"x_min":77,"x_max":419,"o":"m 419 714 l 419 0 l 381 0 l 381 357 l 115 357 l 115 0 l 77 0 l 77 714 l 115 714 l 115 393 l 381 393 l 381 714 l 419 714 z"},"Ħ":{"ha":499,"x_min":0,"x_max":499,"o":"m 115 0 l 77 0 l 77 543 l 0 543 l 0 576 l 77 576 l 77 714 l 115 714 l 115 576 l 381 576 l 381 714 l 419 714 l 419 576 l 499 576 l 499 543 l 419 543 l 419 0 l 381 0 l 381 357 l 115 357 l 115 0 z m 115 543 l 115 393 l 381 393 l 381 543 l 115 543 z"},"I":{"ha":232,"x_min":37,"x_max":195,"o":"m 195 25 l 195 0 l 37 0 l 37 25 l 98 31 l 98 682 l 37 689 l 37 714 l 195 714 l 195 689 l 135 682 l 135 31 l 195 25 z"},"Ĳ":{"ha":433,"x_min":37,"x_max":358,"o":"m 195 25 l 195 0 l 37 0 l 37 25 l 98 31 l 98 682 l 37 689 l 37 714 l 195 714 l 195 689 l 135 682 l 135 31 l 195 25 z m 254 -179 l 254 -179 q 237 -179 222 -176 q 207 -173 194 -167 l 194 -167 l 194 -132 q 208 -136 223 -139 q 237 -142 252 -142 l 252 -142 q 279 -142 295 -128 q 310 -114 316 -85 q 321 -57 321 -17 l 321 -17 l 321 714 l 359 714 l 359 -24 q 359 -77 348 -111 q 337 -146 314 -162 q 291 -179 254 -179 z"},"Í":{"ha":232,"x_min":37,"x_max":223,"o":"m 195 25 l 195 0 l 37 0 l 37 25 l 98 31 l 98 682 l 37 689 l 37 714 l 195 714 l 195 689 l 135 682 l 135 31 l 195 25 z m 223 949 l 223 941 q 212 924 196 904 q 180 883 162 862 q 144 841 127 823 q 110 805 95 791 l 95 791 l 73 791 l 73 803 q 95 830 113 854 q 131 877 148 900 q 164 923 180 949 l 180 949 l 223 949 z"},"Î":{"ha":232,"x_min":7,"x_max":226,"o":"m 195 25 l 195 0 l 37 0 l 37 25 l 98 31 l 98 682 l 37 689 l 37 714 l 195 714 l 195 689 l 135 682 l 135 31 l 195 25 z m 97 949 l 136 949 q 149 926 167 895 q 184 864 201 838 q 218 811 226 799 l 226 799 l 226 791 l 205 791 q 184 816 161 849 q 137 882 116 911 l 116 911 q 97 884 73 849 q 48 814 29 791 l 29 791 l 7 791 l 7 799 q 19 816 36 843 q 52 870 69 899 q 85 927 97 949 l 97 949 z"},"Ï":{"ha":232,"x_min":15,"x_max":218,"o":"m 195 25 l 195 0 l 37 0 l 37 25 l 98 31 l 98 682 l 37 689 l 37 714 l 195 714 l 195 689 l 135 682 l 135 31 l 195 25 z m 16 849 l 16 849 q 16 865 24 875 q 31 885 44 885 l 44 885 q 57 885 65 875 q 72 865 72 849 l 72 849 q 72 833 65 823 q 57 813 44 813 l 44 813 q 31 813 24 823 q 16 833 16 849 z m 161 849 l 161 849 q 161 866 170 876 q 178 885 190 885 l 190 885 q 202 885 210 876 q 218 866 218 850 l 218 850 q 218 833 210 823 q 202 813 189 813 l 189 813 q 177 813 169 824 q 161 834 161 849 z"},"İ":{"ha":232,"x_min":37,"x_max":195,"o":"m 195 25 l 195 0 l 37 0 l 37 25 l 98 31 l 98 682 l 37 689 l 37 714 l 195 714 l 195 689 l 135 682 l 135 31 l 195 25 z m 117 912 l 117 912 q 133 912 140 901 q 147 889 147 874 l 147 874 q 147 856 139 846 q 131 835 117 835 l 117 835 q 102 835 95 846 q 87 857 87 873 l 87 873 q 87 889 94 901 q 101 912 117 912 z"}}}
